<?xml version="1.0" encoding="UTF-8"?>
<svg version="1.1" xmlns="http://www.w3.org/2000/svg" width="398" height="117">
<path d="M0 0 C2.05782056 -0.21692984 4.12226213 -0.37163893 6.1875 -0.5 C7.91033203 -0.63921875 7.91033203 -0.63921875 9.66796875 -0.78125 C13.31136595 0.07300491 13.6247627 0.27836201 15.5625 3.21875 C18.68711912 8.9598476 21.23775203 14.99798404 23.8125 21 C24.56563477 22.73443359 24.56563477 22.73443359 25.33398438 24.50390625 C26.56171012 27.33352178 27.78353907 30.16552793 29 33 C29.34256836 32.24904053 29.68513672 31.49808105 30.03808594 30.72436523 C31.32517153 27.90707305 32.615225 25.09116379 33.90722656 22.27612305 C34.73467998 20.47092267 35.55877839 18.66418566 36.3828125 16.85742188 C39.03507033 11.0839094 41.7099173 5.43821922 45 0 C49.29 0 53.58 0 58 0 C58.41115733 4.14001815 58.82076224 8.28013854 59.22680664 12.4206543 C59.36463529 13.82177917 59.50327437 15.22282461 59.64282227 16.6237793 C61.08308775 31.09402781 62.15003733 45.44637906 62 60 C57.38 60 52.76 60 48 60 C47.34 48.12 46.68 36.24 46 24 C42.04 33.24 38.08 42.48 34 52 C30.7 52 27.4 52 24 52 C22.125 50.125 22.125 50.125 21 47 C20.35823193 45.39420265 19.71197461 43.79019589 19.0625 42.1875 C18.72734375 41.32253906 18.3921875 40.45757812 18.046875 39.56640625 C16.81242704 36.54016628 15.37067205 33.67018273 13.83203125 30.7890625 C12.94607286 28.88404399 12.4467402 27.0486874 12 25 C10.85063364 28.44809907 10.66751764 31.69776193 10.46484375 35.29296875 C10.42186661 35.99899734 10.37888947 36.70502594 10.33460999 37.43244934 C10.19843493 39.68392361 10.06789734 41.93568444 9.9375 44.1875 C9.84607464 45.71551707 9.75428213 47.24351221 9.66210938 48.77148438 C9.43645712 52.51405923 9.21843185 56.25696882 9 60 C4.38 60 -0.24 60 -5 60 C-2.47913186 8.62211345 -2.47913186 8.62211345 0 0 Z " fill="#F3C8F4" transform="translate(266,16)"/>
<path d="M0 0 C6.72746543 4.97247445 10.38118254 10.80536505 12 19 C13.16777942 29.93263975 12.42601085 40.23590051 5.2734375 49.15234375 C-1.15326745 55.40714096 -9.20333297 58.14745292 -18.0625 58.5 C-26.68027363 58.17585547 -33.97842244 55.16161424 -40 49 C-46.76495428 40.06799909 -47.96483903 31.03534641 -47 20 C-44.9622821 10.79553562 -40.7426895 4.27263328 -32.875 -0.875 C-23.51218811 -6.55284978 -9.14715156 -5.69478748 0 0 Z M-30.3125 14.5625 C-33.20908484 20.46295059 -33.68282092 26.88063335 -32.3125 33.3125 C-30.7810225 37.61522249 -29.19932463 41.58406313 -25.234375 44.13671875 C-20.32118048 46.03499845 -13.87783087 46.20142454 -8.98828125 44.16015625 C-4.86653423 41.07663266 -3.05356862 36.87275488 -2 32 C-1.18678249 25.64109088 -2.18404877 19.76599537 -5 14 C-7.12960636 11.37894602 -8.72763374 9.57037108 -11.8125 8.1875 C-20.28421642 7.46135288 -24.33487387 7.93864401 -30.3125 14.5625 Z " fill="#F2C9F4" transform="translate(384,19)"/>
<path d="M0 0 C4.62 0 9.24 0 14 0 C14.33 7.26 14.66 14.52 15 22 C21.6 22 28.2 22 35 22 C35 14.74 35 7.48 35 0 C39.62 0 44.24 0 49 0 C49 19.8 49 39.6 49 60 C44.38 60 39.76 60 35 60 C35 51.75 35 43.5 35 35 C28.07 35 21.14 35 14 35 C14 43.25 14 51.5 14 60 C9.38 60 4.76 60 0 60 C0 40.2 0 20.4 0 0 Z " fill="#F2C7F3" transform="translate(149,16)"/>
<path d="M0 0 C13.53 0 27.06 0 41 0 C41 3.96 41 7.92 41 12 C32.09 12 23.18 12 14 12 C14 15.63 14 19.26 14 23 C21.92 23 29.84 23 38 23 C38 26.63 38 30.26 38 34 C30.08 34 22.16 34 14 34 C14 38.62 14 43.24 14 48 C23.57 48 33.14 48 43 48 C43 51.96 43 55.92 43 60 C28.81 60 14.62 60 0 60 C0 40.2 0 20.4 0 0 Z " fill="#F2C8F3" transform="translate(211,16)"/>
<path d="M0 0 C-0.99 3.63 -1.98 7.26 -3 11 C-8.68595041 10.07438017 -8.68595041 10.07438017 -11.375 9.4375 C-17.74782081 8.3753632 -22.6464285 8.46657307 -28.30078125 11.69921875 C-31.30694523 14.0004891 -32.3819645 16.39479292 -33 20 C-33.6694582 28.21520846 -34.00579477 35.15966465 -28.5 41.8125 C-23.64353436 45.65720196 -15.81159424 44.28078489 -10 44 C-7.47702512 43.5423626 -5.40114446 42.9147217 -3 42 C-1.68 45.3 -0.36 48.6 1 52 C-4.51580862 57.51580862 -11.39725925 58.20535524 -19 58.4375 C-25.40143439 58.30500844 -30.33897465 56.90472087 -36 54 C-36.75023438 53.62617187 -37.50046875 53.25234375 -38.2734375 52.8671875 C-39.12808594 52.43792969 -39.12808594 52.43792969 -40 52 C-40 51.34 -40 50.68 -40 50 C-40.99 49.67 -41.98 49.34 -43 49 C-44.3515625 46.85546875 -44.3515625 46.85546875 -45.625 44.1875 C-46.05039063 43.31480469 -46.47578125 42.44210938 -46.9140625 41.54296875 C-50.62202259 32.85993989 -50.12489552 22.07753053 -47.046875 13.25 C-43.69614595 6.04843308 -38.70528721 0.99515465 -31.75 -2.75 C-21.40822687 -6.30867098 -9.53514691 -4.84324922 0 0 Z " fill="#F3C9F4" transform="translate(140,19)"/>
<path d="M0 0 C1.01964844 -0.01675781 2.03929688 -0.03351563 3.08984375 -0.05078125 C6.48981108 0.36472067 8.18910692 1.50382156 11.0625 3.3125 C13.17519993 3.91956694 15.30170202 4.48000168 17.4375 5 C25.16218491 7.31304124 28.3286571 10.74518163 32.3671875 17.4921875 C36.30302526 25.55386898 36.55414577 36.23407242 34.0390625 44.796875 C33.71679688 45.62703125 33.39453125 46.4571875 33.0625 47.3125 C31.95837761 44.00013283 32.22500942 43.50967688 33.0625 40.3125 C33.83076126 29.79847856 33.83076126 29.79847856 30.0625 20.3125 C22.91051993 14.51195565 16.08035929 13.61242934 7.0625 14.3125 C1.12240313 15.38403066 1.12240313 15.38403066 -3.9375 18.3125 C-2.9475 18.3125 -1.9575 18.3125 -0.9375 18.3125 C-1.2675 19.6325 -1.5975 20.9525 -1.9375 22.3125 C-4.70014289 22.90982819 -7.09782769 23.3125 -9.9375 23.3125 C-10.2675 23.9725 -10.5975 24.6325 -10.9375 25.3125 C-10.2775 25.3125 -9.6175 25.3125 -8.9375 25.3125 C-8.9375 25.9725 -8.9375 26.6325 -8.9375 27.3125 C-10.9175 28.3025 -12.8975 29.2925 -14.9375 30.3125 C-14.9375 32.2925 -14.9375 34.2725 -14.9375 36.3125 C-17.45330465 35.33528662 -18.68741936 34.77906835 -19.984375 32.359375 C-21.91428883 26.05498981 -23.10871961 21.35941338 -19.9375 15.3125 C-19.51210938 14.33990234 -19.51210938 14.33990234 -19.078125 13.34765625 C-15.31440753 5.01135221 -9.3857863 0.03550739 0 0 Z M-2.9375 6.3125 C-1.39723985 7.67338728 -1.39723985 7.67338728 1.0625 8.3125 C3.85074238 7.58351296 6.43915092 6.4968275 9.0625 5.3125 C9.0625 4.9825 9.0625 4.6525 9.0625 4.3125 C4.51444365 4.13414485 1.1830746 4.31464565 -2.9375 6.3125 Z M-4.9375 7.3125 C-6.57426257 9.2725281 -6.57426257 9.2725281 -7.9375 11.3125 C-4.81552522 10.0035428 -4.81552522 10.0035428 -2.9375 7.3125 C-3.5975 7.3125 -4.2575 7.3125 -4.9375 7.3125 Z M-8.9375 11.3125 C-9.2675 11.9725 -9.5975 12.6325 -9.9375 13.3125 C-9.2775 13.3125 -8.6175 13.3125 -7.9375 13.3125 C-8.2675 12.6525 -8.5975 11.9925 -8.9375 11.3125 Z M-11.9375 14.3125 C-10.9375 16.3125 -10.9375 16.3125 -10.9375 16.3125 Z M-13.9375 17.3125 C-12.9375 19.3125 -12.9375 19.3125 -12.9375 19.3125 Z M-14.9375 19.3125 C-15.9275 22.6125 -16.9175 25.9125 -17.9375 29.3125 C-17.2775 29.3125 -16.6175 29.3125 -15.9375 29.3125 C-15.2775 26.0125 -14.6175 22.7125 -13.9375 19.3125 C-14.2675 19.3125 -14.5975 19.3125 -14.9375 19.3125 Z M-19.9375 22.3125 C-18.9375 26.3125 -18.9375 26.3125 -18.9375 26.3125 Z M-18.9375 26.3125 C-17.9375 28.3125 -17.9375 28.3125 -17.9375 28.3125 Z " fill="#A69AE3" transform="translate(31.9375,3.6875)"/>
<path d="M0 0 C1.25683594 0.00322266 2.51367188 0.00644531 3.80859375 0.00976562 C5.12730469 0.01814453 6.44601563 0.02652344 7.8046875 0.03515625 C9.14452961 0.04017136 10.4843735 0.04473424 11.82421875 0.04882812 C15.10941956 0.06064539 18.39453147 0.07712008 21.6796875 0.09765625 C21.6796875 3.09765625 21.6796875 6.09765625 21.6796875 9.09765625 C12.1096875 9.09765625 2.5396875 9.09765625 -7.3203125 9.09765625 C-7.6503125 6.45765625 -7.9803125 3.81765625 -8.3203125 1.09765625 C-5.50207058 -0.31146471 -3.14779968 -0.01417928 0 0 Z " fill="#9E91E3" transform="translate(26.3203125,95.90234375)"/>
<path d="M0 0 C2.1875 1.1015625 2.1875 1.1015625 5.4375 3.1015625 C5.4375 3.4315625 5.4375 3.7615625 5.4375 4.1015625 C4.27734375 4.03195312 4.27734375 4.03195312 3.09375 3.9609375 C-5.03184848 3.67935735 -10.2798075 4.36409985 -16.46484375 9.76171875 C-21.39073608 14.83340916 -23.57729939 20.3938039 -25.5625 27.1015625 C-27.5625 25.1015625 -27.5625 25.1015625 -27.7578125 22.9375 C-27.73460937 22.12539063 -27.71140625 21.31328125 -27.6875 20.4765625 C-27.66945313 19.65929687 -27.65140625 18.84203125 -27.6328125 18 C-27.60960937 17.37351562 -27.58640625 16.74703125 -27.5625 16.1015625 C-28.2225 15.7715625 -28.8825 15.4415625 -29.5625 15.1015625 C-22.95468707 3.20295777 -14.57910408 -5.11157613 0 0 Z " fill="#A296E5" transform="translate(40.5625,4.8984375)"/>
<path d="M0 0 C8.91 0 17.82 0 27 0 C27 0.99 27 1.98 27 3 C26.34 3.66 25.68 4.32 25 5 C24.45859375 5.85980469 23.9171875 6.71960938 23.359375 7.60546875 C21 10 21 10 17.328125 10.48828125 C15.9678884 10.4552658 14.60807662 10.39593571 13.25 10.3125 C12.55261719 10.28994141 11.85523438 10.26738281 11.13671875 10.24414062 C9.42355065 10.18547048 7.71149377 10.09579256 6 10 C6 9.34 6 8.68 6 8 C4.68 7.34 3.36 6.68 2 6 C2 5.34 2 4.68 2 4 C1.34 3.67 0.68 3.34 0 3 C0 2.01 0 1.02 0 0 Z M17 3 C17 3.33 17 3.66 17 4 C18.98 4 20.96 4 23 4 C23 3.67 23 3.34 23 3 C21.02 3 19.04 3 17 3 Z " fill="#AAA0ED" transform="translate(20,106)"/>
<path d="M0 0 C1.13558363 3.42285847 0.86550211 5.9206689 0.1875 9.4375 C0.01605469 10.36433594 -0.15539063 11.29117188 -0.33203125 12.24609375 C-1.17110914 15.70544997 -2.410784 18.82156799 -4 22 C-13.57 22 -23.14 22 -33 22 C-34 18 -34 18 -34 16 C-19.15 15.505 -19.15 15.505 -4 15 C-2.53074698 11.32686744 -1.58321334 8.48150002 -0.875 4.6875 C-0.70742188 3.80449219 -0.53984375 2.92148438 -0.3671875 2.01171875 C-0.18542969 1.01591797 -0.18542969 1.01591797 0 0 Z " fill="#9591BF" transform="translate(52,73)"/>
<path d="M0 0 C0.99 1.485 0.99 1.485 2 3 C6.97269718 9.63026291 12.08854371 11.94302136 20 14 C17.60236815 16.39763185 16.66726502 16.34280586 13.375 16.625 C12.55773438 16.69976562 11.74046875 16.77453125 10.8984375 16.8515625 C10.27195312 16.90054688 9.64546875 16.94953125 9 17 C13.48692514 19.61315279 17.06135044 19.18494444 22 18 C24.54002387 16.85513523 26.66205167 15.54205103 29 14 C28.78931408 17.68700366 27.9954447 19.00512471 25.5 21.8125 C22.2070395 24.29209136 19.33317259 24.78353648 15.2578125 24.5625 C11.33218816 23.58448978 8.42305452 21.20217174 6 18 C6 17.01 6 16.02 6 15 C5.071875 14.566875 5.071875 14.566875 4.125 14.125 C2 13 2 13 0 11 C-0.1953125 8.3984375 -0.1953125 8.3984375 -0.125 5.375 C-0.10695312 4.37210938 -0.08890625 3.36921875 -0.0703125 2.3359375 C-0.04710938 1.56507812 -0.02390625 0.79421875 0 0 Z " fill="#A79EE0" transform="translate(2,35)"/>
<path d="M0 0 C0.99 0.33 1.98 0.66 3 1 C2.360625 1.928125 1.72125 2.85625 1.0625 3.8125 C-2.41165908 9.18165494 -2.52419696 13.77079278 -2 20 C-1.20356275 23.41264102 -0.17907311 26.7014026 1 30 C1.66 30 2.32 30 3 30 C3 30.66 3 31.32 3 32 C-2.81528314 30.17233959 -5.90277011 26.93843947 -8.875 21.6875 C-10.20143304 17.33974725 -10.29766705 14.3343845 -9 10 C-6.69056864 5.71105605 -4.11811692 2.63981854 0 0 Z " fill="#A79DDC" transform="translate(12,11)"/>
<path d="M0 0 C0.66 0.33 1.32 0.66 2 1 C1.195625 1.886875 0.39125 2.77375 -0.4375 3.6875 C-2.7039159 6.38287032 -3.68417366 8.42063478 -4 12 C-2.02 11.67 -0.04 11.34 2 11 C1.67 12.32 1.34 13.64 1 15 C-1.76264289 15.59732819 -4.16032769 16 -7 16 C-7.33 16.66 -7.66 17.32 -8 18 C-7.34 18 -6.68 18 -6 18 C-6 18.66 -6 19.32 -6 20 C-7.98 20.99 -9.96 21.98 -12 23 C-12 24.98 -12 26.96 -12 29 C-14.51580465 28.02278662 -15.74991936 27.46656835 -17.046875 25.046875 C-20.26582278 14.53164557 -20.26582278 14.53164557 -18 10 C-17.34 10 -16.68 10 -16 10 C-16.03480469 10.61488281 -16.06960937 11.22976562 -16.10546875 11.86328125 C-16.13253906 12.67152344 -16.15960938 13.47976562 -16.1875 14.3125 C-16.22230469 15.11300781 -16.25710937 15.91351563 -16.29296875 16.73828125 C-15.93801608 19.47851584 -15.10633718 20.29171079 -13 22 C-12.90203125 21.34773438 -12.8040625 20.69546875 -12.703125 20.0234375 C-11.74248993 14.40869116 -10.69818795 10.39159819 -7 6 C-6.34 6 -5.68 6 -5 6 C-5 5.34 -5 4.68 -5 4 C-3.37373596 2.61767557 -1.7074998 1.28062485 0 0 Z " fill="#9391B8" transform="translate(29,11)"/>
<path d="M0 0 C3.96 0 7.92 0 12 0 C12 19.8 12 39.6 12 60 C11.67 60 11.34 60 11 60 C8.95568226 40.68814407 8.4091238 21.40011829 8 2 C5.36 1.67 2.72 1.34 0 1 C0 0.67 0 0.34 0 0 Z " fill="#EDCFED" transform="translate(186,16)"/>
<path d="M0 0 C1.53333984 0.00676758 1.53333984 0.00676758 3.09765625 0.01367188 C5.60683194 0.025397 8.1158849 0.04180824 10.625 0.0625 C10.955 1.3825 11.285 2.7025 11.625 4.0625 C2.055 4.0625 -7.515 4.0625 -17.375 4.0625 C-17.375 3.0725 -17.375 2.0825 -17.375 1.0625 C-11.58854356 -0.19156138 -5.88631884 -0.04936913 0 0 Z " fill="#A798EE" transform="translate(36.375,100.9375)"/>
<path d="M0 0 C2.66666667 2.66666667 5.33333333 5.33333333 8 8 C8 6.02 8 4.04 8 2 C8.99 1.67 9.98 1.34 11 1 C11 5.95 11 10.9 11 16 C10.34 16 9.68 16 9 16 C8.34 14.35 7.68 12.7 7 11 C6.34 11 5.68 11 5 11 C4.67 10.34 4.34 9.68 4 9 C3.67 11.31 3.34 13.62 3 16 C2.01 16 1.02 16 0 16 C0 10.72 0 5.44 0 0 Z " fill="#A29DD1" transform="translate(220,89)"/>
<path d="M0 0 C6.16044164 3.87227761 8.7691198 10.30735941 11 17 C11.12271523 19.61697371 11.18512754 22.19567761 11.1875 24.8125 C11.19974609 25.51181641 11.21199219 26.21113281 11.22460938 26.93164062 C11.23699659 31.34561655 10.62789183 34.90131584 9 39 C7.89587761 35.68763283 8.16250942 35.19717688 9 32 C9.76826126 21.48597856 9.76826126 21.48597856 6 12 C-0.02321127 6.10326036 -7.97299866 5.75534985 -16 5 C-16 4.67 -16 4.34 -16 4 C-11.38 4 -6.76 4 -2 4 C-1.34 2.68 -0.68 1.36 0 0 Z " fill="#9E99BF" transform="translate(56,12)"/>
<path d="M0 0 C2.4375 1.875 2.4375 1.875 4 4 C4 4.66 4 5.32 4 6 C3.01 6 2.02 6 1 6 C1 5.01 1 4.02 1 3 C-1.97 3 -4.94 3 -8 3 C-8.16677282 6.41656024 -8.16677282 6.41656024 -8 10 C-6.16116119 12.28728734 -6.16116119 12.28728734 -3.375 12.125 C-2.59125 12.08375 -1.8075 12.0425 -1 12 C-0.67 11.34 -0.34 10.68 0 10 C-1.65 10.33 -3.3 10.66 -5 11 C-5.33 9.68 -5.66 8.36 -6 7 C-2.7 7.33 0.6 7.66 4 8 C2.75023244 11.65316671 2.32901247 12.78065836 -1 15 C-4.36187193 14.81989972 -6.99918142 14.58112046 -9.9375 12.875 C-11.6712306 9.81547541 -11.42145216 7.43182475 -11 4 C-8.11188513 -0.5054592 -5.11821063 -0.73117295 0 0 Z " fill="#A5A1CB" transform="translate(254,90)"/>
<path d="M0 0 C1.25683594 0.04833984 2.51367188 0.09667969 3.80859375 0.14648438 C5.12730469 0.20255859 6.44601563 0.25863281 7.8046875 0.31640625 C9.14451188 0.36963038 10.48435558 0.42237076 11.82421875 0.47460938 C15.10959637 0.60460633 18.39469428 0.73958311 21.6796875 0.87890625 C21.6796875 1.86890625 21.6796875 2.85890625 21.6796875 3.87890625 C12.1096875 3.87890625 2.5396875 3.87890625 -7.3203125 3.87890625 C-7.6503125 2.88890625 -7.9803125 1.89890625 -8.3203125 0.87890625 C-5.47357495 -0.54446252 -3.17415903 -0.12868212 0 0 Z " fill="#A8A0E6" transform="translate(26.3203125,91.12109375)"/>
<path d="M0 0 C2.9375 2.0625 2.9375 2.0625 5 5 C5.06641554 8.85210127 4.87229157 10.99848005 2.3125 13.9375 C-0.73602877 15.33817538 -2.67926952 15.4842732 -6 15 C-8.34597719 13.22466591 -9.6271773 11.74564539 -10.9375 9.125 C-11.03353874 5.85968298 -9.65052303 3.75087171 -8 1 C-5.11138291 -0.44430855 -3.20352299 -0.37688506 0 0 Z M-6.8125 3.125 C-8.54458662 5.85987361 -8.40373601 7.83740129 -8 11 C-4.77856724 13.14762184 -3.7404533 13.561068 0 13 C2.00965774 11.40383995 2.00965774 11.40383995 3 9 C2.75925978 5.62963689 2.41201979 4.41201979 0 2 C-2.80984248 1.63976378 -4.38241919 1.61667398 -6.8125 3.125 Z " fill="#A5A1CA" transform="translate(315,90)"/>
<path d="M0 0 C0.66 0 1.32 0 2 0 C2 1.98 2 3.96 2 6 C3.65 5.67 5.3 5.34 7 5 C7.33 3.35 7.66 1.7 8 0 C8.66 0 9.32 0 10 0 C10 4.95 10 9.9 10 15 C9.01 14.67 8.02 14.34 7 14 C7 12.68 7 11.36 7 10 C5.68 9.67 4.36 9.34 3 9 C2.67 10.98 2.34 12.96 2 15 C1.34 15 0.68 15 0 15 C0 10.05 0 5.1 0 0 Z " fill="#B19FE2" transform="translate(122,90)"/>
<path d="M0 0 C2.3761363 1.7981572 3.65141783 3.22813948 4.875 5.9375 C5.04662054 8.76923888 4.31301604 10.50526953 3 13 C-0.49124017 15.32749345 -1.89222251 15.50299316 -6 15 C-8.65359262 13.06359458 -9.7609947 11.62141377 -10.9375 8.5625 C-11.01929321 5.20897857 -9.98804097 3.65072129 -8 1 C-5.15916359 -0.42041821 -3.14522722 -0.31452272 0 0 Z M-8 3.625 C-9.31015527 6.08491658 -9.31015527 6.08491658 -8.25 9.1875 C-7.26699069 11.852669 -7.26699069 11.852669 -6 13 C-3.08461971 13.50042146 -3.08461971 13.50042146 0 13 C2.17020292 10.91078244 2.17020292 10.91078244 3 8 C2.33719617 5.56971928 1.7989028 3.7989028 0 2 C-4.3480266 1.51251028 -4.3480266 1.51251028 -8 3.625 Z " fill="#AAA7CA" transform="translate(342,90)"/>
<path d="M0 0 C3.3 0 6.6 0 10 0 C10 0.66 10 1.32 10 2 C7.69 2.33 5.38 2.66 3 3 C2.67 3.99 2.34 4.98 2 6 C4.31 6 6.62 6 9 6 C9 6.66 9 7.32 9 8 C7.02 8.33 5.04 8.66 3 9 C2.67 10.32 2.34 11.64 2 13 C4.31 13 6.62 13 9 13 C9.33 13.66 9.66 14.32 10 15 C6.7 15 3.4 15 0 15 C0 10.05 0 5.1 0 0 Z " fill="#9C95BF" transform="translate(144,90)"/>
<path d="M0 0 C2.66095748 0.36870484 2.66095748 0.36870484 6.40234375 0.2890625 C7.06234375 1.6090625 7.72234375 2.9290625 8.40234375 4.2890625 C1.40234375 4.2890625 -5.59765625 4.2890625 -12.59765625 4.2890625 C-12.59765625 3.2990625 -12.59765625 2.3090625 -12.59765625 1.2890625 C-8.26751016 -1.16468695 -4.7367637 -0.62767593 0 0 Z " fill="#A192E9" transform="translate(48.59765625,10.7109375)"/>
<path d="M0 0 C2 1 2 1 2.8515625 3.28515625 C3.10679687 4.20167969 3.36203125 5.11820312 3.625 6.0625 C4.01558594 7.44115234 4.01558594 7.44115234 4.4140625 8.84765625 C4.60742188 9.55792969 4.80078125 10.26820312 5 11 C2.625 12.5625 2.625 12.5625 0 14 C-0.66 13.67 -1.32 13.34 -2 13 C-1.34 12.34 -0.68 11.68 0 11 C0.39764263 9.01178687 0.73775349 7.01055661 1 5 C-1.64 5.33 -4.28 5.66 -7 6 C-7 5.34 -7 4.68 -7 4 C-11.29 4 -15.58 4 -20 4 C-20 3.67 -20 3.34 -20 3 C-19.05898437 2.95101562 -18.11796875 2.90203125 -17.1484375 2.8515625 C-15.28058594 2.73941406 -15.28058594 2.73941406 -13.375 2.625 C-12.14523438 2.55539063 -10.91546875 2.48578125 -9.6484375 2.4140625 C-6.16372592 2.01858131 -3.30425959 1.11433974 0 0 Z " fill="#EBCDEB" transform="translate(136,61)"/>
<path d="M0 0 C1.13876587 -0.00193359 1.13876587 -0.00193359 2.30053711 -0.00390625 C8.4619424 0.1115422 13.49922544 1.38194471 18.9375 4.375 C18.6075 6.025 18.2775 7.675 17.9375 9.375 C17.6075 8.055 17.2775 6.735 16.9375 5.375 C15.9475 5.375 14.9575 5.375 13.9375 5.375 C13.6075 6.035 13.2775 6.695 12.9375 7.375 C11.6175 7.375 10.2975 7.375 8.9375 7.375 C8.6075 8.035 8.2775 8.695 7.9375 9.375 C6.9375 6.375 6.9375 6.375 7.9375 3.375 C6.96417739 2.18158248 6.96417739 2.18158248 5.17163086 2.26147461 C4.42276611 2.26671143 3.67390137 2.27194824 2.90234375 2.27734375 C2.09345703 2.28056641 1.28457031 2.28378906 0.45117188 2.28710938 C-0.39896484 2.29548828 -1.24910156 2.30386719 -2.125 2.3125 C-2.97900391 2.31701172 -3.83300781 2.32152344 -4.71289062 2.32617188 C-6.82945663 2.33799627 -8.94598685 2.35593231 -11.0625 2.375 C-7.32771188 -0.11485875 -4.33182096 -0.00748883 0 0 Z " fill="#EAC9EA" transform="translate(121.0625,14.625)"/>
<path d="M0 0 C2.31 0 4.62 0 7 0 C9 2 9 2 9.25 4.5 C9 7 9 7 7 9 C4.375 9.125 4.375 9.125 2 9 C2 10.98 2 12.96 2 15 C1.34 15 0.68 15 0 15 C0 10.05 0 5.1 0 0 Z M2 2 C2 3.65 2 5.3 2 7 C3.65 7 5.3 7 7 7 C6.67 5.35 6.34 3.7 6 2 C4.68 2 3.36 2 2 2 Z " fill="#A09BC8" transform="translate(185,90)"/>
<path d="M0 0 C0.66 0 1.32 0 2 0 C3.20190901 3.60572704 3.32670315 6.2102435 3 10 C1.20437595 12.75329021 -0.05254922 14.52627461 -3 16 C-4.99960012 16.039992 -7.00047242 16.04346799 -9 16 C-7.8553125 15.1646875 -7.8553125 15.1646875 -6.6875 14.3125 C-1.77074969 10.08180788 -0.62674745 6.39282395 0 0 Z " fill="#B0ABDA" transform="translate(36,43)"/>
<path d="M0 0 C1.54897985 3.0979597 0.83239539 6.26216552 0.5625 9.625 C0.51029297 10.33140625 0.45808594 11.0378125 0.40429688 11.765625 C0.27458793 13.51079987 0.13795046 15.25545725 0 17 C-0.99 17 -1.98 17 -3 17 C-4.55090815 15.44909185 -4.20677311 13.96303767 -4.25 11.8125 C-4.21395513 7.29247282 -3.32422255 3.32422255 0 0 Z " fill="#A394EC" transform="translate(8,16)"/>
<path d="M0 0 C0.99 0 1.98 0 3 0 C3 0.66 3 1.32 3 2 C11.34226001 4.38994476 19.33459773 5.5946828 28 6 C28 6.66 28 7.32 28 8 C19.04232589 8.46466321 12.0393636 8.12506672 4 4 C3.24976562 3.62617187 2.49953125 3.25234375 1.7265625 2.8671875 C1.15679687 2.58101563 0.58703125 2.29484375 0 2 C0 1.34 0 0.68 0 0 Z " fill="#EBCFEC" transform="translate(100,69)"/>
<path d="M0 0 C0.66 0 1.32 0 2 0 C1.96519531 0.61488281 1.93039062 1.22976562 1.89453125 1.86328125 C1.86746094 2.67152344 1.84039062 3.47976562 1.8125 4.3125 C1.77769531 5.11300781 1.74289062 5.91351563 1.70703125 6.73828125 C2.06198392 9.47851584 2.89366282 10.29171079 5 12 C5 11.34 5 10.68 5 10 C5.66 10.33 6.32 10.66 7 11 C6.835 11.5775 6.67 12.155 6.5 12.75 C5.85537969 15.26664369 5.85537969 15.26664369 6 19 C3.48419535 18.02278662 2.25008064 17.46656835 0.953125 15.046875 C-2.26582278 4.53164557 -2.26582278 4.53164557 0 0 Z " fill="#9494B6" transform="translate(11,21)"/>
<path d="M0 0 C3.63 0.33 7.26 0.66 11 1 C11.33 1.99 11.66 2.98 12 4 C10.35 4 8.7 4 7 4 C7.309375 4.928125 7.309375 4.928125 7.625 5.875 C7.74875 6.57625 7.8725 7.2775 8 8 C7.34 8.66 6.68 9.32 6 10 C6 9.34 6 8.68 6 8 C4.68 7.34 3.36 6.68 2 6 C2 5.34 2 4.68 2 4 C1.34 3.67 0.68 3.34 0 3 C0 2.01 0 1.02 0 0 Z " fill="#A79DED" transform="translate(20,106)"/>
<path d="M0 0 C0.66 0 1.32 0 2 0 C2 3.3 2 6.6 2 10 C-1.96 10 -5.92 10 -10 10 C-10.33 8.68 -10.66 7.36 -11 6 C-5.58461538 4.76923077 -5.58461538 4.76923077 -2.625 5.9375 C-2.08875 6.288125 -1.5525 6.63875 -1 7 C-1.33 7.66 -1.66 8.32 -2 9 C-1.34 8.67 -0.68 8.34 0 8 C0 5.36 0 2.72 0 0 Z " fill="#F9CDF8" transform="translate(272,65)"/>
<path d="M0 0 C0.66 0.66 1.32 1.32 2 2 C0.68 4.97 -0.64 7.94 -2 11 C-2.66 11 -3.32 11 -4 11 C-4.0825 11.78375 -4.165 12.5675 -4.25 13.375 C-5.24365069 18.177645 -7.08713518 22.49809489 -9 27 C-9.66 27 -10.32 27 -11 27 C-10.40019741 23.46202828 -9.45987023 20.46704875 -7.96875 17.20703125 C-7.57042969 16.32982422 -7.17210937 15.45261719 -6.76171875 14.54882812 C-6.34535156 13.64583984 -5.92898438 12.74285156 -5.5 11.8125 C-5.08363281 10.89791016 -4.66726563 9.98332031 -4.23828125 9.04101562 C-1.30691964 2.61383929 -1.30691964 2.61383929 0 0 Z " fill="#F0D1EF" transform="translate(307,23)"/>
<path d="M0 0 C7.92 0 15.84 0 24 0 C20.6133629 3.3866371 19.8662468 3.41963254 15.3125 3.6875 C14.31863281 3.75324219 13.32476562 3.81898437 12.30078125 3.88671875 C11.54152344 3.92410156 10.78226563 3.96148437 10 4 C9.67 3.34 9.34 2.68 9 2 C6.87423218 1.53348793 6.87423218 1.53348793 4.4375 1.375 C3.61121094 1.30023438 2.78492188 1.22546875 1.93359375 1.1484375 C1.29550781 1.09945312 0.65742188 1.05046875 0 1 C0 0.67 0 0.34 0 0 Z " fill="#B4A8F3" transform="translate(22,106)"/>
<path d="M0 0 C1.23556641 0.01740234 1.23556641 0.01740234 2.49609375 0.03515625 C3.32238281 0.04417969 4.14867187 0.05320312 5 0.0625 C5.63808594 0.07410156 6.27617187 0.08570312 6.93359375 0.09765625 C6.93359375 0.75765625 6.93359375 1.41765625 6.93359375 2.09765625 C5.61359375 2.09765625 4.29359375 2.09765625 2.93359375 2.09765625 C2.93359375 6.38765625 2.93359375 10.67765625 2.93359375 15.09765625 C2.27359375 15.09765625 1.61359375 15.09765625 0.93359375 15.09765625 C0.93359375 10.80765625 0.93359375 6.51765625 0.93359375 2.09765625 C-0.38640625 1.76765625 -1.70640625 1.43765625 -3.06640625 1.09765625 C-2.06640625 0.09765625 -2.06640625 0.09765625 0 0 Z " fill="#9D9CBD" transform="translate(287.06640625,89.90234375)"/>
<path d="M0 0 C0.66 0 1.32 0 2 0 C2 4.29 2 8.58 2 13 C3.65 13 5.3 13 7 13 C7 13.66 7 14.32 7 15 C4.36 15 1.72 15 -1 15 C-1.02703381 13.06257659 -1.04641125 11.12504521 -1.0625 9.1875 C-1.07410156 8.10855469 -1.08570313 7.02960938 -1.09765625 5.91796875 C-1 3 -1 3 0 0 Z " fill="#9B95BC" transform="translate(359,90)"/>
<path d="M0 0 C0.66 0 1.32 0 2 0 C2 4.29 2 8.58 2 13 C3.65 13 5.3 13 7 13 C7 13.66 7 14.32 7 15 C4.69 15 2.38 15 0 15 C0 10.05 0 5.1 0 0 Z " fill="#9F9DB7" transform="translate(166,90)"/>
<path d="M0 0 C5.36170213 0.59574468 5.36170213 0.59574468 7.875 2.1875 C9.53489888 4.86178153 9.32720122 6.92430852 9 10 C8.34 10.66 7.68 11.32 7 12 C6.74476562 11.16855469 6.74476562 11.16855469 6.484375 10.3203125 C5.09174014 5.74877023 5.09174014 5.74877023 1.8125 2.5 C1.214375 2.335 0.61625 2.17 0 2 C0 1.34 0 0.68 0 0 Z " fill="#AAA6D0" transform="translate(35,35)"/>
<path d="M0 0 C4.29 0 8.58 0 13 0 C13 0.33 13 0.66 13 1 C9.7 1.33 6.4 1.66 3 2 C2.34 5.3 1.68 8.6 1 12 C0.34 12 -0.32 12 -1 12 C-1.07329796 7.60212211 -1.07396066 4.29584263 0 0 Z " fill="#E9CAE6" transform="translate(266,16)"/>
<path d="M0 0 C0.33 0 0.66 0 1 0 C1.19430855 2.6246601 1.38073238 5.24946765 1.5625 7.875 C1.61857422 8.62136719 1.67464844 9.36773437 1.73242188 10.13671875 C2.11328125 15.7734375 2.11328125 15.7734375 1 18 C0.77532169 19.53668865 0.59203195 21.07968054 0.4375 22.625 C0.35371094 23.44226563 0.26992188 24.25953125 0.18359375 25.1015625 C0.12300781 25.72804688 0.06242187 26.35453125 0 27 C-0.33 27 -0.66 27 -1 27 C-1.11157151 17.92551747 -0.94242818 9.03721311 0 0 Z " fill="#E8CCE8" transform="translate(263,41)"/>
<path d="M0 0 C0.66 0 1.32 0 2 0 C2 1.98 2 3.96 2 6 C3.65 6 5.3 6 7 6 C6.0409375 6.2784375 6.0409375 6.2784375 5.0625 6.5625 C2.57873787 7.94246056 2.57873787 7.94246056 2.25 11.625 C2.1675 12.73875 2.085 13.8525 2 15 C1.34 15 0.68 15 0 15 C0 10.05 0 5.1 0 0 Z " fill="#9E98BD" transform="translate(122,90)"/>
<path d="M0 0 C7.88602342 -0.4731614 13.20780865 -0.17981006 20 4 C20 4.33 20 4.66 20 5 C16.04 4.67 12.08 4.34 8 4 C8.66 3.67 9.32 3.34 10 3 C10 2.34 10 1.68 10 1 C6.7 1 3.4 1 0 1 C0 0.67 0 0.34 0 0 Z " fill="#9E95D6" transform="translate(26,4)"/>
<path d="M0 0 C5.28 0.66 10.56 1.32 16 2 C16 2.33 16 2.66 16 3 C13.03 3 10.06 3 7 3 C6.67 3.66 6.34 4.32 6 5 C3.49642139 4.1654738 1.33214148 3.20628008 -1 2 C-0.67 1.34 -0.34 0.68 0 0 Z " fill="#EBCAEB" transform="translate(355,62)"/>
<path d="M0 0 C0.33 0 0.66 0 1 0 C1.33 1.65 1.66 3.3 2 5 C2.33 5 2.66 5 3 5 C3.25 11.625 3.25 11.625 1 15 C-0.20272819 12.59454362 -0.10071472 11.05003047 -0.0625 8.375 C-0.05347656 7.55773437 -0.04445313 6.74046875 -0.03515625 5.8984375 C-0.02355469 5.27195312 -0.01195312 4.64546875 0 4 C-0.66 3.67 -1.32 3.34 -2 3 C-1.34 2.01 -0.68 1.02 0 0 Z " fill="#A89BDE" transform="translate(13,17)"/>
<path d="M0 0 C0.80695312 0.15339844 1.61390625 0.30679688 2.4453125 0.46484375 C6.59047179 1.0888952 10.6922296 1.34627204 14.875 1.5625 C15.65875 1.60568359 16.4425 1.64886719 17.25 1.69335938 C19.16650649 1.79853351 21.08323333 1.89967925 23 2 C23 2.33 23 2.66 23 3 C15.41 3 7.82 3 0 3 C0 2.01 0 1.02 0 0 Z " fill="#ADA2DF" transform="translate(19,102)"/>
<path d="M0 0 C0.33 0.99 0.66 1.98 1 3 C0.34 3.66 -0.32 4.32 -1 5 C-2.34294481 6.65893182 -3.67744688 8.32476605 -5 10 C-5.99 9.67 -6.98 9.34 -8 9 C-7.67 8.34 -7.34 7.68 -7 7 C-6.01 7 -5.02 7 -4 7 C-4.33 6.01 -4.66 5.02 -5 4 C-4.34 4 -3.68 4 -3 4 C-3 3.34 -3 2.68 -3 2 C-3.99 1.67 -4.98 1.34 -6 1 C-4.02 0.67 -2.04 0.34 0 0 Z " fill="#A8A3DE" transform="translate(46,106)"/>
<path d="M0 0 C0.66 0 1.32 0 2 0 C2 4.95 2 9.9 2 15 C1.34 15 0.68 15 0 15 C0 10.05 0 5.1 0 0 Z " fill="#9D9EB6" transform="translate(206,90)"/>
<path d="M0 0 C3.3 0.33 6.6 0.66 10 1 C9.34 2.65 8.68 4.3 8 6 C7.34 6 6.68 6 6 6 C6 5.01 6 4.02 6 3 C4.35 3.33 2.7 3.66 1 4 C0.67 2.68 0.34 1.36 0 0 Z " fill="#9E9EC4" transform="translate(248,97)"/>
<path d="M0 0 C3.61569905 2.63848309 6.02835214 4.95293333 8 9 C8 9.99 8 10.98 8 12 C5.53199953 10.84826645 3.95216435 9.95216435 2 8 C2.66 8 3.32 8 4 8 C3.525625 7.236875 3.05125 6.47375 2.5625 5.6875 C1 3 1 3 0 0 Z " fill="#AFA7DB" transform="translate(56,12)"/>
<path d="M0 0 C3.63 0 7.26 0 11 0 C11 0.66 11 1.32 11 2 C10.01 2 9.02 2 8 2 C7.67 2.66 7.34 3.32 7 4 C7 3.34 7 2.68 7 2 C4.69 2.33 2.38 2.66 0 3 C0 2.01 0 1.02 0 0 Z " fill="#AEA7F7" transform="translate(31,111)"/>
<path d="M0 0 C0.66 0.66 1.32 1.32 2 2 C1.34 2 0.68 2 0 2 C0 2.66 0 3.32 0 4 C-0.99 4.495 -0.99 4.495 -2 5 C-3.04808041 6.97522846 -4.0520411 8.97481509 -5 11 C-5.66 11 -6.32 11 -7 11 C-5.5140084 6.40693504 -3.14985318 3.56430755 0 0 Z " fill="#EDD3ED" transform="translate(347,21)"/>
<path d="M0 0 C0.66 0 1.32 0 2 0 C2 4.95 2 9.9 2 15 C1.34 14.67 0.68 14.34 0 14 C0.33 10.7 0.66 7.4 1 4 C0.34 4 -0.32 4 -1 4 C-0.67 2.68 -0.34 1.36 0 0 Z " fill="#9892BE" transform="translate(130,90)"/>
<path d="M0 0 C-0.33 1.32 -0.66 2.64 -1 4 C-2.65 4.33 -4.3 4.66 -6 5 C-5.625 3.0625 -5.625 3.0625 -5 1 C-3 0 -3 0 0 0 Z " fill="#8784A9" transform="translate(31,22)"/>
<path d="M0 0 C-0.78375 0.268125 -1.5675 0.53625 -2.375 0.8125 C-5.28114923 1.84814432 -5.28114923 1.84814432 -7 5 C-7.66 5 -8.32 5 -9 5 C-9.66 6.32 -10.32 7.64 -11 9 C-11 4.69032084 -8.83274712 3.10253255 -6 0 C-3.50907189 -1.24546405 -2.58919267 -0.7767578 0 0 Z " fill="#A89DE0" transform="translate(26,7)"/>
<path d="M0 0 C0.99 0.99 1.98 1.98 3 3 C3.66 2.01 4.32 1.02 5 0 C5.99 0.33 6.98 0.66 8 1 C6.25 3 6.25 3 4 5 C2.68 5 1.36 5 0 5 C-0.5625 3.0625 -0.5625 3.0625 -1 1 C-0.67 0.67 -0.34 0.34 0 0 Z " fill="#9894A8" transform="translate(21,33)"/>
<path d="M0 0 C0.66 1.32 1.32 2.64 2 4 C1.01 5.485 1.01 5.485 0 7 C0 6.34 0 5.68 0 5 C-1.32 4.34 -2.64 3.68 -4 3 C-2.68 2.01 -1.36 1.02 0 0 Z " fill="#9F96E1" transform="translate(26,109)"/>
<path d="M0 0 C1.32 0.66 2.64 1.32 4 2 C0.5647952 4.29013653 -0.985331 4.17842973 -5 4 C-3.35 2.68 -1.7 1.36 0 0 Z " fill="#ACA7D1" transform="translate(32,55)"/>
<path d="M0 0 C2.4375 1.1875 2.4375 1.1875 3.4375 3.1875 C0.4675 3.1875 -2.5025 3.1875 -5.5625 3.1875 C-5.2325 2.1975 -4.9025 1.2075 -4.5625 0.1875 C-2.5625 -0.8125 -2.5625 -0.8125 0 0 Z " fill="#9D99BA" transform="translate(34.5625,28.8125)"/>
<path d="M0 0 C0 0.33 0 0.66 0 1 C-1.65 1 -3.3 1 -5 1 C-4.67 2.65 -4.34 4.3 -4 6 C-4.99 5.67 -5.98 5.34 -7 5 C-6.625 2.5625 -6.625 2.5625 -6 0 C-3.50907189 -1.24546405 -2.58919267 -0.7767578 0 0 Z " fill="#8384AF" transform="translate(24,24)"/>
<path d="M0 0 C0 0.99 0 1.98 0 3 C-1.65 3 -3.3 3 -5 3 C-5.33 2.01 -5.66 1.02 -6 0 C-3 -1 -3 -1 0 0 Z " fill="#ACA2E7" transform="translate(48,102)"/>
<path d="M0 0 C0.93065133 2.60582371 1.14917407 3.64198224 0.0625 6.25 C-0.4634375 7.11625 -0.4634375 7.11625 -1 8 C-1.99 7.67 -2.98 7.34 -4 7 C-3.34 5.35 -2.68 3.7 -2 2 C-1.34 2 -0.68 2 0 2 C0 1.34 0 0.68 0 0 Z " fill="#A79DED" transform="translate(37,48)"/>
<path d="M0 0 C1.98 0.495 1.98 0.495 4 1 C3.01 2.98 2.02 4.96 1 7 C0.34 6.67 -0.32 6.34 -1 6 C-0.67 4.02 -0.34 2.04 0 0 Z " fill="#EECFEF" transform="translate(352,30)"/>
<path d="M0 0 C0.33 0.66 0.66 1.32 1 2 C0.67 2.99 0.34 3.98 0 5 C-2.97 4.505 -2.97 4.505 -6 4 C-4.03617993 2.49440461 -2.21736634 1.10868317 0 0 Z " fill="#EAD0EA" transform="translate(137,25)"/>
<path d="M0 0 C2.32947183 2.11770166 3.88750845 4.03335588 5 7 C4.67 7.99 4.34 8.98 4 10 C0 4.5 0 4.5 0 0 Z " fill="#E7CDE9" transform="translate(279,17)"/>
<path d="M0 0 C1.98 0.66 3.96 1.32 6 2 C5.67 3.65 5.34 5.3 5 7 C4.67 5.68 4.34 4.36 4 3 C2.68 3 1.36 3 0 3 C0 2.01 0 1.02 0 0 Z " fill="#E7CEE8" transform="translate(134,17)"/>
<path d="M0 0 C2.97 0 5.94 0 9 0 C9 0.66 9 1.32 9 2 C7.35 2.33 5.7 2.66 4 3 C4 2.34 4 1.68 4 1 C3.01 1.33 2.02 1.66 1 2 C0.67 1.34 0.34 0.68 0 0 Z " fill="#A89AF1" transform="translate(27,5)"/>
<path d="M0 0 C1.32 0.33 2.64 0.66 4 1 C3.01 1.66 2.02 2.32 1 3 C-0.19232613 5.05003955 -0.19232613 5.05003955 -1 7 C-1.625 5.1875 -1.625 5.1875 -2 3 C-1.34 2.01 -0.68 1.02 0 0 Z " fill="#9C97BD" transform="translate(25,28)"/>
<path d="M0 0 C1.98 0 3.96 0 6 0 C6 0.99 6 1.98 6 3 C3.5625 2.625 3.5625 2.625 1 2 C0.67 1.34 0.34 0.68 0 0 Z " fill="#9393A8" transform="translate(11,43)"/>
<path d="M0 0 C0.66 0.99 1.32 1.98 2 3 C1.01 3.33 0.02 3.66 -1 4 C-1 1 -1 1 0 0 Z " fill="#9696B9" transform="translate(341,97)"/>
<path d="M0 0 C0.33 0.66 0.66 1.32 1 2 C0.01 3.32 -0.98 4.64 -2 6 C-1.125 1.125 -1.125 1.125 0 0 Z " fill="#9C9FA6" transform="translate(56,65)"/>
<path d="M0 0 C0.66 0 1.32 0 2 0 C1.67 0.99 1.34 1.98 1 3 C0.34 3 -0.32 3 -1 3 C-0.67 2.01 -0.34 1.02 0 0 Z " fill="#898CAB" transform="translate(313,97)"/>
<path d="M0 0 C0.66 0.66 1.32 1.32 2 2 C0.68 2.33 -0.64 2.66 -2 3 C-1.34 2.01 -0.68 1.02 0 0 Z " fill="#9090A5" transform="translate(22,50)"/>
<path d="M0 0 C0.33 0.66 0.66 1.32 1 2 C0.34 2.66 -0.32 3.32 -1 4 C-0.67 2.68 -0.34 1.36 0 0 Z " fill="#B2B4B6" transform="translate(61,55)"/>
<path d="M0 0 C0.99 0.495 0.99 0.495 2 1 C1.01 1.495 1.01 1.495 0 2 C0 1.34 0 0.68 0 0 Z " fill="#B8B8B8" transform="translate(23,27)"/>
<path d="" fill="#9B9EAB" transform="translate(0,0)"/>
<path d="" fill="#A0A4A8" transform="translate(0,0)"/>
<path d="" fill="#9DA0A5" transform="translate(0,0)"/>
<path d="" fill="#A4A6AD" transform="translate(0,0)"/>
<path d="" fill="#9DA5A5" transform="translate(0,0)"/>
<path d="" fill="#A2A7A8" transform="translate(0,0)"/>
<path d="" fill="#7F7F7F" transform="translate(0,0)"/>
<path d="" fill="#7F7FBF" transform="translate(0,0)"/>
<path d="" fill="#AAAAAA" transform="translate(0,0)"/>
<path d="" fill="#9EA3AB" transform="translate(0,0)"/>
<path d="" fill="#7F7FFF" transform="translate(0,0)"/>
<path d="" fill="#FFFFFF" transform="translate(0,0)"/>
<path d="" fill="#8D8DA9" transform="translate(0,0)"/>
<path d="" fill="#818595" transform="translate(0,0)"/>
<path d="" fill="#FFFFFF" transform="translate(0,0)"/>
<path d="" fill="#8C8CA7" transform="translate(0,0)"/>
</svg>
