<?xml version="1.0" encoding="UTF-8"?>
<svg version="1.1" xmlns="http://www.w3.org/2000/svg" width="500" height="337">
<path d="M0 0 C165 0 330 0 500 0 C500 111.21 500 222.42 500 337 C335 337 170 337 0 337 C0 225.79 0 114.58 0 0 Z " fill="#590D82" transform="translate(0,0)"/>
<path d="M0 0 C1.2055957 -0.02416992 1.2055957 -0.02416992 2.43554688 -0.04882812 C8.3409867 -0.05357908 13.20872675 1.1412003 18.6875 3.3125 C18.6875 3.9725 18.6875 4.6325 18.6875 5.3125 C19.47125 5.456875 20.255 5.60125 21.0625 5.75 C23.6875 6.3125 23.6875 6.3125 25.6875 7.3125 C26.0175 6.6525 26.3475 5.9925 26.6875 5.3125 C26.6875 6.9625 26.6875 8.6125 26.6875 10.3125 C27.56921875 10.66828125 27.56921875 10.66828125 28.46875 11.03125 C34.49936516 14.51371791 38.68729518 22.94153919 41.02734375 29.34375 C43.19597779 39.09618711 43.10053324 49.70403101 37.6875 58.3125 C37.26726562 59.04082031 36.84703125 59.76914063 36.4140625 60.51953125 C33.2606926 65.82292609 33.2606926 65.82292609 31.02734375 67.73046875 C29.45243526 69.26536765 29.45243526 69.26536765 29.5703125 71.65234375 C29.69019531 72.93818359 29.69019531 72.93818359 29.8125 74.25 C29.94386938 78.9862117 29.94386938 78.9862117 27.625 81.9375 C24.02576088 83.62225023 21.62084232 83.74953804 17.6875 83.3125 C16.6975 82.6525 15.7075 81.9925 14.6875 81.3125 C12.29907712 81.08537318 12.29907712 81.08537318 9.64453125 81.22265625 C8.65259766 81.24263672 7.66066406 81.26261719 6.63867188 81.28320312 C4.56561954 81.34383378 2.49269038 81.40885378 0.41992188 81.47851562 C-7.52498377 81.62725821 -13.54080477 80.54606462 -20.1875 75.875 C-23.20201336 73.877216 -26.09389483 72.58605962 -29.5 71.375 C-35.56941964 69.05707747 -37.63660393 65.91302838 -41.125 60.5 C-42.65983857 56.38017016 -42.76536339 52.66695567 -42.3125 48.3125 C-41.9825 47.6525 -41.6525 46.9925 -41.3125 46.3125 C-41.27493576 44.42219395 -41.29972118 42.5304822 -41.35546875 40.640625 C-41.37673828 39.50109375 -41.39800781 38.3615625 -41.41992188 37.1875 C-41.47296868 34.78616169 -41.53791991 32.38505451 -41.61523438 29.984375 C-41.77963282 19.17061092 -41.77963282 19.17061092 -37.3125 14.3125 C-34.83153969 11.83153969 -32.71817007 11.1088666 -29.375 10.375 C-25.49146561 9.51199236 -23.30616855 7.98252871 -20.3125 5.3125 C-13.70225285 0.90566857 -7.7651156 -0.03069216 0 0 Z " fill="#5B1084" transform="translate(138.3125,126.6875)"/>
<path d="M0 0 C3.125 1.75 3.125 1.75 5 5 C7.67884856 14.72410226 7.33968641 24.98478341 7.31567383 34.98291016 C7.31249022 37.75852936 7.33613198 40.53310375 7.36132812 43.30859375 C7.3635996 45.09635284 7.36430532 46.88411476 7.36328125 48.671875 C7.372491 49.48976501 7.38170074 50.30765503 7.39118958 51.15032959 C7.34666178 56.73714607 6.31911268 60.89830374 4 66 C1.01984829 68.80484867 -1.53807601 69.203887 -5.5 69.375 C-9.43499316 69.22465973 -11.92936154 68.61907398 -15 66 C-18.16472183 61.59199459 -19.11470671 57.78671501 -19.16113281 52.43432617 C-19.17074036 51.53626755 -19.1803479 50.63820892 -19.19024658 49.7129364 C-19.19449646 48.74934708 -19.19874634 47.78575775 -19.203125 46.79296875 C-19.20882507 45.79421219 -19.21452515 44.79545563 -19.22039795 43.76643372 C-19.22983729 41.65411434 -19.23637769 39.54178031 -19.24023438 37.42944336 C-19.24993264 34.20986021 -19.2809635 30.99091758 -19.3125 27.77148438 C-19.31903126 25.71614961 -19.32428125 23.6608103 -19.328125 21.60546875 C-19.3404718 20.64795212 -19.3528186 19.69043549 -19.36553955 18.7039032 C-19.3430367 11.89916868 -18.3759967 7.14244725 -14.18359375 1.59765625 C-9.96409343 -1.4895989 -4.96910805 -0.74094771 0 0 Z " fill="#F6F2F8" transform="translate(325,115)"/>
<path d="M0 0 C3.62139892 1.74034508 5.61401003 4.05219314 7.14205933 7.80435181 C8.00855563 11.03186792 8.24160539 13.67236553 8.22705078 17.00537109 C8.22689972 18.16612152 8.22674866 19.32687195 8.22659302 20.52279663 C8.21627045 21.76050812 8.20594788 22.9982196 8.1953125 24.2734375 C8.1924826 25.55231842 8.18965271 26.83119934 8.18673706 28.14883423 C8.1774602 31.53220099 8.15952183 34.91529326 8.1373291 38.29858398 C8.11679041 41.75762574 8.10771826 45.21669596 8.09765625 48.67578125 C8.075632 55.45059614 8.04218118 62.22528224 8 69 C5.03 69 2.06 69 -1 69 C-1 62.4 -1 55.8 -1 49 C-3.64 49 -6.28 49 -9 49 C-9 55.27 -9 61.54 -9 68 C-11.64 68 -14.28 68 -17 68 C-17.04648099 60.6890466 -17.08194892 53.37812542 -17.10362434 46.06705379 C-17.11403106 42.67168368 -17.12813284 39.27641517 -17.15087891 35.88110352 C-17.1769042 31.97152959 -17.18649854 28.06199583 -17.1953125 24.15234375 C-17.20563507 22.94166733 -17.21595764 21.73099091 -17.22659302 20.48362732 C-17.22841634 6.71588242 -17.22841634 6.71588242 -13 1.5625 C-8.63774056 -0.70951012 -4.81630333 -0.88619981 0 0 Z " fill="#F7F3F9" transform="translate(251,115)"/>
<path d="M0 0 C18.5 0 18.5 0 23.75 4.5 C27.83414607 9.40097529 26.37562221 17.97186933 26 24 C25.33067385 26.80060152 24.52423156 29.37500788 23.4609375 32.046875 C23.30882812 32.69140625 23.15671875 33.3359375 23 34 C23.66 34.99 24.32 35.98 25 37 C27.59216095 46.85364495 27.18950906 57.87179347 27 68 C24.36 68 21.72 68 19 68 C17.76372196 61.75679591 17.64155441 55.50822976 17.39453125 49.16796875 C17.35714844 48.30558594 17.31976563 47.44320312 17.28125 46.5546875 C17.25095703 45.77593262 17.22066406 44.99717773 17.18945312 44.19482422 C17.00299367 42.0346818 16.58608792 40.08393407 16 38 C13.69 37.67 11.38 37.34 9 37 C9 47.56 9 58.12 9 69 C6.03 69 3.06 69 0 69 C0 46.23 0 23.46 0 0 Z " fill="#F3EDF6" transform="translate(345,115)"/>
<path d="M0 0 C101.31 0 202.62 0 307 0 C307 1.32 307 2.64 307 4 C205.69 4 104.38 4 0 4 C0 2.68 0 1.36 0 0 Z " fill="#F4F0F7" transform="translate(97,231)"/>
<path d="M0 0 C3.06005926 1.75790639 4.51102851 3.18504751 6.3125 6.1875 C7.27892993 10.14107697 7.1587693 13.95138297 7 18 C4.36 18 1.72 18 -1 18 C-1.33 14.37 -1.66 10.74 -2 7 C-3.65 7.66 -5.3 8.32 -7 9 C-7.02529373 15.94172388 -7.04284304 22.88343594 -7.05493164 29.82519531 C-7.05996959 32.18815556 -7.06680008 34.55111268 -7.07543945 36.9140625 C-7.08752854 40.30469535 -7.09323359 43.69528709 -7.09765625 47.0859375 C-7.10281754 48.14743011 -7.10797882 49.20892273 -7.11329651 50.30258179 C-7.11337204 51.28344757 -7.11344757 52.26431335 -7.11352539 53.27490234 C-7.11685631 54.57396011 -7.11685631 54.57396011 -7.12025452 55.89926147 C-7.13553746 58.0583966 -7.13553746 58.0583966 -6 60 C-4.68 60.33 -3.36 60.66 -2 61 C-1.34 56.71 -0.68 52.42 0 48 C2.31 48 4.62 48 7 48 C7.36676452 55.51188072 7.46984976 61.45920895 2.734375 67.65625 C-0.34039218 70.03850205 -3.65507844 69.52890212 -7.3984375 69.390625 C-10 69 -10 69 -12.5625 67.25 C-17.0428722 57.12046286 -16.34253557 45.3663365 -16.31567383 34.49926758 C-16.31249356 31.80704968 -16.33612272 29.1159126 -16.36132812 26.42382812 C-16.36360001 24.6848972 -16.36430513 22.94596336 -16.36328125 21.20703125 C-16.372491 20.4161763 -16.38170074 19.62532135 -16.39118958 18.8105011 C-16.33969518 12.51573779 -15.36474649 6.00140901 -11.375 0.9375 C-7.5810804 -0.56009984 -4.01222373 -0.64482167 0 0 Z " fill="#F8F6FA" transform="translate(288,115)"/>
<path d="M0 0 C4.95 0 9.9 0 15 0 C15.07454967 7.48899192 15.12879109 14.9777644 15.16479492 22.46704102 C15.17981559 25.01102464 15.20023807 27.55498267 15.22631836 30.09887695 C15.26299773 33.77040963 15.27979425 37.4415978 15.29296875 41.11328125 C15.30845261 42.23769119 15.32393646 43.36210114 15.33988953 44.52058411 C15.34335903 61.06155486 15.34335903 61.06155486 10.52067566 66.74263 C7.07996256 69.58758211 3.73306285 69.40052481 -0.58203125 69.33203125 C-3 69 -3 69 -5.5625 67.0625 C-7.43938673 63.06391523 -7.80924962 59.37772113 -8 55 C-5.36 55 -2.72 55 0 55 C0.66 56.65 1.32 58.3 2 60 C3.485 59.505 3.485 59.505 5 59 C5.33 42.17 5.66 25.34 6 8 C4.02 8 2.04 8 0 8 C0 5.36 0 2.72 0 0 Z " fill="#F3EEF6" transform="translate(205,115)"/>
<path d="M0 0 C6.27 0 12.54 0 19 0 C19 1.98 19 3.96 19 6 C15.37 6 11.74 6 8 6 C8 13.59 8 21.18 8 29 C10.97 29 13.94 29 17 29 C17 30.98 17 32.96 17 35 C14.03 35 11.06 35 8 35 C8 42.92 8 50.84 8 59 C11.63 59 15.26 59 19 59 C19 61.64 19 64.28 19 67 C12.73 67 6.46 67 0 67 C0 44.89 0 22.78 0 0 Z " fill="#FDFCFD" transform="translate(385,116)"/>
<path d="M0 0 C0.79470703 -0.01160156 1.58941406 -0.02320312 2.40820312 -0.03515625 C8.26115399 -0.00658204 13.13016038 1.23520898 18.5625 3.375 C18.5625 4.035 18.5625 4.695 18.5625 5.375 C19.34625 5.519375 20.13 5.66375 20.9375 5.8125 C23.5625 6.375 23.5625 6.375 25.5625 7.375 C25.8925 6.715 26.2225 6.055 26.5625 5.375 C26.5625 7.025 26.5625 8.675 26.5625 10.375 C27.44421875 10.73078125 27.44421875 10.73078125 28.34375 11.09375 C34.37436516 14.57621791 38.56229518 23.00403919 40.90234375 29.40625 C43.07097779 39.15868711 42.97553324 49.76653101 37.5625 58.375 C37.14226562 59.10332031 36.72203125 59.83164063 36.2890625 60.58203125 C33.1356926 65.88542609 33.1356926 65.88542609 30.90234375 67.79296875 C29.32743526 69.32786765 29.32743526 69.32786765 29.4453125 71.71484375 C29.56519531 73.00068359 29.56519531 73.00068359 29.6875 74.3125 C29.81886938 79.0487117 29.81886938 79.0487117 27.5 82 C23.90076088 83.68475023 21.49584232 83.81203804 17.5625 83.375 C16.5725 82.715 15.5825 82.055 14.5625 81.375 C12.17407712 81.14787318 12.17407712 81.14787318 9.51953125 81.28515625 C8.52759766 81.30513672 7.53566406 81.32511719 6.51367188 81.34570312 C4.44061954 81.40633378 2.36769038 81.47135378 0.29492188 81.54101562 C-10.71283578 81.74710018 -18.72347227 78.11029654 -27.4375 71.375 C-34.06781143 64.87751618 -38.85472034 57.07696603 -39.671875 47.6796875 C-39.68505978 45.5767147 -39.57510703 43.47350727 -39.4375 41.375 C-39.1075 41.375 -38.7775 41.375 -38.4375 41.375 C-38.27894531 42.20902344 -38.12039062 43.04304688 -37.95703125 43.90234375 C-35.64651073 55.04645653 -31.61228556 65.21960773 -22.078125 72.0703125 C-14.14630406 77.04572745 -7.26942111 78.69420221 2 78.5 C2.82693359 78.49097656 3.65386719 78.48195313 4.50585938 78.47265625 C6.52486708 78.44931512 8.54372356 78.41345288 10.5625 78.375 C10.0675 77.42625 9.5725 76.4775 9.0625 75.5 C7.5625 72.375 7.5625 72.375 7.5625 70.375 C6.2425 70.045 4.9225 69.715 3.5625 69.375 C3.5625 68.055 3.5625 66.735 3.5625 65.375 C5.2125 65.705 6.8625 66.035 8.5625 66.375 C8.73265625 67.01308594 8.9028125 67.65117187 9.078125 68.30859375 C9.32046875 69.13488281 9.5628125 69.96117187 9.8125 70.8125 C10.16054687 72.04806641 10.16054687 72.04806641 10.515625 73.30859375 C11.37555145 75.50384898 11.37555145 75.50384898 13.39453125 76.328125 C17.79867519 76.42334973 21.15526511 72.8814012 24.5625 70.375 C25.8928125 69.50875 25.8928125 69.50875 27.25 68.625 C30.90152255 65.07216725 33.19049095 60.85318949 35.5625 56.375 C35.90796875 55.72402344 36.2534375 55.07304687 36.609375 54.40234375 C40.31054722 46.17945642 39.50862509 36.1395651 36.6015625 27.78515625 C32.04398981 17.21364366 25.80222205 10.49486102 15.5625 5.375 C5.63371269 2.00434158 -6.36851217 1.31923198 -16 5.875 C-24.44280436 10.86818208 -31.97910153 16.93767536 -35.4375 26.375 C-36.10797979 29.57147342 -36.60770202 32.72445052 -36.98046875 35.96875 C-37.13128906 36.7628125 -37.28210938 37.556875 -37.4375 38.375 C-38.4275 38.87 -38.4275 38.87 -39.4375 39.375 C-40.22788985 28.90233447 -36.46994713 20.57023094 -29.7109375 12.66796875 C-21.14654939 4.03000342 -12.07722749 -0.17545609 0 0 Z " fill="#BEA0CE" transform="translate(138.4375,126.625)"/>
<path d="M0 0 C6.69621368 5.21015556 6.69621368 5.21015556 7.9375 8.4375 C9.16909551 11.40781858 10.38829664 12.26520007 12.875 14.25 C17.20004514 17.83585561 19.41686855 21.62568533 21 27 C21 27.99 21 28.98 21 30 C22.32 30.33 23.64 30.66 25 31 C24.505 28.525 24.505 28.525 24 26 C23.01 25.67 22.02 25.34 21 25 C21 24.01 21 23.02 21 22 C25.4901584 22.66597151 29.76194793 23.68889439 34.125 24.9375 C35.92324219 25.44603516 35.92324219 25.44603516 37.7578125 25.96484375 C44.48180136 28.11165947 44.48180136 28.11165947 46.75 32 C48 35 48 35 48 37 C42.23462067 39.88268967 31.2280236 38.72991954 25.125 36.9375 C14.4225869 32.54624272 6.73849558 24.78824736 1.5625 14.5625 C-0.44001172 9.73942922 -0.38668452 5.14505231 0 0 Z " fill="#5D1285" transform="translate(101,168)"/>
<path d="M0 0 C0.78375 0.04125 1.5675 0.0825 2.375 0.125 C4.91529668 4.98942479 4.68107464 9.71366486 4.67578125 15.0625 C4.68006638 16.02019287 4.6843515 16.97788574 4.68876648 17.96459961 C4.69449788 19.98518077 4.69501883 22.00578257 4.69067383 24.02636719 C4.68751097 27.11429027 4.71099809 30.20125756 4.73632812 33.2890625 C4.73860097 35.25520713 4.73930468 37.22135433 4.73828125 39.1875 C4.747491 40.10845459 4.75670074 41.02940918 4.76618958 41.97827148 C4.73095856 46.86743681 4.5218213 50.12269679 1.375 54.125 C-3.5 53.25 -3.5 53.25 -4.625 52.125 C-4.72867027 50.57049012 -4.76351522 49.01131745 -4.77026367 47.45336914 C-4.77664352 46.45886246 -4.78302338 45.46435577 -4.78959656 44.43971252 C-4.79070938 43.35745895 -4.7918222 42.27520538 -4.79296875 41.16015625 C-4.79629715 40.0565123 -4.79962555 38.95286835 -4.80305481 37.81578064 C-4.80812886 35.47623106 -4.81046299 33.13667422 -4.81030273 30.79711914 C-4.81248848 27.20642234 -4.83063734 23.61603296 -4.84960938 20.02539062 C-4.85254327 17.75781356 -4.85452809 15.49023502 -4.85546875 13.22265625 C-4.86265427 12.14242691 -4.86983978 11.06219757 -4.87724304 9.94923401 C-4.87416641 8.95157516 -4.87108978 7.95391632 -4.86791992 6.92602539 C-4.86934494 6.04523819 -4.87076996 5.16445099 -4.87223816 4.25697327 C-4.47906517 0.86658117 -3.32476477 0.15832213 0 0 Z " fill="#5C1285" transform="translate(319.625,121.875)"/>
<path d="M0 0 C0.79470703 -0.01160156 1.58941406 -0.02320312 2.40820312 -0.03515625 C8.26115399 -0.00658204 13.13016038 1.23520898 18.5625 3.375 C18.5625 4.035 18.5625 4.695 18.5625 5.375 C19.34625 5.519375 20.13 5.66375 20.9375 5.8125 C23.5625 6.375 23.5625 6.375 25.5625 7.375 C25.8925 6.715 26.2225 6.055 26.5625 5.375 C26.5625 7.025 26.5625 8.675 26.5625 10.375 C27.44421875 10.73078125 27.44421875 10.73078125 28.34375 11.09375 C34.37436516 14.57621791 38.56229518 23.00403919 40.90234375 29.40625 C43.07408836 39.17267548 42.96242865 49.74913995 37.5625 58.375 C37.16546875 59.09171875 36.7684375 59.8084375 36.359375 60.546875 C33.96210596 64.70416434 31.5841953 67.61726608 27.5625 70.375 C29.02482083 67.32441684 30.70615068 64.49150731 32.5 61.625 C38.2265362 52.00609935 40.05215995 43.97778623 38.09375 32.66796875 C35.11891945 21.42381756 28.88951577 13.14871884 19.0625 7.125 C9.4350277 2.31126385 -2.60771878 1.31546509 -12.9609375 4.4375 C-22.67146967 9.0306566 -31.65029174 16.04041475 -35.4375 26.375 C-36.10797979 29.57147342 -36.60770202 32.72445052 -36.98046875 35.96875 C-37.13128906 36.7628125 -37.28210938 37.556875 -37.4375 38.375 C-38.4275 38.87 -38.4275 38.87 -39.4375 39.375 C-40.22788985 28.90233447 -36.46994713 20.57023094 -29.7109375 12.66796875 C-21.14654939 4.03000342 -12.07722749 -0.17545609 0 0 Z " fill="#D6C2E0" transform="translate(138.4375,126.625)"/>
<path d="M0 0 C4.875 0.875 4.875 0.875 6 2 C6.08843793 4.44830426 6.11528752 6.86820599 6.09765625 9.31640625 C6.0962413 10.04746078 6.09482635 10.77851532 6.09336853 11.53172302 C6.08775408 13.87535632 6.07519922 16.21889539 6.0625 18.5625 C6.05748686 20.14778508 6.05292363 21.73307166 6.04882812 23.31835938 C6.03777997 27.2122761 6.02050572 31.10612205 6 35 C3.36 35 0.72 35 -2 35 C-2.04944705 30.49765627 -2.08574161 25.9954707 -2.10986328 21.49291992 C-2.11991935 19.96131639 -2.133566 18.42973205 -2.15087891 16.89819336 C-2.17514498 14.69640364 -2.18648688 12.49486781 -2.1953125 10.29296875 C-2.20563507 9.60849167 -2.21595764 8.92401459 -2.22659302 8.21879578 C-2.22745382 4.56938339 -2.08567666 3.12851498 0 0 Z " fill="#5B0F83" transform="translate(244,122)"/>
<path d="M0 0 C-1.37545055 2.3165483 -2.74967251 4.62372158 -4.2421875 6.8671875 C-8.56315872 13.4381319 -10.32551489 19.02488529 -10 27 C-8.68 26.67 -7.36 26.34 -6 26 C-5.67 28.64 -5.34 31.28 -5 34 C-5.99 33.01 -6.98 32.02 -8 31 C-8.2165625 32.1446875 -8.2165625 32.1446875 -8.4375 33.3125 C-9 36 -9 36 -10 39 C-8.44608469 46.07259981 -5.44963549 51.32925489 -0.390625 56.44140625 C1 58 1 58 1 60 C1.66 60.33 2.32 60.66 3 61 C-1.55125938 60.46455772 -4.41429406 58.82278978 -8 56 C-11.51104409 51.31860788 -14.29679348 47.3165909 -14.1875 41.375 C-14.17783203 40.21097656 -14.17783203 40.21097656 -14.16796875 39.0234375 C-14 37 -14 37 -13 35 C-12.96243576 33.10969395 -12.98722118 31.2179822 -13.04296875 29.328125 C-13.06423828 28.18859375 -13.08550781 27.0490625 -13.10742188 25.875 C-13.16046868 23.47366169 -13.22541991 21.07255451 -13.30273438 18.671875 C-13.46728902 7.84783587 -13.46728902 7.84783587 -9 3 C-6.01323939 0.1095865 -4.12194827 -0.34349569 0 0 Z " fill="#9E70B6" transform="translate(110,138)"/>
<path d="M0 0 C2.31 0 4.62 0 7 0 C9.41564046 3.62346069 9.29781669 6.31603982 9.25 10.5 C9.25773437 11.17675781 9.26546875 11.85351562 9.2734375 12.55078125 C9.25884811 16.24919257 9.10264442 17.84603337 7 21 C4.69 21 2.38 21 0 21 C0 14.07 0 7.14 0 0 Z " fill="#5C1084" transform="translate(354,123)"/>
<path d="M0 0 C2.0625 0.4375 2.0625 0.4375 4 1 C3.7834375 1.9590625 3.7834375 1.9590625 3.5625 2.9375 C2.82763202 6.93844788 2.41418889 10.95504896 2 15 C2.721875 15.28875 3.44375 15.5775 4.1875 15.875 C8.09375 17.4375 8.09375 17.4375 12 19 C12 19.66 12 20.32 12 21 C10.02 20.67 8.04 20.34 6 20 C6 20.99 6 21.98 6 23 C7.32 23.33 8.64 23.66 10 24 C10 25.65 10 27.3 10 29 C8.35 28.67 6.7 28.34 5 28 C4.87625 27.01 4.87625 27.01 4.75 26 C2.70137344 17.80549375 -1.39718424 13.12840059 -8 8 C-7.67 7.34 -7.34 6.68 -7 6 C-5.02 7.65 -3.04 9.3 -1 11 C-1.01160156 10.28972656 -1.02320312 9.57945312 -1.03515625 8.84765625 C-1.04869141 7.46900391 -1.04869141 7.46900391 -1.0625 6.0625 C-1.07410156 5.14597656 -1.08570312 4.22945312 -1.09765625 3.28515625 C-1 1 -1 1 0 0 Z " fill="#A377BA" transform="translate(116,170)"/>
<path d="M0 0 C2.46862911 2.96790241 3.63587382 5.57128149 4.75 9.25 C6.4966063 14.3465426 8.84193465 17.63439195 12.609375 21.44140625 C14 23 14 23 14 25 C14.66 25.33 15.32 25.66 16 26 C11.44874062 25.46455772 8.58570594 23.82278978 5 21 C1.48895591 16.31860788 -1.29679348 12.3165909 -1.1875 6.375 C-1.17783203 5.21097656 -1.17783203 5.21097656 -1.16796875 4.0234375 C-1 2 -1 2 0 0 Z " fill="#5D1285" transform="translate(97,173)"/>
<path d="M0 0 C0.66 0 1.32 0 2 0 C2.33 2.31 2.66 4.62 3 7 C4.32 5.02 5.64 3.04 7 1 C7.99 1.33 8.98 1.66 10 2 C9.484375 2.5775 8.96875 3.155 8.4375 3.75 C6.78663504 5.82186427 6.78663504 5.82186427 7.1875 7.875 C7.455625 8.57625 7.72375 9.2775 8 10 C9.46199417 13.89865112 10.21881834 16.01738233 9 20 C8.32845067 18.71086513 7.66291141 17.41859796 7 16.125 C6.62875 15.40570313 6.2575 14.68640625 5.875 13.9453125 C5 12 5 12 5 10 C4.34 10 3.68 10 3 10 C2.67 13.3 2.34 16.6 2 20 C1.01 20 0.02 20 -1 20 C-1.02888514 16.85418577 -1.04675923 13.70840531 -1.0625 10.5625 C-1.07087891 9.66466797 -1.07925781 8.76683594 -1.08789062 7.84179688 C-1.09111328 6.98779297 -1.09433594 6.13378906 -1.09765625 5.25390625 C-1.10551147 4.06776733 -1.10551147 4.06776733 -1.11352539 2.85766602 C-1 1 -1 1 0 0 Z " fill="#D6C4E1" transform="translate(352,201)"/>
<path d="M0 0 C0.99 0 1.98 0 3 0 C3.83679277 2.62394306 4.66956942 5.24904384 5.5 7.875 C5.73847656 8.62136719 5.97695313 9.36773437 6.22265625 10.13671875 C8 15.7734375 8 15.7734375 8 18 C7.34 18 6.68 18 6 18 C5.67 17.01 5.34 16.02 5 15 C3.02 15 1.04 15 -1 15 C-1.66 16.32 -2.32 17.64 -3 19 C-3.33 19 -3.66 19 -4 19 C-3.46048934 12.31006781 -2.11293829 6.36539272 0 0 Z " fill="#E4D8EB" transform="translate(316,202)"/>
<path d="M0 0 C0.33 0 0.66 0 1 0 C1.15855469 0.83402344 1.31710938 1.66804687 1.48046875 2.52734375 C3.79733177 13.70204773 7.83140838 23.63617704 17.21875 30.66015625 C23.16647893 34.49041839 29.1129238 36.50736371 36 38 C36 38.33 36 38.66 36 39 C30.25162637 39.30254598 26.09923213 38.84130943 21 36 C20.2884375 35.60941406 19.576875 35.21882813 18.84375 34.81640625 C9.83737482 29.37248427 3.85707825 21.69481988 0.609375 11.6953125 C-0.29888861 7.6779927 -0.26903218 4.10274072 0 0 Z " fill="#E1D4E9" transform="translate(99,168)"/>
<path d="M0 0 C0.66 0 1.32 0 2 0 C2.33 5.61 2.66 11.22 3 17 C4.65 17 6.3 17 8 17 C9.99616554 15.00383446 9.40983427 11.18298037 9.5625 8.4375 C9.60568359 7.72658203 9.64886719 7.01566406 9.69335938 6.28320312 C9.79971777 4.52238088 9.90038846 2.7612168 10 1 C10.66 1 11.32 1 12 1 C12.0809313 3.60478883 12.14045434 6.20706653 12.1875 8.8125 C12.22520508 9.91948242 12.22520508 9.91948242 12.26367188 11.04882812 C12.33760957 16.49557159 12.33760957 16.49557159 10.671875 18.984375 C7.9916601 20.61254293 6.05772024 20.43681718 3 20 C0.828125 18.453125 0.828125 18.453125 -1 16 C-1.31855703 13.27911382 -1.42797695 11.00952826 -1.3125 8.3125 C-1.30283203 7.62349609 -1.29316406 6.93449219 -1.28320312 6.22460938 C-1.16886475 1.16886475 -1.16886475 1.16886475 0 0 Z " fill="#DBCAE4" transform="translate(213,201)"/>
<path d="M0 0 C0.99 0.66 1.98 1.32 3 2 C2.67 3.32 2.34 4.64 2 6 C1.34 5.34 0.68 4.68 0 4 C-3.08347826 3.83318891 -3.08347826 3.83318891 -6 4 C-6.02686553 5.97909398 -6.04633375 7.95828971 -6.0625 9.9375 C-6.07410156 11.03964844 -6.08570313 12.14179688 -6.09765625 13.27734375 C-6.31262571 15.91447634 -6.31262571 15.91447634 -5 17 C-3.33382885 17.04063832 -1.66611905 17.042721 0 17 C0.66 15.68 1.32 14.36 2 13 C2.66 13 3.32 13 4 13 C3.25 17.75 3.25 17.75 1 20 C-5.12550258 20.55686387 -5.12550258 20.55686387 -7.69921875 18.91796875 C-9.67898405 15.99885535 -9.39676455 13.48232775 -9.375 10 C-9.38273437 8.7625 -9.39046875 7.525 -9.3984375 6.25 C-9 3 -9 3 -7.6640625 1.08203125 C-5.08134717 -0.59733999 -2.99921737 -0.31241848 0 0 Z " fill="#E1D3E8" transform="translate(340,201)"/>
<path d="M0 0 C1.23556641 0.01740234 1.23556641 0.01740234 2.49609375 0.03515625 C3.32238281 0.04417969 4.14867187 0.05320313 5 0.0625 C5.63808594 0.07410156 6.27617187 0.08570313 6.93359375 0.09765625 C6.93359375 1.08765625 6.93359375 2.07765625 6.93359375 3.09765625 C4.62359375 3.09765625 2.31359375 3.09765625 -0.06640625 3.09765625 C-0.06640625 5.07765625 -0.06640625 7.05765625 -0.06640625 9.09765625 C1.91359375 9.09765625 3.89359375 9.09765625 5.93359375 9.09765625 C5.93359375 9.75765625 5.93359375 10.41765625 5.93359375 11.09765625 C3.95359375 11.09765625 1.97359375 11.09765625 -0.06640625 11.09765625 C-0.06640625 14.06765625 -0.06640625 17.03765625 -0.06640625 20.09765625 C-1.05640625 19.76765625 -2.04640625 19.43765625 -3.06640625 19.09765625 C-3.09324612 16.11843032 -3.11316662 13.1394433 -3.12890625 10.16015625 C-3.13728516 9.31001953 -3.14566406 8.45988281 -3.15429688 7.58398438 C-3.15751953 6.77509766 -3.16074219 5.96621094 -3.1640625 5.1328125 C-3.16929932 4.38394775 -3.17453613 3.63508301 -3.17993164 2.86352539 C-3.01250827 0.25928194 -2.59628016 0.12269755 0 0 Z " fill="#D3BFDE" transform="translate(199.06640625,200.90234375)"/>
<path d="M0 0 C0.94875 0.04125 1.8975 0.0825 2.875 0.125 C3.535 1.445 4.195 2.765 4.875 4.125 C2.235 3.795 -0.405 3.465 -3.125 3.125 C-2.93198728 5.05898669 -2.93198728 5.05898669 -2.125 7.125 C-0.27275093 8.4658517 -0.27275093 8.4658517 1.9375 9.5 C4.12109375 10.76171875 4.12109375 10.76171875 5.875 12.125 C6.5 15.3125 6.5 15.3125 5.875 18.125 C3.875 20.125 3.875 20.125 0.9375 20.375 C-2.125 20.125 -2.125 20.125 -5.125 18.125 C-5.125 17.465 -5.125 16.805 -5.125 16.125 C-2.485 16.455 0.155 16.785 2.875 17.125 C2.84406827 14.70914426 2.84406827 14.70914426 1.875 12.125 C-1.05855547 10.32470518 -1.05855547 10.32470518 -4.125 9.125 C-5.125 8.125 -5.125 8.125 -5.3125 5.1875 C-5.05118602 0.91937161 -4.27244616 0.17089785 0 0 Z " fill="#E6DBEC" transform="translate(282.125,200.875)"/>
<path d="M0 0 C0.99 0.33 1.98 0.66 3 1 C3.36516854 5.50374532 3.36516854 5.50374532 1.78125 7.65625 C-0.51985446 9.39217091 -1.83982544 9.31131194 -4.6875 9.1875 C-5.89986328 9.14689453 -5.89986328 9.14689453 -7.13671875 9.10546875 C-7.75160156 9.07066406 -8.36648437 9.03585938 -9 9 C-9.33 8.01 -9.66 7.02 -10 6 C-9.36191406 5.65066406 -8.72382813 5.30132812 -8.06640625 4.94140625 C-7.24011719 4.48636719 -6.41382813 4.03132812 -5.5625 3.5625 C-4.73878906 3.11003906 -3.91507813 2.65757812 -3.06640625 2.19140625 C-1.07691202 1.16337603 -1.07691202 1.16337603 0 0 Z " fill="#5C1084" transform="translate(164,199)"/>
<path d="M0 0 C1.66701674 0.33157815 3.33359652 0.6653534 5 1 C6.38445312 1.26876953 6.38445312 1.26876953 7.796875 1.54296875 C15.88115376 3.30739467 23.24773262 5.87159893 28 13 C25.83899818 11.92200605 23.68119281 10.83833 21.52734375 9.74609375 C20.67269531 9.31425781 19.81804687 8.88242188 18.9375 8.4375 C18.08027344 8.00308594 17.22304687 7.56867188 16.33984375 7.12109375 C12.6406223 5.3486788 9.86949064 4.88481181 5.8125 4.9375 C4.91144531 4.94652344 4.01039063 4.95554688 3.08203125 4.96484375 C2.05142578 4.98224609 2.05142578 4.98224609 1 5 C0.67 3.35 0.34 1.7 0 0 Z " fill="#9C6DB5" transform="translate(128,138)"/>
<path d="M0 0 C0 3.69997973 -0.76755564 4.14239038 -3.25 6.75 C-9.34645491 13.54847093 -11.41022817 18.49636638 -12.5078125 27.5234375 C-12.67023438 28.34070313 -12.83265625 29.15796875 -13 30 C-13.66 30.33 -14.32 30.66 -15 31 C-15.8185887 20.15369977 -11.74666599 12.20665306 -4.90234375 3.99609375 C-3 2 -3 2 0 0 Z " fill="#E0D1E7" transform="translate(114,135)"/>
<path d="M0 0 C0.33 0 0.66 0 1 0 C1.39420056 12.84801838 1.09578683 22.33149957 -7 33 C-9.8125 35.5 -9.8125 35.5 -12 37 C-10.53767917 33.94941684 -8.85634932 31.11650731 -7.0625 28.25 C-1.46991389 18.85172725 -0.40807354 10.80691304 0 0 Z " fill="#EBE1F0" transform="translate(178,160)"/>
<path d="M0 0 C3.96 0 7.92 0 12 0 C12 0.66 12 1.32 12 2 C10.35 2 8.7 2 7 2 C7 7.94 7 13.88 7 20 C6.34 20 5.68 20 5 20 C5 14.06 5 8.12 5 2 C3.35 2 1.7 2 0 2 C0 1.34 0 0.68 0 0 Z " fill="#F1EBF5" transform="translate(294,201)"/>
<path d="M0 0 C0.7425 0.474375 1.485 0.94875 2.25 1.4375 C4.61050015 2.77869327 6.36648477 3.512312 9 4 C9 4.66 9 5.32 9 6 C6.03 5.505 6.03 5.505 3 5 C3 5.99 3 6.98 3 8 C4.32 8.33 5.64 8.66 7 9 C7 10.65 7 12.3 7 14 C5.35 13.67 3.7 13.34 2 13 C1.814375 11.948125 1.814375 11.948125 1.625 10.875 C1.04352522 7.91189396 1.04352522 7.91189396 -0.125 4.8125 C-1 2 -1 2 0 0 Z " fill="#9663B0" transform="translate(119,185)"/>
<path d="M0 0 C0.66 0 1.32 0 2 0 C2 5.94 2 11.88 2 18 C4.64 18 7.28 18 10 18 C10 18.66 10 19.32 10 20 C6.7 20 3.4 20 0 20 C0 13.4 0 6.8 0 0 Z " fill="#E4D8EB" transform="translate(233,201)"/>
<path d="M0 0 C0.66 0 1.32 0 2 0 C2 5.61 2 11.22 2 17 C4.64 17 7.28 17 10 17 C10 17.66 10 18.32 10 19 C6.7 19 3.4 19 0 19 C0 12.73 0 6.46 0 0 Z " fill="#E0D2E7" transform="translate(249,202)"/>
<path d="M0 0 C-2.66666667 5.33333333 -5.33333333 10.66666667 -8 16 C-8.33 16 -8.66 16 -9 16 C-9.56707317 6.3597561 -9.56707317 6.3597561 -6 2 C-3 0 -3 0 0 0 Z " fill="#5B1083" transform="translate(108,140)"/>
<path d="M0 0 C1.65 0.33 3.3 0.66 5 1 C4.8125 2.875 4.8125 2.875 4 5 C2.33927151 5.68132451 0.672233 6.34742127 -1 7 C-1.68268138 8.32520503 -2.3507041 9.65812182 -3 11 C-4.875 11.6875 -4.875 11.6875 -7 12 C-8.11375 12.2784375 -8.11375 12.2784375 -9.25 12.5625 C-9.8275 12.706875 -10.405 12.85125 -11 13 C-10.195625 12.21625 -9.39125 11.4325 -8.5625 10.625 C-6.01309583 8.28017144 -6.01309583 8.28017144 -5 6 C-4.01 5.67 -3.02 5.34 -2 5 C-0.78130071 2.49552484 -0.78130071 2.49552484 0 0 Z " fill="#AB82C0" transform="translate(162,145)"/>
<path d="M0 0 C0.94875 0.04125 1.8975 0.0825 2.875 0.125 C3.535 1.445 4.195 2.765 4.875 4.125 C2.235 3.795 -0.405 3.465 -3.125 3.125 C-2.55155063 5.99224686 -2.2635485 6.9864515 -0.125 9.125 C-1.445 9.125 -2.765 9.125 -4.125 9.125 C-5.125 8.125 -5.125 8.125 -5.3125 5.1875 C-5.05118602 0.91937161 -4.27244616 0.17089785 0 0 Z " fill="#DDCDE5" transform="translate(282.125,200.875)"/>
<path d="M0 0 C0.33 0 0.66 0 1 0 C1.09796875 0.72445312 1.1959375 1.44890625 1.296875 2.1953125 C2.19003329 7.97004281 2.9748777 12.51486372 7 17 C9.52372901 18.36078035 9.52372901 18.36078035 12 19 C12.66 19.33 13.32 19.66 14 20 C14 20.66 14 21.32 14 22 C14.66 22.33 15.32 22.66 16 23 C11.44874062 22.46455772 8.58570594 20.82278978 5 18 C1.53947826 13.41714689 -0.14554495 10.04260123 -0.0625 4.3125 C-0.05347656 3.50425781 -0.04445313 2.69601563 -0.03515625 1.86328125 C-0.02355469 1.24839844 -0.01195313 0.63351563 0 0 Z " fill="#A173B9" transform="translate(97,176)"/>
<path d="M0 0 C0.66 0 1.32 0 2 0 C2.33 2.31 2.66 4.62 3 7 C2.1028125 7.061875 2.1028125 7.061875 1.1875 7.125 C-1.35100832 7.87739901 -1.35100832 7.87739901 -2.75 11.0625 C-3.1625 12.031875 -3.575 13.00125 -4 14 C-4.33 14 -4.66 14 -5 14 C-4.67 11.03 -4.34 8.06 -4 5 C-2.68 5 -1.36 5 0 5 C0 3.35 0 1.7 0 0 Z " fill="#E1D4E9" transform="translate(317,207)"/>
<path d="M0 0 C3.33773709 3.64116773 3.97864902 7.28607242 5 12 C2.03 11.505 2.03 11.505 -1 11 C-1.0270043 9.54176788 -1.04639787 8.08339325 -1.0625 6.625 C-1.07410156 5.81289062 -1.08570312 5.00078125 -1.09765625 4.1640625 C-1 2 -1 2 0 0 Z " fill="#6D2891" transform="translate(97,173)"/>
<path d="M0 0 C0.33 2.64 0.66 5.28 1 8 C0.01 7.01 -0.98 6.02 -2 5 C-2.33 6.65 -2.66 8.3 -3 10 C-3.99 10.33 -4.98 10.66 -6 11 C-6.08096803 9.54257537 -6.13917774 8.08387193 -6.1875 6.625 C-6.22230469 5.81289062 -6.25710937 5.00078125 -6.29296875 4.1640625 C-6.19628906 3.44992188 -6.09960938 2.73578125 -6 2 C-3 0 -3 0 0 0 Z " fill="#B794C9" transform="translate(104,164)"/>
<path d="M0 0 C3.125 0.1875 3.125 0.1875 6.125 2.1875 C5.795 3.5075 5.465 4.8275 5.125 6.1875 C4.465 5.5275 3.805 4.8675 3.125 4.1875 C-0.45843976 4.02072718 -0.45843976 4.02072718 -3.875 4.1875 C-3.875 0.25271739 -3.875 0.25271739 0 0 Z " fill="#D8C6E2" transform="translate(336.875,200.8125)"/>
<path d="M0 0 C2.29013653 3.4352048 2.17842973 4.985331 2 9 C2.66 9 3.32 9 4 9 C3.67 10.65 3.34 12.3 3 14 C1.68 13.67 0.36 13.34 -1 13 C-1 11.68 -1 10.36 -1 9 C-0.34 9 0.32 9 1 9 C0.67 6.03 0.34 3.06 0 0 Z " fill="#D7C4E1" transform="translate(164,164)"/>
<path d="M0 0 C2.3129482 2.3129482 2.49580975 3.47904875 3.125 6.625 C3.29257812 7.44226563 3.46015625 8.25953125 3.6328125 9.1015625 C3.81457031 10.04128906 3.81457031 10.04128906 4 11 C3.34 11 2.68 11 2 11 C1.67 10.01 1.34 9.02 1 8 C-1.97 7.505 -1.97 7.505 -5 7 C-4.67 6.34 -4.34 5.68 -4 5 C-2.68 5 -1.36 5 0 5 C0 3.35 0 1.7 0 0 Z " fill="#EFE9F3" transform="translate(320,209)"/>
<path d="M0 0 C0.66 0 1.32 0 2 0 C0.6015209 3.4087928 -0.85006933 4.87393835 -4 6.75 C-5.051875 7.39195312 -5.051875 7.39195312 -6.125 8.046875 C-8 9 -8 9 -10 9 C-10 8.34 -10 7.68 -10 7 C-8.06640625 5.52734375 -8.06640625 5.52734375 -5.5625 3.9375 C-2.6281857 2.16321108 -2.6281857 2.16321108 0 0 Z " fill="#DED0E7" transform="translate(164,196)"/>
<path d="M0 0 C1.79158489 -0.02696365 3.58328473 -0.04637917 5.375 -0.0625 C6.37273437 -0.07410156 7.37046875 -0.08570313 8.3984375 -0.09765625 C11 0 11 0 13 1 C13 1.99 13 2.98 13 4 C8.428721 3.45144652 4.32564205 2.58255197 0 1 C0 0.67 0 0.34 0 0 Z " fill="#874EA5" transform="translate(128,191)"/>
<path d="M0 0 C2.97 0 5.94 0 9 0 C9.33 1.65 9.66 3.3 10 5 C7.69 4.34 5.38 3.68 3 3 C3 2.34 3 1.68 3 1 C2.01 0.67 1.02 0.34 0 0 Z " fill="#874FA5" transform="translate(154,129)"/>
<path d="M0 0 C3.96 0 7.92 0 12 0 C12 0.66 12 1.32 12 2 C7.6835078 2.76173392 4.25566547 3.16063604 0 2 C0 1.34 0 0.68 0 0 Z " fill="#DDCDE6" transform="translate(294,201)"/>
<path d="M0 0 C0 3.96130371 -1.34877125 4.82914401 -4 7.6875 C-4.7425 8.49574219 -5.485 9.30398437 -6.25 10.13671875 C-6.8275 10.75160156 -7.405 11.36648437 -8 12 C-8.33 11.01 -8.66 10.02 -9 9 C-7.890625 7.24609375 -7.890625 7.24609375 -6.25 5.4375 C-5.71890625 4.83808594 -5.1878125 4.23867187 -4.640625 3.62109375 C-3 2 -3 2 0 0 Z " fill="#ECE3F1" transform="translate(114,135)"/>
<path d="M0 0 C0.66 0.66 1.32 1.32 2 2 C1.625 4.125 1.625 4.125 1 6 C-0.32 6 -1.64 6 -3 6 C-3 4.35 -3 2.7 -3 1 C-2.01 0.67 -1.02 0.34 0 0 Z " fill="#E8DEEE" transform="translate(152,134)"/>
<path d="M0 0 C1.32 0 2.64 0 4 0 C4 1.65 4 3.3 4 5 C2.35 4.67 0.7 4.34 -1 4 C-0.67 2.68 -0.34 1.36 0 0 Z " fill="#E9E0EF" transform="translate(122,194)"/>
<path d="M0 0 C0.66 0 1.32 0 2 0 C2.16702456 4.34263862 2.12999997 7.20960634 0 11 C-0.19491452 9.54263913 -0.38069358 8.08405407 -0.5625 6.625 C-0.66691406 5.81289062 -0.77132813 5.00078125 -0.87890625 4.1640625 C-1 2 -1 2 0 0 Z " fill="#773598" transform="translate(286,163)"/>
<path d="M0 0 C2.475 0.495 2.475 0.495 5 1 C4.67 2.32 4.34 3.64 4 5 C2.68 5 1.36 5 0 5 C0 3.35 0 1.7 0 0 Z " fill="#EAE0EF" transform="translate(162,145)"/>
<path d="M0 0 C-1.44253657 3.36591866 -3.33264727 5.51047079 -6 8 C-6.99 7.67 -7.98 7.34 -9 7 C-7.88121617 5.82737096 -6.75476949 4.66204862 -5.625 3.5 C-4.68527344 2.52546875 -4.68527344 2.52546875 -3.7265625 1.53125 C-2 0 -2 0 0 0 Z " fill="#641D8B" transform="translate(116,137)"/>
<path d="M0 0 C0.66 0 1.32 0 2 0 C4.42857143 6.28571429 4.42857143 6.28571429 3 10 C0.59185923 6.48812804 -0.36629408 4.27343092 0 0 Z " fill="#DECFE6" transform="translate(358,211)"/>
<path d="M0 0 C1.98 0.495 1.98 0.495 4 1 C4 2.32 4 3.64 4 5 C2.35 4.67 0.7 4.34 -1 4 C-0.67 2.68 -0.34 1.36 0 0 Z " fill="#EDE5F1" transform="translate(116,170)"/>
<path d="M0 0 C1.32 0 2.64 0 4 0 C4.33 1.32 4.66 2.64 5 4 C3.35 4.33 1.7 4.66 0 5 C0 3.35 0 1.7 0 0 Z " fill="#EBE3F0" transform="translate(132,161)"/>
<path d="M0 0 C1.32 0.33 2.64 0.66 4 1 C3.67 2.32 3.34 3.64 3 5 C1.35 4.67 -0.3 4.34 -2 4 C-1.34 2.68 -0.68 1.36 0 0 Z " fill="#F2ECF5" transform="translate(114,155)"/>
<path d="M0 0 C2.475 0.495 2.475 0.495 5 1 C4.67 2.32 4.34 3.64 4 5 C2.68 4.67 1.36 4.34 0 4 C0 2.68 0 1.36 0 0 Z " fill="#EEE6F2" transform="translate(128,138)"/>
<path d="M0 0 C1.32 0 2.64 0 4 0 C4 1.65 4 3.3 4 5 C2.68 4.67 1.36 4.34 0 4 C0 2.68 0 1.36 0 0 Z " fill="#F1EBF5" transform="translate(142,192)"/>
<path d="M0 0 C3.5786304 1.65167557 6.74820188 3.78286492 10 6 C9.34 6.66 8.68 7.32 8 8 C1.42857143 4 1.42857143 4 0 0 Z " fill="#EAE1EF" transform="translate(109,194)"/>
<path d="M0 0 C0.66 0 1.32 0 2 0 C2.33 2.31 2.66 4.62 3 7 C1.68 7 0.36 7 -1 7 C-0.67 4.69 -0.34 2.38 0 0 Z " fill="#6E2C92" transform="translate(317,207)"/>
<path d="M0 0 C3.91402949 1.26941497 5.79072873 2.51167694 8 6 C5 6 5 6 3.61328125 4.6875 C2.40885417 3.125 1.20442708 1.5625 0 0 Z " fill="#E6DBED" transform="translate(162,135)"/>
</svg>
