<?xml version="1.0" encoding="UTF-8"?>
<!DOCTYPE svg PUBLIC "-//W3C//DTD SVG 1.1//EN" "http://www.w3.org/Graphics/SVG/1.1/DTD/svg11.dtd">
<svg xmlns="http://www.w3.org/2000/svg" version="1.1" width="500px" height="340px"
     style="shape-rendering:geometricPrecision; text-rendering:geometricPrecision; image-rendering:optimizeQuality; fill-rule:evenodd; clip-rule:evenodd"
     xmlns:xlink="http://www.w3.org/1999/xlink">
    <g>
        <path style="opacity:1" fill="#673975"
              d="M 285.5,32.5 C 280.32,32.4104 275.32,31.4104 270.5,29.5C 269.914,29.7093 269.414,30.0426 269,30.5C 266.787,29.2405 264.287,28.5738 261.5,28.5C 259.167,28.6667 256.833,28.8333 254.5,29C 256.136,30.9353 257.969,31.4353 260,30.5C 261.261,30.7591 262.261,31.4258 263,32.5C 265.449,32.0631 267.783,32.0631 270,32.5C 271,33.5 272,34.5 273,35.5C 274.388,34.4464 275.888,34.2797 277.5,35C 273.5,35.6667 273.5,36.3333 277.5,37C 276.473,37.5133 275.473,38.0133 274.5,38.5C 271.012,38.2946 267.679,37.4613 264.5,36C 265.5,35.6667 266.5,35.3333 267.5,35C 263.572,33.6752 259.572,33.3418 255.5,34C 257.833,34.3333 260.167,34.6667 262.5,35C 260.667,35.1667 258.833,35.3333 257,35.5C 249.064,35.5861 241.064,35.2527 233,34.5C 232.5,35 232,35.5 231.5,36C 219.111,37.2691 207.111,39.7691 195.5,43.5C 187.8,47.0337 180.467,50.367 173.5,53.5C 171.864,49.4978 169.197,48.4978 165.5,50.5C 194.277,30.3119 226.277,22.4786 261.5,27C 269.897,27.6427 277.897,29.476 285.5,32.5 Z"/>
    </g>
    <g>
        <path style="opacity:1" fill="#633272"
              d="M 342.5,89.5 C 345.031,91.1606 346.698,92.994 347.5,95C 346.892,95.8699 346.059,96.3699 345,96.5C 340.752,91.0831 335.919,86.0831 330.5,81.5C 329.571,82.6888 329.238,84.0222 329.5,85.5C 296.167,51.7505 256.167,40.9172 209.5,53C 167.37,67.7252 140.037,96.5586 127.5,139.5C 127.813,136.753 127.48,134.086 126.5,131.5C 124.895,132.587 124.229,131.921 124.5,129.5C 125.102,125.63 126.768,122.297 129.5,119.5C 128.691,117.929 128.357,116.262 128.5,114.5C 129.942,112.46 130.942,110.127 131.5,107.5C 135.112,104.601 137.445,100.935 138.5,96.5C 140.904,95.9921 141.571,94.8255 140.5,93C 141.448,92.5172 142.448,92.3505 143.5,92.5C 143.5,90.8333 143.5,89.1667 143.5,87.5C 145.167,87.5 146.833,87.5 148.5,87.5C 148.5,85.8333 148.5,84.1667 148.5,82.5C 149.833,82.5 151.167,82.5 152.5,82.5C 152.343,81.1266 152.51,79.7932 153,78.5C 155.276,75.0514 158.443,73.0514 162.5,72.5C 162.5,73.5 162.5,74.5 162.5,75.5C 164.655,75.628 166.655,75.128 168.5,74C 172.334,70.9177 176.334,68.0844 180.5,65.5C 181.658,62.3152 183.325,59.4818 185.5,57C 185.167,56.6667 184.833,56.3333 184.5,56C 186.23,54.1476 187.396,54.3143 188,56.5C 188.249,55.376 188.749,54.376 189.5,53.5C 190.716,54.0016 191.883,54.3349 193,54.5C 195.41,53.6435 196.577,52.3102 196.5,50.5C 199.034,51.7883 201.534,51.7883 204,50.5C 204.333,51.1667 204.667,51.8333 205,52.5C 206.734,51.7511 208.567,51.2511 210.5,51C 211.413,49.5861 211.413,48.0861 210.5,46.5C 217.136,44.1427 223.969,41.8094 231,39.5C 235.136,40.8085 239.302,40.8085 243.5,39.5C 249.955,41.3294 256.455,41.6627 263,40.5C 269.129,43.4319 275.629,45.5986 282.5,47C 283.833,47.6667 283.833,48.3333 282.5,49C 284.78,49.2326 286.78,50.066 288.5,51.5C 289.5,50.8333 290.5,50.1667 291.5,49.5C 294.476,50.6599 296.31,52.3265 297,54.5C 299.71,53.4412 301.543,54.4412 302.5,57.5C 305.525,58.4291 308.358,59.7624 311,61.5C 311.333,61.1667 311.667,60.8333 312,60.5C 314.543,63.4336 317.71,65.267 321.5,66C 329.421,73.0831 336.421,80.9164 342.5,89.5 Z"/>
    </g>
    <g>
        <path style="opacity:1" fill="#5c276d"
              d="M 195.5,43.5 C 193.529,46.9549 190.529,49.1216 186.5,50C 187.6,51.023 188.933,51.523 190.5,51.5C 197.222,49.6771 203.722,47.3438 210,44.5C 210.464,45.0944 210.631,45.7611 210.5,46.5C 211.413,48.0861 211.413,49.5861 210.5,51C 208.567,51.2511 206.734,51.7511 205,52.5C 204.667,51.8333 204.333,51.1667 204,50.5C 201.534,51.7883 199.034,51.7883 196.5,50.5C 196.577,52.3102 195.41,53.6435 193,54.5C 191.883,54.3349 190.716,54.0016 189.5,53.5C 188.749,54.376 188.249,55.376 188,56.5C 187.396,54.3143 186.23,54.1476 184.5,56C 184.833,56.3333 185.167,56.6667 185.5,57C 183.325,59.4818 181.658,62.3152 180.5,65.5C 176.334,68.0844 172.334,70.9177 168.5,74C 166.655,75.128 164.655,75.628 162.5,75.5C 162.5,74.5 162.5,73.5 162.5,72.5C 162.389,71.8826 162.056,71.3826 161.5,71C 162.833,70.3333 163.833,69.3333 164.5,68C 168.553,66.6401 172.22,64.8068 175.5,62.5C 174.887,58.4877 176.554,56.4877 180.5,56.5C 180.5,55.5 180.5,54.5 180.5,53.5C 182.655,53.628 184.655,53.128 186.5,52C 185.271,51.2189 183.938,50.7189 182.5,50.5C 180.488,52.4547 178.154,53.9547 175.5,55C 172.46,55.3201 169.46,55.3201 166.5,55C 169.124,55.5764 169.791,56.9098 168.5,59C 164.767,61.752 160.767,62.9187 156.5,62.5C 157.908,61.7568 159.241,60.9234 160.5,60C 159.167,59.3333 159.167,58.6667 160.5,58C 162.693,58.5697 164.693,58.2363 166.5,57C 165.859,54.6161 164.359,53.1161 162,52.5C 158.616,55.3926 155.116,58.0593 151.5,60.5C 154.296,57.2026 157.296,54.0359 160.5,51C 162.134,50.5065 163.801,50.3398 165.5,50.5C 169.197,48.4978 171.864,49.4978 173.5,53.5C 180.467,50.367 187.8,47.0337 195.5,43.5 Z"/>
    </g>
    <g>
        <path style="opacity:0.966" fill="#561c67"
              d="M 274.5,38.5 C 278.615,39.9434 282.948,40.9434 287.5,41.5C 291.315,43.7693 295.315,45.9359 299.5,48C 301.979,48.8939 304.312,49.2272 306.5,49C 306.167,49.3333 305.833,49.6667 305.5,50C 312.39,54.3977 319.39,58.5643 326.5,62.5C 332.13,68.9622 338.297,74.9622 345,80.5C 345.483,81.448 345.649,82.448 345.5,83.5C 344.244,83.4614 343.244,83.9614 342.5,85C 343.728,86.4902 343.728,87.9902 342.5,89.5C 336.421,80.9164 329.421,73.0831 321.5,66C 317.71,65.267 314.543,63.4336 312,60.5C 311.667,60.8333 311.333,61.1667 311,61.5C 308.358,59.7624 305.525,58.4291 302.5,57.5C 301.543,54.4412 299.71,53.4412 297,54.5C 296.31,52.3265 294.476,50.6599 291.5,49.5C 290.5,50.1667 289.5,50.8333 288.5,51.5C 286.78,50.066 284.78,49.2326 282.5,49C 283.833,48.3333 283.833,47.6667 282.5,47C 275.629,45.5986 269.129,43.4319 263,40.5C 256.455,41.6627 249.955,41.3294 243.5,39.5C 239.302,40.8085 235.136,40.8085 231,39.5C 223.969,41.8094 217.136,44.1427 210.5,46.5C 210.631,45.7611 210.464,45.0944 210,44.5C 203.722,47.3438 197.222,49.6771 190.5,51.5C 188.933,51.523 187.6,51.023 186.5,50C 190.529,49.1216 193.529,46.9549 195.5,43.5C 207.111,39.7691 219.111,37.2691 231.5,36C 232,35.5 232.5,35 233,34.5C 241.064,35.2527 249.064,35.5861 257,35.5C 258.833,35.3333 260.667,35.1667 262.5,35C 260.167,34.6667 257.833,34.3333 255.5,34C 259.572,33.3418 263.572,33.6752 267.5,35C 266.5,35.3333 265.5,35.6667 264.5,36C 267.679,37.4613 271.012,38.2946 274.5,38.5 Z"/>
    </g>
    <g>
        <path style="opacity:0.125" fill="#6e437f"
              d="M 355.5,95.5 C 352.543,91.2079 349.21,87.2079 345.5,83.5C 345.649,82.448 345.483,81.448 345,80.5C 338.297,74.9622 332.13,68.9622 326.5,62.5C 319.39,58.5643 312.39,54.3977 305.5,50C 305.833,49.6667 306.167,49.3333 306.5,49C 304.312,49.2272 301.979,48.8939 299.5,48C 295.315,45.9359 291.315,43.7693 287.5,41.5C 286.002,39.4212 284.169,38.7545 282,39.5C 280.775,39.1377 279.609,38.6377 278.5,38C 279.833,37.3333 279.833,36.6667 278.5,36C 279.167,35.8333 279.833,35.6667 280.5,35.5C 286.338,37.8348 292.338,39.6681 298.5,41C 303.117,45.8104 308.783,48.8104 315.5,50C 323.494,55.9918 331.494,61.9918 339.5,68C 345.38,73.6099 349.88,80.1099 353,87.5C 355.757,89.5333 357.924,92.0333 359.5,95C 358.874,95.7504 358.374,96.5838 358,97.5C 357.292,96.6195 356.458,95.9528 355.5,95.5 Z"/>
    </g>
    <g>
        <path style="opacity:0.975" fill="#5f2d6f"
              d="M 285.5,32.5 C 327.649,46.813 357.482,74.4797 375,115.5C 376.484,119.447 377.65,123.447 378.5,127.5C 378.664,130.187 378.497,132.854 378,135.5C 377.329,134.748 376.496,134.414 375.5,134.5C 375.672,133.508 375.338,132.842 374.5,132.5C 373.794,131.443 373.461,131.776 373.5,133.5C 373.5,134.167 373.5,134.833 373.5,135.5C 373.5,136.167 373.5,136.833 373.5,137.5C 371.746,129.422 369.079,121.255 365.5,113C 363.74,110.055 361.907,107.222 360,104.5C 359.28,102.888 359.446,101.388 360.5,100C 357.771,100.295 356.104,98.7954 355.5,95.5C 356.458,95.9528 357.292,96.6195 358,97.5C 358.374,96.5838 358.874,95.7504 359.5,95C 357.924,92.0333 355.757,89.5333 353,87.5C 349.88,80.1099 345.38,73.6099 339.5,68C 331.494,61.9918 323.494,55.9918 315.5,50C 308.783,48.8104 303.117,45.8104 298.5,41C 292.338,39.6681 286.338,37.8348 280.5,35.5C 279.833,35.6667 279.167,35.8333 278.5,36C 279.833,36.6667 279.833,37.3333 278.5,38C 279.609,38.6377 280.775,39.1377 282,39.5C 284.169,38.7545 286.002,39.4212 287.5,41.5C 282.948,40.9434 278.615,39.9434 274.5,38.5C 275.473,38.0133 276.473,37.5133 277.5,37C 273.5,36.3333 273.5,35.6667 277.5,35C 275.888,34.2797 274.388,34.4464 273,35.5C 272,34.5 271,33.5 270,32.5C 267.783,32.0631 265.449,32.0631 263,32.5C 262.261,31.4258 261.261,30.7591 260,30.5C 257.969,31.4353 256.136,30.9353 254.5,29C 256.833,28.8333 259.167,28.6667 261.5,28.5C 264.287,28.5738 266.787,29.2405 269,30.5C 269.414,30.0426 269.914,29.7093 270.5,29.5C 275.32,31.4104 280.32,32.4104 285.5,32.5 Z"/>
    </g>
    <g>
        <path style="opacity:1" fill="#673aa5"
              d="M 223.5,88.5 C 225.5,88.5 227.5,88.5 229.5,88.5C 229.176,95.3543 229.509,102.021 230.5,108.5C 231.5,108.5 232.5,108.5 233.5,108.5C 241.607,106.448 249.274,107.448 256.5,111.5C 257.996,104.952 258.996,98.2853 259.5,91.5C 260.293,91.0688 261.127,90.7355 262,90.5C 264.575,91.7431 267.075,93.0765 269.5,94.5C 271.984,96.1198 273.484,98.4531 274,101.5C 275.16,106.434 275.66,111.434 275.5,116.5C 276.5,116.5 277.5,116.5 278.5,116.5C 277.79,120.383 277.457,124.216 277.5,128C 280.033,129.916 280.033,131.916 277.5,134C 265.246,137.788 254.58,144.122 245.5,153C 244.167,153.667 242.833,153.667 241.5,153C 231.748,143.785 220.415,137.119 207.5,133C 206.978,132.439 206.645,131.772 206.5,131C 207.038,128.898 208.038,128.065 209.5,128.5C 207.475,125.784 207.475,123.284 209.5,121C 208.017,118.427 208.517,116.26 211,114.5C 210.789,107.345 212.455,100.678 216,94.5C 218.106,91.8823 220.606,89.8823 223.5,88.5 Z"/>
    </g>
    <g>
        <path style="opacity:0.49" fill="#5f4187"
              d="M 230.5,108.5 C 229.509,102.021 229.176,95.3543 229.5,88.5C 227.5,88.5 225.5,88.5 223.5,88.5C 224.997,87.6942 226.664,87.0276 228.5,86.5C 229.086,86.7093 229.586,87.0426 230,87.5C 230.5,94.4921 230.666,101.492 230.5,108.5 Z"/>
    </g>
    <g>
        <path style="opacity:0.966" fill="#602d6f"
              d="M 150.5,62.5 C 148.257,64.3733 148.09,66.3733 150,68.5C 151.137,67.636 152.47,66.636 154,65.5C 154.667,66.1667 154.667,66.8333 154,67.5C 152.667,68.1667 151.667,69.1667 151,70.5C 150.667,70.1667 150.333,69.8333 150,69.5C 149.439,71.7254 148.439,73.7254 147,75.5C 140.555,80.2795 135.555,86.2795 132,93.5C 130.745,94.2106 129.579,95.044 128.5,96C 129.451,96.7175 129.617,97.5509 129,98.5C 127.592,100.917 125.758,102.917 123.5,104.5C 122.735,110.814 120.402,116.48 116.5,121.5C 117.429,123.322 116.762,124.655 114.5,125.5C 114.987,126.446 115.32,127.446 115.5,128.5C 114.155,134.542 112.822,140.542 111.5,146.5C 111.421,142.736 111.421,138.903 111.5,135C 113.283,133.933 113.783,132.433 113,130.5C 112.259,131.641 111.425,131.641 110.5,130.5C 109.83,128.709 109.163,127.042 108.5,125.5C 112.377,113.079 117.877,101.413 125,90.5C 130.953,82.2123 137.286,74.2123 144,66.5C 145.638,64.2663 147.805,62.933 150.5,62.5 Z"/>
    </g>
    <g>
        <path style="opacity:0.441" fill="#614194"
              d="M 269.5,94.5 C 267.075,93.0765 264.575,91.7431 262,90.5C 261.127,90.7355 260.293,91.0688 259.5,91.5C 258.996,98.2853 257.996,104.952 256.5,111.5C 249.274,107.448 241.607,106.448 233.5,108.5C 240.912,104.262 248.246,104.596 255.5,109.5C 256.03,101.69 256.863,94.0232 258,86.5C 261.705,87.9359 265.205,89.7693 268.5,92C 269.252,92.6708 269.586,93.5041 269.5,94.5 Z"/>
    </g>
    <g>
        <path style="opacity:1" fill="#581d69"
              d="M 342.5,89.5 C 343.728,87.9902 343.728,86.4902 342.5,85C 343.244,83.9614 344.244,83.4614 345.5,83.5C 349.21,87.2079 352.543,91.2079 355.5,95.5C 356.104,98.7954 357.771,100.295 360.5,100C 359.446,101.388 359.28,102.888 360,104.5C 361.907,107.222 363.74,110.055 365.5,113C 369.079,121.255 371.746,129.422 373.5,137.5C 374.167,137.833 374.833,138.167 375.5,138.5C 374.11,141 374.277,143.333 376,145.5C 376.805,143.099 377.638,143.266 378.5,146C 377.833,146.333 377.167,146.667 376.5,147C 376.799,148.32 376.966,149.82 377,151.5C 377.889,150.112 378.389,150.278 378.5,152C 375.6,156.757 375.267,161.424 377.5,166C 376.851,169.568 376.851,173.068 377.5,176.5C 375.881,183.762 374.714,191.095 374,198.5C 373.55,200.519 372.717,202.352 371.5,204C 372.022,204.561 372.355,205.228 372.5,206C 370.622,210.367 368.622,214.7 366.5,219C 368.108,219.658 369.275,219.158 370,217.5C 372.261,220.846 371.927,223.846 369,226.5C 368.5,226 368,225.5 367.5,225C 368.554,223.612 368.72,222.112 368,220.5C 365.453,222.002 364.62,224.002 365.5,226.5C 361.979,227.15 360.979,228.983 362.5,232C 361.833,232.333 361.167,232.667 360.5,233C 363.876,233.307 365.21,235.14 364.5,238.5C 364.672,239.492 364.338,240.158 363.5,240.5C 362.07,240.579 360.736,240.246 359.5,239.5C 358.851,241.624 358.017,243.624 357,245.5C 356.383,244.551 356.549,243.718 357.5,243C 356.175,243.148 355.008,242.982 354,242.5C 353.257,244.932 351.757,246.599 349.5,247.5C 348.185,248.476 346.852,249.476 345.5,250.5C 343.717,249.652 343.217,248.319 344,246.5C 350.614,241.033 355.114,233.699 357.5,224.5C 357.472,222.418 358.139,220.584 359.5,219C 359.167,218.667 358.833,218.333 358.5,218C 360.833,216.757 361.5,215.091 360.5,213C 361.5,212.5 362.5,212 363.5,211.5C 364.214,208.973 364.88,206.473 365.5,204C 364.786,202.657 365.12,201.324 366.5,200C 365.944,199.617 365.611,199.117 365.5,198.5C 365.218,196.384 365.885,195.051 367.5,194.5C 371.959,183.657 372.625,172.491 369.5,161C 371.286,155.622 370.619,150.622 367.5,146C 367.957,145.586 368.291,145.086 368.5,144.5C 367.561,140.536 366.728,136.536 366,132.5C 365.444,134.595 364.944,134.762 364.5,133C 364.645,132.228 364.978,131.561 365.5,131C 363.801,128.762 362.468,126.262 361.5,123.5C 361.768,125.647 361.101,126.98 359.5,127.5C 358.504,127.586 357.671,127.252 357,126.5C 356.767,124.22 355.934,122.22 354.5,120.5C 355.263,119.281 356.263,118.281 357.5,117.5C 356.833,117.167 356.167,116.833 355.5,116.5C 356.376,115.749 357.376,115.249 358.5,115C 357.833,114.667 357.167,114.333 356.5,114C 357.952,111.292 357.286,109.125 354.5,107.5C 353.851,105.376 353.017,103.376 352,101.5C 350.086,102.676 350.252,103.676 352.5,104.5C 351.167,105.833 351.167,107.167 352.5,108.5C 352.081,109.672 351.415,110.672 350.5,111.5C 349.388,108.931 348.055,106.598 346.5,104.5C 347.138,101.845 348.472,100.511 350.5,100.5C 348.264,99.188 346.264,99.5213 344.5,101.5C 343.095,99.0929 341.095,97.4262 338.5,96.5C 335.739,92.6496 332.739,88.9829 329.5,85.5C 329.238,84.0222 329.571,82.6888 330.5,81.5C 335.919,86.0831 340.752,91.0831 345,96.5C 346.059,96.3699 346.892,95.8699 347.5,95C 346.698,92.994 345.031,91.1606 342.5,89.5 Z"/>
    </g>
    <g>
        <path style="opacity:1" fill="#571a67"
              d="M 162.5,72.5 C 158.443,73.0514 155.276,75.0514 153,78.5C 152.51,79.7932 152.343,81.1266 152.5,82.5C 151.167,82.5 149.833,82.5 148.5,82.5C 148.5,84.1667 148.5,85.8333 148.5,87.5C 146.833,87.5 145.167,87.5 143.5,87.5C 143.5,89.1667 143.5,90.8333 143.5,92.5C 142.448,92.3505 141.448,92.5172 140.5,93C 141.571,94.8255 140.904,95.9921 138.5,96.5C 137.445,100.935 135.112,104.601 131.5,107.5C 130.942,110.127 129.942,112.46 128.5,114.5C 125.182,120.813 122.682,127.48 121,134.5C 120.667,134.167 120.333,133.833 120,133.5C 119.194,138.704 117.861,143.704 116,148.5C 115.333,147.833 114.667,147.167 114,146.5C 113.718,150.039 113.218,153.539 112.5,157C 113.99,160.318 114.656,163.818 114.5,167.5C 113.468,174.539 113.468,181.539 114.5,188.5C 114.167,188.833 113.833,189.167 113.5,189.5C 112.824,188.398 112.158,187.398 111.5,186.5C 110.216,173.505 110.216,160.505 111.5,147.5C 111.5,147.167 111.5,146.833 111.5,146.5C 112.822,140.542 114.155,134.542 115.5,128.5C 115.32,127.446 114.987,126.446 114.5,125.5C 116.762,124.655 117.429,123.322 116.5,121.5C 120.402,116.48 122.735,110.814 123.5,104.5C 125.758,102.917 127.592,100.917 129,98.5C 129.617,97.5509 129.451,96.7175 128.5,96C 129.579,95.044 130.745,94.2106 132,93.5C 135.555,86.2795 140.555,80.2795 147,75.5C 148.439,73.7254 149.439,71.7254 150,69.5C 150.333,69.8333 150.667,70.1667 151,70.5C 151.667,69.1667 152.667,68.1667 154,67.5C 154.667,66.8333 154.667,66.1667 154,65.5C 152.47,66.636 151.137,67.636 150,68.5C 148.09,66.3733 148.257,64.3733 150.5,62.5C 150.833,61.8333 151.167,61.1667 151.5,60.5C 155.116,58.0593 158.616,55.3926 162,52.5C 164.359,53.1161 165.859,54.6161 166.5,57C 164.693,58.2363 162.693,58.5697 160.5,58C 159.167,58.6667 159.167,59.3333 160.5,60C 159.241,60.9234 157.908,61.7568 156.5,62.5C 160.767,62.9187 164.767,61.752 168.5,59C 169.791,56.9098 169.124,55.5764 166.5,55C 169.46,55.3201 172.46,55.3201 175.5,55C 178.154,53.9547 180.488,52.4547 182.5,50.5C 183.938,50.7189 185.271,51.2189 186.5,52C 184.655,53.128 182.655,53.628 180.5,53.5C 180.5,54.5 180.5,55.5 180.5,56.5C 176.554,56.4877 174.887,58.4877 175.5,62.5C 172.22,64.8068 168.553,66.6401 164.5,68C 163.833,69.3333 162.833,70.3333 161.5,71C 162.056,71.3826 162.389,71.8826 162.5,72.5 Z"/>
    </g>
    <g>
        <path style="opacity:1" fill="#633770"
              d="M 338.5,96.5 C 341.095,97.4262 343.095,99.0929 344.5,101.5C 346.264,99.5213 348.264,99.188 350.5,100.5C 348.472,100.511 347.138,101.845 346.5,104.5C 348.055,106.598 349.388,108.931 350.5,111.5C 351.415,110.672 352.081,109.672 352.5,108.5C 351.167,107.167 351.167,105.833 352.5,104.5C 350.252,103.676 350.086,102.676 352,101.5C 353.017,103.376 353.851,105.376 354.5,107.5C 357.286,109.125 357.952,111.292 356.5,114C 357.167,114.333 357.833,114.667 358.5,115C 357.376,115.249 356.376,115.749 355.5,116.5C 356.167,116.833 356.833,117.167 357.5,117.5C 356.263,118.281 355.263,119.281 354.5,120.5C 355.934,122.22 356.767,124.22 357,126.5C 357.671,127.252 358.504,127.586 359.5,127.5C 359.188,130.888 360.521,133.388 363.5,135C 362.518,142.747 362.185,150.58 362.5,158.5C 360.703,135.551 352.703,114.884 338.5,96.5 Z"/>
    </g>
    <g>
        <path style="opacity:0.005" fill="#fefffe"
              d="M 374.5,132.5 C 375.338,132.842 375.672,133.508 375.5,134.5C 375.5,134.833 375.5,135.167 375.5,135.5C 374.833,135.5 374.167,135.5 373.5,135.5C 373.5,134.833 373.5,134.167 373.5,133.5C 374.167,133.5 374.5,133.167 374.5,132.5 Z"/>
    </g>
    <g>
        <path style="opacity:0.086" fill="#6f437e"
              d="M 108.5,125.5 C 109.163,127.042 109.83,128.709 110.5,130.5C 111.425,131.641 112.259,131.641 113,130.5C 113.783,132.433 113.283,133.933 111.5,135C 111.421,138.903 111.421,142.736 111.5,146.5C 111.5,146.833 111.5,147.167 111.5,147.5C 110.549,148.919 110.216,150.585 110.5,152.5C 108.5,151.833 106.5,151.167 104.5,150.5C 104.657,151.873 104.49,153.207 104,154.5C 103.617,153.944 103.117,153.611 102.5,153.5C 103.114,143.756 105.114,134.422 108.5,125.5 Z"/>
    </g>
    <g>
        <path style="opacity:1" fill="#613071"
              d="M 367.5,194.5 C 367.077,193.735 366.743,192.902 366.5,192C 368.245,188.795 369.245,185.628 369.5,182.5C 366.889,174.407 365.389,174.741 365,183.5C 364.94,175.382 364.106,167.382 362.5,159.5C 362.5,159.167 362.5,158.833 362.5,158.5C 362.185,150.58 362.518,142.747 363.5,135C 360.521,133.388 359.188,130.888 359.5,127.5C 361.101,126.98 361.768,125.647 361.5,123.5C 362.468,126.262 363.801,128.762 365.5,131C 364.978,131.561 364.645,132.228 364.5,133C 364.944,134.762 365.444,134.595 366,132.5C 366.728,136.536 367.561,140.536 368.5,144.5C 368.291,145.086 367.957,145.586 367.5,146C 370.619,150.622 371.286,155.622 369.5,161C 372.625,172.491 371.959,183.657 367.5,194.5 Z"/>
    </g>
    <g>
        <path style="opacity:0.933" fill="#5a206b"
              d="M 128.5,114.5 C 128.357,116.262 128.691,117.929 129.5,119.5C 126.768,122.297 125.102,125.63 124.5,129.5C 124.229,131.921 124.895,132.587 126.5,131.5C 127.48,134.086 127.813,136.753 127.5,139.5C 127.768,141.099 127.434,142.432 126.5,143.5C 125.25,143.423 124.417,142.756 124,141.5C 123.667,142.167 123.333,142.833 123,143.5C 122.316,142.216 122.483,141.049 123.5,140C 122.234,139.691 121.067,139.191 120,138.5C 119.333,139.5 119.333,140.5 120,141.5C 121.018,140.294 121.518,140.627 121.5,142.5C 120.487,143.165 119.487,144.332 118.5,146C 120.421,147.805 121.088,149.805 120.5,152C 119.941,154.941 119.107,157.775 118,160.5C 117.833,163.5 117.667,166.5 117.5,169.5C 117.912,173.207 117.912,176.707 117.5,180C 118.931,180.465 120.097,181.299 121,182.5C 121.09,148.335 122.59,148.335 125.5,182.5C 127.359,192.935 130.026,203.268 133.5,213.5C 133.839,217.85 135.172,221.85 137.5,225.5C 137.167,225.833 136.833,226.167 136.5,226.5C 135.614,225.675 135.281,224.675 135.5,223.5C 134.5,223.5 133.5,223.5 132.5,223.5C 133.323,226.351 134.656,229.018 136.5,231.5C 136.291,232.086 135.957,232.586 135.5,233C 137.044,233.29 138.377,233.956 139.5,235C 138.833,235.333 138.167,235.667 137.5,236C 141.305,242.459 145.805,248.292 151,253.5C 150.786,256.382 152.119,258.716 155,260.5C 155.483,261.448 155.649,262.448 155.5,263.5C 148.214,261.429 143.381,256.762 141,249.5C 139.202,247.028 136.868,245.361 134,244.5C 131.247,239.992 128.247,235.659 125,231.5C 121.102,220.709 116.936,210.042 112.5,199.5C 112.563,201.078 112.23,202.911 111.5,205C 113.681,207.348 115.014,210.181 115.5,213.5C 115.139,216.348 113.806,217.014 111.5,215.5C 111.263,210.85 110.263,206.35 108.5,202C 109.022,201.05 109.689,200.216 110.5,199.5C 110.291,198.914 109.957,198.414 109.5,198C 110.624,197.751 111.624,197.251 112.5,196.5C 111.583,193.242 111.249,189.909 111.5,186.5C 112.158,187.398 112.824,188.398 113.5,189.5C 113.833,189.167 114.167,188.833 114.5,188.5C 113.468,181.539 113.468,174.539 114.5,167.5C 114.656,163.818 113.99,160.318 112.5,157C 113.218,153.539 113.718,150.039 114,146.5C 114.667,147.167 115.333,147.833 116,148.5C 117.861,143.704 119.194,138.704 120,133.5C 120.333,133.833 120.667,134.167 121,134.5C 122.682,127.48 125.182,120.813 128.5,114.5 Z"/>
    </g>
    <g>
        <path style="opacity:0.922" fill="#653371"
              d="M 126.5,143.5 C 125.646,156.48 125.313,169.48 125.5,182.5C 122.59,148.335 121.09,148.335 121,182.5C 120.097,181.299 118.931,180.465 117.5,180C 117.912,176.707 117.912,173.207 117.5,169.5C 117.667,166.5 117.833,163.5 118,160.5C 119.107,157.775 119.941,154.941 120.5,152C 121.088,149.805 120.421,147.805 118.5,146C 119.487,144.332 120.487,143.165 121.5,142.5C 121.518,140.627 121.018,140.294 120,141.5C 119.333,140.5 119.333,139.5 120,138.5C 121.067,139.191 122.234,139.691 123.5,140C 122.483,141.049 122.316,142.216 123,143.5C 123.333,142.833 123.667,142.167 124,141.5C 124.417,142.756 125.25,143.423 126.5,143.5 Z"/>
    </g>
    <g>
        <path style="opacity:1" fill="#98899c"
              d="M 311.5,173.5 C 310.5,173.833 309.833,174.5 309.5,175.5C 308.475,175.103 308.308,174.437 309,173.5C 309.977,172.226 310.811,172.226 311.5,173.5 Z"/>
    </g>
    <g>
        <path style="opacity:1" fill="#5f306a"
              d="M 206.5,201.5 C 205.167,201.5 203.833,201.5 202.5,201.5C 201.977,198.972 200.977,196.639 199.5,194.5C 199.833,193.833 200.167,193.167 200.5,192.5C 201.281,193.729 201.781,195.062 202,196.5C 202.87,195.892 203.37,195.059 203.5,194C 201.254,188.06 200.087,181.893 200,175.5C 196.591,174.378 193.091,174.211 189.5,175C 191.158,175.725 191.658,176.892 191,178.5C 188.465,175.992 187.298,176.826 187.5,181C 187.34,183.47 188.007,185.636 189.5,187.5C 187.988,188.862 186.488,189.196 185,188.5C 184,189.5 183,190.5 182,191.5C 181.501,195.486 181.334,199.486 181.5,203.5C 182.833,203.5 184.167,203.5 185.5,203.5C 185.5,201.5 185.5,199.5 185.5,197.5C 189.122,197.322 192.456,197.989 195.5,199.5C 193.167,199.5 190.833,199.5 188.5,199.5C 188.799,201.604 188.466,203.604 187.5,205.5C 185.352,204.242 183.185,204.242 181,205.5C 179.941,205.37 179.108,204.87 178.5,204C 180.965,200.964 180.965,197.964 178.5,195C 179.162,192.324 180.662,190.157 183,188.5C 184.322,183.572 185.322,178.572 186,173.5C 190.539,172.587 195.372,172.42 200.5,173C 202.815,182.409 204.815,191.909 206.5,201.5 Z"/>
    </g>
    <g>
        <path style="opacity:1" fill="#5d236b"
              d="M 261.5,173.5 C 262.552,173.351 263.552,173.517 264.5,174C 273.044,183.062 273.544,192.562 266,202.5C 260.512,206.943 254.679,207.61 248.5,204.5C 245.402,200.896 242.902,196.896 241,192.5C 240.255,178.08 247.088,171.747 261.5,173.5 Z M 255.5,180.5 C 256.239,180.369 256.906,180.536 257.5,181C 258.05,182.845 259.05,184.345 260.5,185.5C 263.636,195.386 260.303,198.886 250.5,196C 249.748,195.329 249.414,194.496 249.5,193.5C 249.405,190.308 250.071,187.308 251.5,184.5C 251.833,183.5 252.5,182.833 253.5,182.5C 254.833,182.5 255.5,181.833 255.5,180.5 Z"/>
    </g>
    <g>
        <path style="opacity:1" fill="#643071"
              d="M 111.5,147.5 C 110.216,160.505 110.216,173.505 111.5,186.5C 111.249,189.909 111.583,193.242 112.5,196.5C 111.624,197.251 110.624,197.751 109.5,198C 109.957,198.414 110.291,198.914 110.5,199.5C 109.689,200.216 109.022,201.05 108.5,202C 110.263,206.35 111.263,210.85 111.5,215.5C 102.221,195.818 99.221,175.151 102.5,153.5C 103.117,153.611 103.617,153.944 104,154.5C 104.49,153.207 104.657,151.873 104.5,150.5C 106.5,151.167 108.5,151.833 110.5,152.5C 110.216,150.585 110.549,148.919 111.5,147.5 Z"/>
    </g>
    <g>
        <path style="opacity:1" fill="#5b2069"
              d="M 221.5,191.5 C 222.843,196.078 225.843,197.578 230.5,196C 231.914,194.452 233.58,193.785 235.5,194C 238.387,204.448 234.387,208.448 223.5,206C 220.064,204.726 217.397,202.559 215.5,199.5C 214.558,194.195 214.391,188.861 215,183.5C 216.766,181.404 218.099,179.071 219,176.5C 221.28,175.914 223.447,175.08 225.5,174C 231.176,172.068 234.51,173.902 235.5,179.5C 225.05,177.3 220.383,181.3 221.5,191.5 Z"/>
    </g>
    <g>
        <path style="opacity:0.957" fill="#5d3669"
              d="M 221.5,191.5 C 220.383,181.3 225.05,177.3 235.5,179.5C 234.51,173.902 231.176,172.068 225.5,174C 223.447,175.08 221.28,175.914 219,176.5C 218.099,179.071 216.766,181.404 215,183.5C 214.391,188.861 214.558,194.195 215.5,199.5C 211.694,192.717 211.527,185.717 215,178.5C 221.31,172.213 228.81,170.213 237.5,172.5C 237.384,175.86 237.051,179.193 236.5,182.5C 227.657,179.37 222.657,182.37 221.5,191.5 Z"/>
    </g>
    <g>
        <path style="opacity:0.007" fill="#fefffe"
              d="M 255.5,180.5 C 255.5,181.833 254.833,182.5 253.5,182.5C 253.082,181.778 252.416,181.278 251.5,181C 252.793,180.51 254.127,180.343 255.5,180.5 Z"/>
    </g>
    <g>
        <path style="opacity:0.714" fill="#583261"
              d="M 294.5,173.5 C 288.907,173.193 283.407,173.527 278,174.5C 277.5,184.161 277.334,193.828 277.5,203.5C 280.167,203.5 282.833,203.5 285.5,203.5C 285.5,202.5 285.5,201.5 285.5,200.5C 286.788,202.035 286.788,203.701 285.5,205.5C 282.593,204.753 279.76,204.419 277,204.5C 276.5,193.839 276.333,183.172 276.5,172.5C 282.69,172.177 288.69,172.51 294.5,173.5 Z"/>
    </g>
    <g>
        <path style="opacity:0.005" fill="#fefffe"
              d="M 251.5,184.5 C 250.071,187.308 249.405,190.308 249.5,193.5C 248.258,190.26 248.424,186.926 250,183.5C 250.383,184.056 250.883,184.389 251.5,184.5 Z"/>
    </g>
    <g>
        <path style="opacity:0.235" fill="#663673"
              d="M 378.5,127.5 C 387.085,156.956 386.251,186.289 376,215.5C 373.191,223.786 369.357,231.452 364.5,238.5C 365.21,235.14 363.876,233.307 360.5,233C 361.167,232.667 361.833,232.333 362.5,232C 360.979,228.983 361.979,227.15 365.5,226.5C 364.62,224.002 365.453,222.002 368,220.5C 368.72,222.112 368.554,223.612 367.5,225C 368,225.5 368.5,226 369,226.5C 371.927,223.846 372.261,220.846 370,217.5C 369.275,219.158 368.108,219.658 366.5,219C 368.622,214.7 370.622,210.367 372.5,206C 372.355,205.228 372.022,204.561 371.5,204C 372.717,202.352 373.55,200.519 374,198.5C 374.714,191.095 375.881,183.762 377.5,176.5C 376.851,173.068 376.851,169.568 377.5,166C 375.267,161.424 375.6,156.757 378.5,152C 378.389,150.278 377.889,150.112 377,151.5C 376.966,149.82 376.799,148.32 376.5,147C 377.167,146.667 377.833,146.333 378.5,146C 377.638,143.266 376.805,143.099 376,145.5C 374.277,143.333 374.11,141 375.5,138.5C 375.5,137.5 375.5,136.5 375.5,135.5C 375.5,135.167 375.5,134.833 375.5,134.5C 376.496,134.414 377.329,134.748 378,135.5C 378.497,132.854 378.664,130.187 378.5,127.5 Z"/>
    </g>
    <g>
        <path style="opacity:1" fill="#5c1f6b"
              d="M 206.5,201.5 C 208.561,202.751 208.894,204.418 207.5,206.5C 204.167,205.167 200.833,205.167 197.5,206.5C 196.832,204.031 196.165,201.698 195.5,199.5C 192.456,197.989 189.122,197.322 185.5,197.5C 185.5,199.5 185.5,201.5 185.5,203.5C 184.167,203.5 182.833,203.5 181.5,203.5C 181.334,199.486 181.501,195.486 182,191.5C 183,190.5 184,189.5 185,188.5C 186.488,189.196 187.988,188.862 189.5,187.5C 188.007,185.636 187.34,183.47 187.5,181C 187.298,176.826 188.465,175.992 191,178.5C 191.658,176.892 191.158,175.725 189.5,175C 193.091,174.211 196.591,174.378 200,175.5C 200.087,181.893 201.254,188.06 203.5,194C 203.37,195.059 202.87,195.892 202,196.5C 201.781,195.062 201.281,193.729 200.5,192.5C 200.167,193.167 199.833,193.833 199.5,194.5C 200.977,196.639 201.977,198.972 202.5,201.5C 203.833,201.5 205.167,201.5 206.5,201.5 Z"/>
    </g>
    <g>
        <path style="opacity:1" fill="#71467e"
              d="M 362.5,159.5 C 364.106,167.382 364.94,175.382 365,183.5C 365.389,174.741 366.889,174.407 369.5,182.5C 369.245,185.628 368.245,188.795 366.5,192C 366.743,192.902 367.077,193.735 367.5,194.5C 365.885,195.051 365.218,196.384 365.5,198.5C 363.621,197.659 361.621,197.325 359.5,197.5C 360.778,184.709 361.778,172.042 362.5,159.5 Z"/>
    </g>
    <g>
        <path style="opacity:1" fill="#5e246d"
              d="M 174.5,198.5 C 168.743,204.092 162.576,204.759 156,200.5C 155.503,197.854 155.336,195.187 155.5,192.5C 157.703,192.065 159.703,192.065 161.5,192.5C 161.261,194.467 161.594,196.301 162.5,198C 164.713,198.456 165.713,197.456 165.5,195C 165.502,187.82 165.335,180.654 165,173.5C 168.089,173.621 171.256,173.287 174.5,172.5C 175.802,181.226 175.802,189.892 174.5,198.5 Z"/>
    </g>
    <g>
        <path style="opacity:1" fill="#561a67"
              d="M 294.5,173.5 C 302.182,175.168 304.849,179.835 302.5,187.5C 300.67,190.161 298.337,192.328 295.5,194C 296.833,196 298.167,198 299.5,200C 300.448,200.483 301.448,200.649 302.5,200.5C 302.701,204.793 300.701,206.793 296.5,206.5C 295.167,206.333 293.833,206.167 292.5,206C 290.306,203.305 288.306,200.472 286.5,197.5C 285.614,198.325 285.281,199.325 285.5,200.5C 285.5,201.5 285.5,202.5 285.5,203.5C 282.833,203.5 280.167,203.5 277.5,203.5C 277.334,193.828 277.5,184.161 278,174.5C 283.407,173.527 288.907,173.193 294.5,173.5 Z M 288.5,181.5 C 291.923,182.407 292.09,184.074 289,186.5C 287.212,184.977 287.045,183.31 288.5,181.5 Z"/>
    </g>
    <g>
        <path style="opacity:1" fill="#592f65"
              d="M 161.5,192.5 C 159.703,192.065 157.703,192.065 155.5,192.5C 155.336,195.187 155.503,197.854 156,200.5C 162.576,204.759 168.743,204.092 174.5,198.5C 174.067,201.195 172.734,203.362 170.5,205C 158.049,209.55 152.549,205.384 154,192.5C 155.707,191.541 157.541,190.875 159.5,190.5C 160.713,190.747 161.38,191.414 161.5,192.5 Z"/>
    </g>
    <g>
        <path style="opacity:1" fill="#5c236a"
              d="M 318.5,197.5 C 318.918,198.222 319.584,198.722 320.5,199C 323.5,199.333 326.5,199.667 329.5,200C 330.38,201.356 330.714,202.856 330.5,204.5C 323.087,205.128 316.087,204.461 309.5,202.5C 309.036,193.542 309.036,184.542 309.5,175.5C 309.833,174.5 310.5,173.833 311.5,173.5C 318.377,172.26 325.21,172.26 332,173.5C 332.821,176.554 332.655,179.554 331.5,182.5C 327.036,180.698 322.37,180.032 317.5,180.5C 317.238,181.978 317.571,183.311 318.5,184.5C 325.766,181.462 329.1,183.796 328.5,191.5C 325.157,192.224 321.824,193.057 318.5,194C 317.209,195.292 317.209,196.458 318.5,197.5 Z"/>
    </g>
    <g>
        <path style="opacity:0.953" fill="#552e5f"
              d="M 261.5,173.5 C 247.088,171.747 240.255,178.08 241,192.5C 242.902,196.896 245.402,200.896 248.5,204.5C 243.776,202.424 240.942,198.758 240,193.5C 238.051,180.349 243.551,173.016 256.5,171.5C 258.422,171.801 260.088,172.467 261.5,173.5 Z"/>
    </g>
    <g>
        <path style="opacity:0.788" fill="#684072"
              d="M 309.5,202.5 C 316.087,204.461 323.087,205.128 330.5,204.5C 330.714,202.856 330.38,201.356 329.5,200C 326.5,199.667 323.5,199.333 320.5,199C 319.584,198.722 318.918,198.222 318.5,197.5C 323.364,197.999 327.864,196.999 332,194.5C 332.991,195.43 333.491,196.596 333.5,198C 332.841,200.462 332.507,202.962 332.5,205.5C 324.5,205.5 316.5,205.5 308.5,205.5C 308.263,204.209 308.596,203.209 309.5,202.5 Z"/>
    </g>
    <g>
        <path style="opacity:0.984" fill="#61336e"
              d="M 359.5,197.5 C 361.621,197.325 363.621,197.659 365.5,198.5C 365.611,199.117 365.944,199.617 366.5,200C 365.12,201.324 364.786,202.657 365.5,204C 364.88,206.473 364.214,208.973 363.5,211.5C 362.5,212 361.5,212.5 360.5,213C 361.5,215.091 360.833,216.757 358.5,218C 358.833,218.333 359.167,218.667 359.5,219C 358.139,220.584 357.472,222.418 357.5,224.5C 355.515,224.859 354.849,225.692 355.5,227C 355,227.5 354.5,228 354,228.5C 353.818,225.774 353.318,223.107 352.5,220.5C 350.171,221.771 349.005,223.771 349,226.5C 347.887,227.305 346.721,227.972 345.5,228.5C 346.4,224.371 348.567,221.038 352,218.5C 354.943,211.525 357.443,204.525 359.5,197.5 Z"/>
    </g>
    <g>
        <path style="opacity:0.995" fill="#7d61a6"
              d="M 251.5,237.5 C 250.167,237.5 249.5,238.167 249.5,239.5C 246.433,237.879 243.599,235.879 241,233.5C 239.816,224.713 243.482,222.047 252,225.5C 253.309,227.686 253.476,229.853 252.5,232C 251.833,232.667 251.167,232.667 250.5,232C 250.034,229.877 248.867,228.377 247,227.5C 245.5,227.667 244.667,228.5 244.5,230C 246.41,232.942 248.744,235.442 251.5,237.5 Z"/>
    </g>
    <g>
        <path style="opacity:0.924" fill="#764a9e"
              d="M 263.5,245.5 C 262.1,244.9 261.1,243.9 260.5,242.5C 260.324,237.12 260.658,231.787 261.5,226.5C 259.712,226.785 258.045,226.452 256.5,225.5C 260.5,224.167 264.5,224.167 268.5,225.5C 266.955,226.452 265.288,226.785 263.5,226.5C 263.5,232.833 263.5,239.167 263.5,245.5 Z"/>
    </g>
    <g>
        <path style="opacity:0.944" fill="#7c5ba8"
              d="M 171.5,223.5 C 175.129,224.1 178.796,224.767 182.5,225.5C 179.893,226.318 177.226,226.818 174.5,227C 173.223,229.466 173.223,231.966 174.5,234.5C 175.192,233.975 175.692,233.308 176,232.5C 178.304,234.029 180.804,235.196 183.5,236C 182.975,236.692 182.308,237.192 181.5,237.5C 178.947,237.055 176.28,237.055 173.5,237.5C 173.223,240.448 173.556,243.281 174.5,246C 173.464,247.617 172.297,247.784 171,246.5C 170.202,238.754 170.369,231.087 171.5,223.5 Z"/>
    </g>
    <g>
        <path style="opacity:0.004" fill="#fefffe"
              d="M 264.5,231.5 C 266.465,231.948 266.798,232.948 265.5,234.5C 264.614,233.675 264.281,232.675 264.5,231.5 Z"/>
    </g>
    <g>
        <path style="opacity:0.847" fill="#9b83bd"
              d="M 307.5,231.5 C 306.314,233.792 306.314,236.126 307.5,238.5C 307.751,241.307 307.417,244.307 306.5,247.5C 305.127,247.657 303.793,247.49 302.5,247C 302.514,239.606 302.681,232.106 303,224.5C 304.587,223.273 305.921,223.606 307,225.5C 306.716,227.679 306.883,229.679 307.5,231.5 Z"/>
    </g>
    <g>
        <path style="opacity:1" fill="#7550a5"
              d="M 307.5,238.5 C 306.314,236.126 306.314,233.792 307.5,231.5C 308.786,228.883 310.453,226.55 312.5,224.5C 313.942,227.787 313.275,230.62 310.5,233C 311.771,237.479 313.438,241.812 315.5,246C 314.725,247.23 313.725,247.563 312.5,247C 310.933,244.021 309.266,241.188 307.5,238.5 Z"/>
    </g>
    <g>
        <path style="opacity:0.729" fill="#6b5599"
              d="M 204.5,224.5 C 206.3,230.758 207.133,237.425 207,244.5C 209.473,245.12 211.973,245.786 214.5,246.5C 210.637,249.381 207.137,249.048 204,245.5C 203.28,238.464 203.447,231.464 204.5,224.5 Z"/>
    </g>
    <g>
        <path style="opacity:0.721" fill="#6b5a98"
              d="M 219.5,223.5 C 220.329,230.321 220.829,237.321 221,244.5C 223.473,245.12 225.973,245.786 228.5,246.5C 226.133,248.395 223.466,248.895 220.5,248C 219.151,247.228 218.318,246.061 218,244.5C 217.11,237.352 217.61,230.352 219.5,223.5 Z"/>
    </g>
    <g>
        <path style="opacity:0.82" fill="#7960a3"
              d="M 273.5,224.5 C 275.167,224.5 276.833,224.5 278.5,224.5C 280.641,232.062 282.307,239.729 283.5,247.5C 282.5,247.5 281.5,247.5 280.5,247.5C 281.656,240.842 279.156,238.842 273,241.5C 272.506,243.134 272.34,244.801 272.5,246.5C 271.127,246.657 269.793,246.49 268.5,246C 270.675,238.969 272.342,231.803 273.5,224.5 Z M 277.5,235.5 C 277.719,236.675 277.386,237.675 276.5,238.5C 275.702,238.043 275.369,237.376 275.5,236.5C 276.167,236.167 276.833,235.833 277.5,235.5 Z"/>
    </g>
    <g>
        <path style="opacity:0.005" fill="#eeeeee"
              d="M 275.5,233.5 C 276.833,233.5 277.5,234.167 277.5,235.5C 276.833,235.833 276.167,236.167 275.5,236.5C 274.375,235.652 274.375,234.652 275.5,233.5 Z"/>
    </g>
    <g>
        <path style="opacity:0.933" fill="#7a61a5"
              d="M 186.5,224.5 C 187.833,224.5 189.167,224.5 190.5,224.5C 190.334,230.842 190.5,237.175 191,243.5C 192.356,244.38 193.856,244.714 195.5,244.5C 196.38,237.877 196.713,231.211 196.5,224.5C 197.822,224.33 198.989,224.663 200,225.5C 200.667,231.833 200.667,238.167 200,244.5C 195.446,249.589 191.113,249.589 187,244.5C 186.5,237.842 186.334,231.175 186.5,224.5 Z"/>
    </g>
    <g>
        <path style="opacity:0.961" fill="#886fb3"
              d="M 289.5,223.5 C 292.167,223.833 294.833,224.167 297.5,224.5C 297.674,226.861 298.007,229.194 298.5,231.5C 297.167,231.5 295.833,231.5 294.5,231.5C 294.5,230.5 294.5,229.5 294.5,228.5C 292.799,228.034 291.299,228.034 290,228.5C 289.501,233.823 289.334,239.156 289.5,244.5C 290.873,244.657 292.207,244.49 293.5,244C 293.988,241.824 294.988,239.991 296.5,238.5C 298.954,240.876 299.121,243.543 297,246.5C 293.304,249.425 289.971,249.092 287,245.5C 285.483,239.92 285.149,234.253 286,228.5C 286.257,226.093 287.424,224.427 289.5,223.5 Z"/>
    </g>
    <g>
        <path style="opacity:0.973" fill="#7a58aa"
              d="M 251.5,237.5 C 255.292,243.483 253.625,247.15 246.5,248.5C 241.578,247.482 239.912,244.649 241.5,240C 242.167,239.333 242.833,239.333 243.5,240C 243.966,242.123 245.133,243.623 247,244.5C 249.157,243.615 249.99,241.948 249.5,239.5C 249.5,238.167 250.167,237.5 251.5,237.5 Z"/>
    </g>
    <g>
        <path style="opacity:0.929" fill="#c0abce"
              d="M 260.5,242.5 C 261.1,243.9 262.1,244.9 263.5,245.5C 264.738,245.81 264.738,246.31 263.5,247C 262.833,247.667 262.167,247.667 261.5,247C 260.62,245.644 260.286,244.144 260.5,242.5 Z"/>
    </g>
    <g>
        <path style="opacity:0.732" fill="#5e306d"
              d="M 363.5,240.5 C 359.934,247.064 355.601,253.064 350.5,258.5C 350.67,257.178 350.337,256.011 349.5,255C 347.702,255.006 346.035,255.339 344.5,256C 344.833,255 345.167,254 345.5,253C 346.449,252.383 347.282,252.549 348,253.5C 348.813,251.564 349.313,249.564 349.5,247.5C 351.757,246.599 353.257,244.932 354,242.5C 355.008,242.982 356.175,243.148 357.5,243C 356.549,243.718 356.383,244.551 357,245.5C 358.017,243.624 358.851,241.624 359.5,239.5C 360.736,240.246 362.07,240.579 363.5,240.5 Z"/>
    </g>
    <g>
        <path style="opacity:1" fill="#59256a"
              d="M 357.5,224.5 C 355.114,233.699 350.614,241.033 344,246.5C 343.217,248.319 343.717,249.652 345.5,250.5C 346.852,249.476 348.185,248.476 349.5,247.5C 349.313,249.564 348.813,251.564 348,253.5C 347.282,252.549 346.449,252.383 345.5,253C 345.167,254 344.833,255 344.5,256C 346.035,255.339 347.702,255.006 349.5,255C 350.337,256.011 350.67,257.178 350.5,258.5C 348.055,261.21 345.722,264.044 343.5,267C 339.606,270.404 335.606,273.571 331.5,276.5C 331.5,275.5 331.5,274.5 331.5,273.5C 330.127,273.657 328.793,273.49 327.5,273C 328.851,271.383 330.518,270.216 332.5,269.5C 331.167,268.167 331.167,266.833 332.5,265.5C 334.046,264.316 335.713,263.316 337.5,262.5C 336.125,260.837 336.458,259.503 338.5,258.5C 337.332,256.783 335.665,256.116 333.5,256.5C 333.451,259.099 332.451,261.266 330.5,263C 327.953,263.067 325.786,263.901 324,265.5C 321.827,262.723 321.327,262.89 322.5,266C 320.923,267.93 319.59,267.763 318.5,265.5C 316.24,266.886 315.406,266.219 316,263.5C 324.188,256.645 331.688,249.145 338.5,241C 338.989,239.862 339.322,238.695 339.5,237.5C 341.265,234.291 343.265,231.291 345.5,228.5C 346.721,227.972 347.887,227.305 349,226.5C 349.005,223.771 350.171,221.771 352.5,220.5C 353.318,223.107 353.818,225.774 354,228.5C 354.5,228 355,227.5 355.5,227C 354.849,225.692 355.515,224.859 357.5,224.5 Z"/>
    </g>
    <g>
        <path style="opacity:0.979" fill="#5c276c"
              d="M 133.5,213.5 C 142.802,231.806 155.136,247.806 170.5,261.5C 174.521,265.681 179.021,269.348 184,272.5C 184.167,272.833 184.333,273.167 184.5,273.5C 183.24,274.382 182.074,275.382 181,276.5C 179.893,275.288 179.393,275.621 179.5,277.5C 174.007,277.194 169.507,274.861 166,270.5C 165.517,269.552 165.351,268.552 165.5,267.5C 164.5,267.5 163.5,267.5 162.5,267.5C 162.372,269.655 162.872,271.655 164,273.5C 167.364,275.255 170.198,277.588 172.5,280.5C 168.6,278.805 165.1,276.472 162,273.5C 161.5,274 161,274.5 160.5,275C 162.107,276.049 162.773,277.549 162.5,279.5C 159.376,279.057 157.043,277.39 155.5,274.5C 154.817,274.863 154.15,275.196 153.5,275.5C 133.562,259.577 119.562,239.577 111.5,215.5C 113.806,217.014 115.139,216.348 115.5,213.5C 115.014,210.181 113.681,207.348 111.5,205C 112.23,202.911 112.563,201.078 112.5,199.5C 116.936,210.042 121.102,220.709 125,231.5C 128.247,235.659 131.247,239.992 134,244.5C 136.868,245.361 139.202,247.028 141,249.5C 143.381,256.762 148.214,261.429 155.5,263.5C 155.649,262.448 155.483,261.448 155,260.5C 152.119,258.716 150.786,256.382 151,253.5C 145.805,248.292 141.305,242.459 137.5,236C 138.167,235.667 138.833,235.333 139.5,235C 138.377,233.956 137.044,233.29 135.5,233C 135.957,232.586 136.291,232.086 136.5,231.5C 134.656,229.018 133.323,226.351 132.5,223.5C 133.5,223.5 134.5,223.5 135.5,223.5C 135.281,224.675 135.614,225.675 136.5,226.5C 136.833,226.167 137.167,225.833 137.5,225.5C 135.172,221.85 133.839,217.85 133.5,213.5 Z"/>
    </g>
    <g>
        <path style="opacity:1" fill="#5e306c"
              d="M 339.5,237.5 C 339.322,238.695 338.989,239.862 338.5,241C 331.688,249.145 324.188,256.645 316,263.5C 315.406,266.219 316.24,266.886 318.5,265.5C 318.881,267.942 318.214,268.609 316.5,267.5C 315.289,268.274 315.289,269.107 316.5,270C 315.167,270.667 313.833,271.333 312.5,272C 312.833,272.333 313.167,272.667 313.5,273C 312.354,273.645 311.354,274.478 310.5,275.5C 304.66,279.705 298.327,282.872 291.5,285C 289.888,285.72 288.388,285.554 287,284.5C 282.496,287.139 277.662,289.139 272.5,290.5C 271.692,290.192 271.025,289.692 270.5,289C 273.204,288.079 275.871,286.412 278.5,284C 270.881,284.686 263.215,285.186 255.5,285.5C 270.503,283.995 284.837,279.829 298.5,273C 314.184,263.482 327.851,251.649 339.5,237.5 Z"/>
    </g>
    <g>
        <path style="opacity:1" fill="#5f2a6e"
              d="M 172.5,280.5 C 176.511,280.962 180.177,282.462 183.5,285C 185.134,285.494 186.801,285.66 188.5,285.5C 188.238,286.978 188.571,288.311 189.5,289.5C 191.453,290.761 193.453,291.927 195.5,293C 202.191,294.45 208.857,296.117 215.5,298C 215.966,299.299 215.966,300.799 215.5,302.5C 218.187,302.664 220.854,302.497 223.5,302C 215.752,300.694 216.086,299.86 224.5,299.5C 226.833,299.667 229.167,299.833 231.5,300C 231.93,300.92 232.264,301.753 232.5,302.5C 233.308,302.192 233.975,301.692 234.5,301C 244.016,300.292 253.516,300.459 263,301.5C 266.467,300.844 269.801,299.844 273,298.5C 274,298.833 275,299.167 276,299.5C 276.483,300.448 276.649,301.448 276.5,302.5C 275.85,302.196 275.183,301.863 274.5,301.5C 268.885,302.289 263.218,302.789 257.5,303C 264.965,304.943 264.298,305.943 255.5,306C 245.506,306.5 235.506,306.666 225.5,306.5C 198.025,303.908 174.025,293.575 153.5,275.5C 154.15,275.196 154.817,274.863 155.5,274.5C 157.043,277.39 159.376,279.057 162.5,279.5C 162.773,277.549 162.107,276.049 160.5,275C 161,274.5 161.5,274 162,273.5C 165.1,276.472 168.6,278.805 172.5,280.5 Z"/>
    </g>
    <g>
        <path style="opacity:0.604" fill="#613070"
              d="M 170.5,261.5 C 188.911,274.92 209.578,282.753 232.5,285C 238.491,285.499 244.491,285.666 250.5,285.5C 252.967,287.463 255.967,288.629 259.5,289C 258.304,289.654 258.304,290.154 259.5,290.5C 262.332,288.227 265.332,288.06 268.5,290C 264.444,290.351 260.777,291.685 257.5,294C 254.167,294.667 250.833,294.667 247.5,294C 251.414,293.103 251.248,292.603 247,292.5C 240.624,292.516 234.29,292.849 228,293.5C 226.118,292.907 225.118,291.573 225,289.5C 224.692,290.308 224.192,290.975 223.5,291.5C 221.217,290.679 218.884,290.012 216.5,289.5C 210.978,290.732 206.145,289.399 202,285.5C 200.667,285.5 199.333,285.5 198,285.5C 195.464,282.684 192.464,280.684 189,279.5C 188.612,280.428 187.945,281.095 187,281.5C 184.159,280.623 181.659,279.29 179.5,277.5C 179.393,275.621 179.893,275.288 181,276.5C 182.074,275.382 183.24,274.382 184.5,273.5C 184.333,273.167 184.167,272.833 184,272.5C 179.021,269.348 174.521,265.681 170.5,261.5 Z"/>
    </g>
    <g>
        <path style="opacity:0.966" fill="#5d276b"
              d="M 329.5,278.5 C 316.02,290.409 300.353,298.409 282.5,302.5C 284.786,300.796 287.452,299.463 290.5,298.5C 286.959,297.8 283.459,297.133 280,296.5C 279.333,297.167 278.667,297.833 278,298.5C 277.682,296.939 276.849,295.772 275.5,295C 275.833,294.667 276.167,294.333 276.5,294C 280.833,293.667 285.167,293.333 289.5,293C 298.464,288.426 307.464,284.092 316.5,280C 317.208,277.232 318.708,276.399 321,277.5C 321.718,274.766 323.218,274.1 325.5,275.5C 325.023,276.478 324.357,277.311 323.5,278C 324.126,278.75 324.626,279.584 325,280.5C 326.049,278.893 327.549,278.227 329.5,278.5 Z"/>
    </g>
    <g>
        <path style="opacity:1" fill="#571b68"
              d="M 331.5,276.5 C 331.167,277.5 330.5,278.167 329.5,278.5C 327.549,278.227 326.049,278.893 325,280.5C 324.626,279.584 324.126,278.75 323.5,278C 324.357,277.311 325.023,276.478 325.5,275.5C 323.218,274.1 321.718,274.766 321,277.5C 318.708,276.399 317.208,277.232 316.5,280C 307.464,284.092 298.464,288.426 289.5,293C 285.167,293.333 280.833,293.667 276.5,294C 276.167,294.333 275.833,294.667 275.5,295C 276.849,295.772 277.682,296.939 278,298.5C 278.667,297.833 279.333,297.167 280,296.5C 283.459,297.133 286.959,297.8 290.5,298.5C 287.452,299.463 284.786,300.796 282.5,302.5C 281.833,302.5 281.167,302.5 280.5,302.5C 279.167,302.5 277.833,302.5 276.5,302.5C 276.649,301.448 276.483,300.448 276,299.5C 275,299.167 274,298.833 273,298.5C 269.801,299.844 266.467,300.844 263,301.5C 253.516,300.459 244.016,300.292 234.5,301C 233.975,301.692 233.308,302.192 232.5,302.5C 232.264,301.753 231.93,300.92 231.5,300C 229.167,299.833 226.833,299.667 224.5,299.5C 216.086,299.86 215.752,300.694 223.5,302C 220.854,302.497 218.187,302.664 215.5,302.5C 215.966,300.799 215.966,299.299 215.5,298C 208.857,296.117 202.191,294.45 195.5,293C 193.453,291.927 191.453,290.761 189.5,289.5C 188.571,288.311 188.238,286.978 188.5,285.5C 186.801,285.66 185.134,285.494 183.5,285C 180.177,282.462 176.511,280.962 172.5,280.5C 170.198,277.588 167.364,275.255 164,273.5C 162.872,271.655 162.372,269.655 162.5,267.5C 163.5,267.5 164.5,267.5 165.5,267.5C 165.351,268.552 165.517,269.552 166,270.5C 169.507,274.861 174.007,277.194 179.5,277.5C 181.659,279.29 184.159,280.623 187,281.5C 187.945,281.095 188.612,280.428 189,279.5C 192.464,280.684 195.464,282.684 198,285.5C 199.333,285.5 200.667,285.5 202,285.5C 206.145,289.399 210.978,290.732 216.5,289.5C 218.884,290.012 221.217,290.679 223.5,291.5C 224.192,290.975 224.692,290.308 225,289.5C 225.118,291.573 226.118,292.907 228,293.5C 234.29,292.849 240.624,292.516 247,292.5C 251.248,292.603 251.414,293.103 247.5,294C 250.833,294.667 254.167,294.667 257.5,294C 260.777,291.685 264.444,290.351 268.5,290C 265.332,288.06 262.332,288.227 259.5,290.5C 258.304,290.154 258.304,289.654 259.5,289C 255.967,288.629 252.967,287.463 250.5,285.5C 252.167,285.5 253.833,285.5 255.5,285.5C 263.215,285.186 270.881,284.686 278.5,284C 275.871,286.412 273.204,288.079 270.5,289C 271.025,289.692 271.692,290.192 272.5,290.5C 277.662,289.139 282.496,287.139 287,284.5C 288.388,285.554 289.888,285.72 291.5,285C 298.327,282.872 304.66,279.705 310.5,275.5C 311.354,274.478 312.354,273.645 313.5,273C 313.167,272.667 312.833,272.333 312.5,272C 313.833,271.333 315.167,270.667 316.5,270C 315.289,269.107 315.289,268.274 316.5,267.5C 318.214,268.609 318.881,267.942 318.5,265.5C 319.59,267.763 320.923,267.93 322.5,266C 321.327,262.89 321.827,262.723 324,265.5C 325.786,263.901 327.953,263.067 330.5,263C 332.451,261.266 333.451,259.099 333.5,256.5C 335.665,256.116 337.332,256.783 338.5,258.5C 336.458,259.503 336.125,260.837 337.5,262.5C 335.713,263.316 334.046,264.316 332.5,265.5C 331.167,266.833 331.167,268.167 332.5,269.5C 330.518,270.216 328.851,271.383 327.5,273C 328.793,273.49 330.127,273.657 331.5,273.5C 331.5,274.5 331.5,275.5 331.5,276.5 Z"/>
    </g>
    <g>
        <path style="opacity:0.778" fill="#683a73"
              d="M 276.5,302.5 C 277.833,302.5 279.167,302.5 280.5,302.5C 274.586,305.188 268.252,306.688 261.5,307C 249.326,307.826 237.326,307.66 225.5,306.5C 235.506,306.666 245.506,306.5 255.5,306C 264.298,305.943 264.965,304.943 257.5,303C 263.218,302.789 268.885,302.289 274.5,301.5C 275.183,301.863 275.85,302.196 276.5,302.5 Z"/>
    </g>
</svg>
