<?xml version="1.0" encoding="UTF-8"?>
<svg version="1.1" xmlns="http://www.w3.org/2000/svg" width="500" height="340">
<path d="M0 0 C165 0 330 0 500 0 C500 112.2 500 224.4 500 340 C335 340 170 340 0 340 C0 227.8 0 115.6 0 0 Z " fill="#FEFEFE" transform="translate(0,0)"/>
<path d="M0 0 C1.28535645 0.03988037 1.28535645 0.03988037 2.59667969 0.08056641 C35.20948257 1.46728611 67.52356963 21.55483031 90 44 C93.22709117 47.51569282 96.15821803 51.16736662 99 55 C99.39396973 55.53012695 99.78793945 56.06025391 100.19384766 56.60644531 C114.35022232 75.94170773 122.73520249 97.38194899 126 121 C126.1340625 121.95519531 126.268125 122.91039062 126.40625 123.89453125 C128.98771087 146.66158199 126.17515197 168.66995997 118 190 C117.54753906 191.21171875 117.09507812 192.4234375 116.62890625 193.671875 C106.44629589 219.17166978 86.83731109 241.99450453 64 257 C63.02289063 257.6496875 62.04578125 258.299375 61.0390625 258.96875 C48.92280649 266.74708719 36.56659586 272.02817679 22.5234375 275.17578125 C19.07810058 275.91226643 19.07810058 275.91226643 16.15551758 277.01318359 C6.75506105 279.95296273 -4.04679038 279.19426624 -13.8125 279.1875 C-15.64083374 279.1862915 -15.64083374 279.1862915 -17.50610352 279.18505859 C-39.25949218 279.0375976 -39.25949218 279.0375976 -49 275 C-50.76547991 274.58093509 -52.53696783 274.18669278 -54.3125 273.8125 C-75.08371439 268.66407934 -93.54022251 256.47234654 -109 242 C-110.35351562 240.75089844 -110.35351562 240.75089844 -111.734375 239.4765625 C-119.44188103 232.08022907 -126.88072624 223.43197385 -132 214 C-132 213.34 -132 212.68 -132 212 C-132.66 212 -133.32 212 -134 212 C-136.5 207 -136.5 207 -139 202 C-139.31501465 201.40985107 -139.6300293 200.81970215 -139.95458984 200.21166992 C-142.65121153 195.06644359 -144.46675856 189.87067962 -146.125 184.3125 C-146.62586013 182.66223009 -147.12841578 181.01247366 -147.6328125 179.36328125 C-147.86661621 178.59604736 -148.10041992 177.82881348 -148.34130859 177.03833008 C-149.00993615 174.87291882 -149.00993615 174.87291882 -150.109375 172.34375 C-158.82264365 149.41409565 -154.3653468 113.67034781 -145.6875 91.5625 C-144.81535314 89.69707478 -143.91789091 87.84334686 -143 86 C-142.44084821 84.78861728 -141.88369246 83.576312 -141.328125 82.36328125 C-123.6941527 44.6598345 -94.0047806 19.93818938 -55.375 5.66015625 C-52.26883988 4.63124071 -49.17864732 3.77508888 -46 3 C-44.82953125 2.70351563 -43.6590625 2.40703125 -42.453125 2.1015625 C-28.52645248 -1.05573756 -14.18506521 -0.46719812 0 0 Z " fill="#FDFCFD" transform="translate(257,28)"/>
<path d="M0 0 C1.28535645 0.03988037 1.28535645 0.03988037 2.59667969 0.08056641 C35.20948257 1.46728611 67.52356963 21.55483031 90 44 C93.22709117 47.51569282 96.15821803 51.16736662 99 55 C99.39396973 55.53012695 99.78793945 56.06025391 100.19384766 56.60644531 C114.35022232 75.94170773 122.73520249 97.38194899 126 121 C126.1340625 121.95519531 126.268125 122.91039062 126.40625 123.89453125 C128.98771087 146.66158199 126.17515197 168.66995997 118 190 C117.54753906 191.21171875 117.09507812 192.4234375 116.62890625 193.671875 C106.44629589 219.17166978 86.83731109 241.99450453 64 257 C63.02289063 257.6496875 62.04578125 258.299375 61.0390625 258.96875 C48.92280649 266.74708719 36.56659586 272.02817679 22.5234375 275.17578125 C19.07810058 275.91226643 19.07810058 275.91226643 16.15551758 277.01318359 C6.75506105 279.95296273 -4.04679038 279.19426624 -13.8125 279.1875 C-15.64083374 279.1862915 -15.64083374 279.1862915 -17.50610352 279.18505859 C-39.25949218 279.0375976 -39.25949218 279.0375976 -49 275 C-50.76547991 274.58093509 -52.53696783 274.18669278 -54.3125 273.8125 C-75.08371439 268.66407934 -93.54022251 256.47234654 -109 242 C-110.35351562 240.75089844 -110.35351562 240.75089844 -111.734375 239.4765625 C-119.44188103 232.08022907 -126.88072624 223.43197385 -132 214 C-132 213.34 -132 212.68 -132 212 C-132.66 212 -133.32 212 -134 212 C-136.5 207 -136.5 207 -139 202 C-139.31501465 201.40985107 -139.6300293 200.81970215 -139.95458984 200.21166992 C-142.65121153 195.06644359 -144.46675856 189.87067962 -146.125 184.3125 C-146.62586013 182.66223009 -147.12841578 181.01247366 -147.6328125 179.36328125 C-147.86661621 178.59604736 -148.10041992 177.82881348 -148.34130859 177.03833008 C-149.00993615 174.87291882 -149.00993615 174.87291882 -150.109375 172.34375 C-158.82264365 149.41409565 -154.3653468 113.67034781 -145.6875 91.5625 C-144.81535314 89.69707478 -143.91789091 87.84334686 -143 86 C-142.44084821 84.78861728 -141.88369246 83.576312 -141.328125 82.36328125 C-123.6941527 44.6598345 -94.0047806 19.93818938 -55.375 5.66015625 C-52.26883988 4.63124071 -49.17864732 3.77508888 -46 3 C-44.82953125 2.70351563 -43.6590625 2.40703125 -42.453125 2.1015625 C-28.52645248 -1.05573756 -14.18506521 -0.46719812 0 0 Z M-60 22 C-60.64251709 22.26876953 -61.28503418 22.53753906 -61.94702148 22.81445312 C-78.67853401 29.90559108 -92.33472716 39.99242249 -105 53 C-105.79470703 53.74443359 -105.79470703 53.74443359 -106.60546875 54.50390625 C-111.52964948 59.18894355 -115.28855277 64.32132644 -119 70 C-119.66257812 70.99128906 -120.32515625 71.98257813 -121.0078125 73.00390625 C-126.19285379 81.037763 -129.71792413 89.06384652 -133 98 C-133.23993179 98.60214828 -133.47986359 99.20429657 -133.72706604 99.82469177 C-135.54388269 104.43501661 -136.8224017 109.00139325 -137.6640625 113.890625 C-137.79019928 114.61977112 -137.91633606 115.34891724 -138.04629517 116.10015869 C-139.23934838 123.57103699 -139.45587082 130.96858684 -139.39111328 138.52197266 C-139.37489908 140.76395485 -139.3911527 143.00416221 -139.41015625 145.24609375 C-139.42698298 157.46606556 -137.15592566 168.50488649 -133 180 C-132.62488281 181.14726562 -132.24976563 182.29453125 -131.86328125 183.4765625 C-126.64264424 198.93588165 -118.04099534 212.98271086 -107 225 C-106.52336914 225.51900879 -106.04673828 226.03801758 -105.55566406 226.57275391 C-98.07109168 234.62634267 -90.36408871 241.1709933 -81 247 C-79.35064453 248.04800781 -79.35064453 248.04800781 -77.66796875 249.1171875 C-51.10530158 265.20657447 -16.92958201 270.69247766 13.34375 263.8984375 C14.5503125 263.60195313 15.756875 263.30546875 17 263 C18.1446875 262.74476563 19.289375 262.48953125 20.46875 262.2265625 C49.62702448 254.93699388 74.95550223 235.32192379 92 211 C92.60585938 210.16210938 93.21171875 209.32421875 93.8359375 208.4609375 C110.59468831 183.96737863 118.08024535 149.63466422 113.1328125 120.375 C111.96753932 114.19714188 110.53136717 108.09567554 109 102 C108.34 102 107.68 102 107 102 C106.773125 100.7625 106.54625 99.525 106.3125 98.25 C102.82616057 83.00022955 94.08527845 68.6305034 83.30078125 57.40625 C81.35097763 55.36706659 79.55311314 53.28178659 77.73828125 51.125 C74.15752976 47.01630186 70.2390603 43.74347706 65.875 40.5 C65.13217773 39.94248047 64.38935547 39.38496094 63.62402344 38.81054688 C53.33606166 31.17968223 43.1853768 25.16709799 31 21 C30.05898438 20.65324219 29.11796875 20.30648437 28.1484375 19.94921875 C25.12119464 18.86925194 22.08144167 17.91423388 19 17 C17.11667969 16.43732422 17.11667969 16.43732422 15.1953125 15.86328125 C-9.38945856 9.15545238 -36.72843708 11.97150782 -60 22 Z " fill="#EEE7EF" transform="translate(257,28)"/>
<path d="M0 0 C1.31097656 -0.00773437 2.62195313 -0.01546875 3.97265625 -0.0234375 C14.75576789 -0.00202119 25.1982148 0.89365143 35.5 4.25 C36.57725342 4.5888623 36.57725342 4.5888623 37.67626953 4.93457031 C49.08588257 8.56606717 59.44498327 12.66298849 69.5 19.25 C70.15532715 19.66846191 70.8106543 20.08692383 71.48583984 20.51806641 C102.21608635 40.31274238 122.44076082 69.33329104 130.25 104.9375 C130.67494907 107.04000963 131.09256962 109.14402541 131.5 111.25 C131.67200928 111.99668945 131.84401855 112.74337891 132.02124023 113.51269531 C135.08229448 131.01424566 133.1771838 151.30057248 128.5 168.25 C128.32871582 168.93336426 128.15743164 169.61672852 127.98095703 170.32080078 C124.5811667 183.87750554 117.96042237 195.88532162 110.8125 207.8125 C110.41675781 208.47378906 110.02101563 209.13507813 109.61328125 209.81640625 C109.24589844 210.28949219 108.87851562 210.76257813 108.5 211.25 C107.84 211.25 107.18 211.25 106.5 211.25 C106.24476563 211.81203125 105.98953125 212.3740625 105.7265625 212.953125 C91.3320679 239.90842063 58.55281378 254.58865504 31.05859375 263.35546875 C20.80030676 265.93411608 10.87164574 266.60727239 0.3125 266.5625 C-0.7103862 266.55976578 -0.7103862 266.55976578 -1.75393677 266.55697632 C-12.31281408 266.509512 -22.25714179 265.93807284 -32.5 263.25 C-33.14855957 263.08371094 -33.79711914 262.91742188 -34.46533203 262.74609375 C-69.36212129 253.57836512 -98.30573576 230.07650869 -116.68945312 199.25585938 C-122.24896301 189.61033573 -126.551697 180.01022994 -129.5 169.25 C-129.69464844 168.6003125 -129.88929688 167.950625 -130.08984375 167.28125 C-133.36447239 156.15179319 -133.89386861 145.08994696 -133.9375 133.5625 C-133.9436734 132.8738385 -133.9498468 132.185177 -133.95620728 131.47564697 C-134.01620142 121.0651903 -132.71037927 111.42623252 -130.5 101.25 C-130.27739502 100.1679126 -130.05479004 99.0858252 -129.82543945 97.97094727 C-126.71635999 83.26976328 -119.0232227 70.07871535 -111.5 57.25 C-110.84 57.25 -110.18 57.25 -109.5 57.25 C-109.28472656 56.55390625 -109.06945312 55.8578125 -108.84765625 55.140625 C-107.14518102 51.48893899 -104.6937037 48.87342548 -101.9375 46 C-101.39593262 45.42789795 -100.85436523 44.8557959 -100.29638672 44.26635742 C-99.20446642 43.11682324 -98.1091381 41.97051567 -97.01025391 40.82763672 C-95.72439559 39.48440742 -94.45949475 38.12116663 -93.19921875 36.75390625 C-84.21576165 27.2629092 -73.16235228 20.0337682 -61.5 14.25 C-60.38367188 13.67507812 -59.26734375 13.10015625 -58.1171875 12.5078125 C-51.38250746 9.12912547 -44.63366474 6.47394798 -37.375 4.4375 C-36.68398193 4.242771 -35.99296387 4.04804199 -35.28100586 3.84741211 C-23.58350318 0.76096752 -12.06495544 -0.07117968 0 0 Z M-47.5 15.25 C-48.14251709 15.51876953 -48.78503418 15.78753906 -49.44702148 16.06445312 C-66.17853401 23.15559108 -79.83472716 33.24242249 -92.5 46.25 C-93.29470703 46.99443359 -93.29470703 46.99443359 -94.10546875 47.75390625 C-99.02964948 52.43894355 -102.78855277 57.57132644 -106.5 63.25 C-107.16257813 64.24128906 -107.82515625 65.23257813 -108.5078125 66.25390625 C-113.69285379 74.287763 -117.21792413 82.31384652 -120.5 91.25 C-120.73993179 91.85214828 -120.97986359 92.45429657 -121.22706604 93.07469177 C-123.04388269 97.68501661 -124.3224017 102.25139325 -125.1640625 107.140625 C-125.29019928 107.86977112 -125.41633606 108.59891724 -125.54629517 109.35015869 C-126.73934838 116.82103699 -126.95587082 124.21858684 -126.89111328 131.77197266 C-126.87489908 134.01395485 -126.8911527 136.25416221 -126.91015625 138.49609375 C-126.92698298 150.71606556 -124.65592566 161.75488649 -120.5 173.25 C-120.12488281 174.39726562 -119.74976562 175.54453125 -119.36328125 176.7265625 C-114.14264424 192.18588165 -105.54099534 206.23271086 -94.5 218.25 C-94.02336914 218.76900879 -93.54673828 219.28801758 -93.05566406 219.82275391 C-85.57109168 227.87634267 -77.86408871 234.4209933 -68.5 240.25 C-66.85064453 241.29800781 -66.85064453 241.29800781 -65.16796875 242.3671875 C-38.60530158 258.45657447 -4.42958201 263.94247766 25.84375 257.1484375 C27.0503125 256.85195313 28.256875 256.55546875 29.5 256.25 C30.6446875 255.99476563 31.789375 255.73953125 32.96875 255.4765625 C62.12702448 248.18699388 87.45550223 228.57192379 104.5 204.25 C105.10585938 203.41210938 105.71171875 202.57421875 106.3359375 201.7109375 C123.09468831 177.21737863 130.58024535 142.88466422 125.6328125 113.625 C124.46753932 107.44714188 123.03136717 101.34567554 121.5 95.25 C120.84 95.25 120.18 95.25 119.5 95.25 C119.273125 94.0125 119.04625 92.775 118.8125 91.5 C115.32616057 76.25022955 106.58527845 61.8805034 95.80078125 50.65625 C93.85097763 48.61706659 92.05311314 46.53178659 90.23828125 44.375 C86.65752976 40.26630186 82.7390603 36.99347706 78.375 33.75 C77.63217773 33.19248047 76.88935547 32.63496094 76.12402344 32.06054688 C65.83606166 24.42968223 55.6853768 18.41709799 43.5 14.25 C42.55898438 13.90324219 41.61796875 13.55648437 40.6484375 13.19921875 C37.62119464 12.11925194 34.58144167 11.16423388 31.5 10.25 C29.61667969 9.68732422 29.61667969 9.68732422 27.6953125 9.11328125 C3.11054144 2.40545238 -24.22843708 5.22150782 -47.5 15.25 Z " fill="#581868" transform="translate(244.5,34.75)"/>
<path d="M0 0 C1.09054687 0.32355469 2.18109375 0.64710937 3.3046875 0.98046875 C6.23524168 1.91291781 9.11269903 2.94211838 12 4 C13.49660156 4.48339844 13.49660156 4.48339844 15.0234375 4.9765625 C28.8098932 9.70821026 41.01484237 18.56177188 52 28 C52.75410156 28.62132812 53.50820313 29.24265625 54.28515625 29.8828125 C62.7151836 37.02592315 69.17058728 45.56734547 75.3125 54.6875 C75.72105225 55.29279541 76.12960449 55.89809082 76.55053711 56.52172852 C80.6683283 62.77078347 83.92056471 69.18553728 86.25 76.3125 C86.58515625 77.31925781 86.9203125 78.32601562 87.265625 79.36328125 C88 82 88 82 88 85 C88.66 85 89.32 85 90 85 C90.45925112 87.12480184 90.91734588 89.24985362 91.375 91.375 C91.63023437 92.55835938 91.88546875 93.74171875 92.1484375 94.9609375 C92.28258057 95.6010376 92.41672363 96.2411377 92.55493164 96.90063477 C92.87080082 98.39057392 93.19943718 99.87783196 93.53686523 101.36303711 C99.71161019 129.68169501 92.06897702 161.1891689 78 186 C77.46890625 186.93714844 76.9378125 187.87429687 76.390625 188.83984375 C71.73587841 196.56450655 66.01062263 203.31268476 60 210 C58.92105469 211.2065625 58.92105469 211.2065625 57.8203125 212.4375 C39.57468565 231.71589818 13.98481697 243.85316928 -12 248 C-13.01835937 248.18433594 -14.03671875 248.36867188 -15.0859375 248.55859375 C-30.18913858 250.26184896 -46.36490438 250.32527667 -61 246 C-62.18722656 245.7215625 -63.37445313 245.443125 -64.59765625 245.15625 C-95.79310507 237.67192309 -121.73750776 217.62721154 -138.87207031 190.76416016 C-139.82749582 189.26980849 -140.8129173 187.79470054 -141.8046875 186.32421875 C-146.49838579 179.08911388 -149.17290595 171.09423952 -152 163 C-152.309375 162.15179688 -152.61875 161.30359375 -152.9375 160.4296875 C-156.98534527 149.00295761 -158.49317455 138.04012393 -158.39111328 125.99951172 C-158.3751144 123.76597093 -158.39100789 121.53426559 -158.41015625 119.30078125 C-158.4317607 105.79558981 -157.0377766 92.22126981 -151.6875 79.6875 C-151.38118652 78.94024658 -151.07487305 78.19299316 -150.75927734 77.4230957 C-149.86391575 75.27047209 -148.94033768 73.1333034 -148 71 C-147.51402344 69.8965625 -147.02804688 68.793125 -146.52734375 67.65625 C-139.87179414 53.5665071 -130.10641787 41.81414371 -119 31 C-118.52328857 30.49629883 -118.04657715 29.99259766 -117.55541992 29.47363281 C-113.081236 24.80665939 -108.28160367 21.05995856 -102.9375 17.4375 C-102.10259033 16.8703125 -101.26768066 16.303125 -100.4074707 15.71875 C-93.5362664 11.15769765 -86.77061949 7.81397581 -79 5 C-77.92105469 4.56429687 -76.84210938 4.12859375 -75.73046875 3.6796875 C-51.63658197 -5.68859909 -24.83998142 -7.42139075 0 0 Z M-58 6 C-59.35282834 6.315687 -60.70701253 6.62562089 -62.0625 6.9296875 C-69.38410249 8.66720212 -76.23546884 10.61773442 -83 14 C-83 14.66 -83 15.32 -83 16 C-84.258125 16.350625 -85.51625 16.70125 -86.8125 17.0625 C-108.98143258 24.61303847 -127.87720069 46.82365716 -138.56640625 66.94921875 C-139.80281801 69.60420952 -140.92047593 72.27772191 -142 75 C-142.62648437 76.46953125 -142.62648437 76.46953125 -143.265625 77.96875 C-144.62653574 81.28084601 -145.83714514 84.613374 -147 88 C-147.39703125 89.12535156 -147.7940625 90.25070313 -148.203125 91.41015625 C-156.82531343 120.76810067 -151.41728862 154.40999957 -137.17089844 180.93945312 C-131.71181551 190.54634635 -124.61782452 199.04330428 -117 207 C-115.97519531 208.11955078 -115.97519531 208.11955078 -114.9296875 209.26171875 C-100.29347343 224.73505946 -81.3718406 233.67006764 -61 239 C-60.05890381 239.26111572 -59.11780762 239.52223145 -58.14819336 239.79125977 C-49.69518504 241.97370097 -41.76750256 242.42393116 -33.0625 242.3125 C-31.80759766 242.31572266 -30.55269531 242.31894531 -29.25976562 242.32226562 C-17.82835824 242.25741494 -6.39677178 241.44723842 4.375 237.375 C5.07778076 237.11702637 5.78056152 236.85905273 6.50463867 236.59326172 C28.6367473 228.21681333 48.79683406 215.12505513 63 196 C63.57878906 195.2471875 64.15757812 194.494375 64.75390625 193.71875 C73.36708639 182.04799083 80.59234408 169.13432864 84 155 C84.26184082 153.91460937 84.52368164 152.82921875 84.79345703 151.7109375 C86.94258429 141.96354449 87.51917211 132.65136259 87.4375 122.6875 C87.43393494 121.53920212 87.43393494 121.53920212 87.43029785 120.3677063 C87.37427663 108.82959426 86.67080221 98.02515248 83 87 C82.566875 85.65228516 82.566875 85.65228516 82.125 84.27734375 C81.21082814 81.76745226 80.15589752 79.40871813 79 77 C78.71608398 76.39945801 78.43216797 75.79891602 78.13964844 75.18017578 C65.91519218 49.456587 48.51309896 30.71306656 23.6875 16.5625 C22.91011475 16.11261719 22.13272949 15.66273437 21.33178711 15.19921875 C16.01830025 12.18972468 16.01830025 12.18972468 10 12 C10 11.34 10 10.68 10 10 C7.00235701 9.17863496 4.00151902 8.36957512 1 7.5625 C0.16082031 7.33240234 -0.67835938 7.10230469 -1.54296875 6.86523438 C-11.35546275 4.24096272 -20.65988237 3.81354386 -30.78100586 3.81469727 C-32.92907476 3.81250858 -35.07663075 3.794295 -37.22460938 3.77539062 C-44.38829668 3.74549218 -51.070088 4.01690923 -58 6 Z " fill="#EBE4ED" transform="translate(276,45)"/>
<path d="M0 0 C0.33 7.26 0.66 14.52 1 22 C4.3 21.01 7.6 20.02 11 19 C17.94333261 18.14731003 19.79986378 19.79993946 27 23 C27.33 15.41 27.66 7.82 28 0 C34.65865209 1.33173042 38.55670669 4.44055042 42.40234375 10.04296875 C45.55494994 16.20233103 45.41354252 22.21101032 45 29 C46.98 29.495 46.98 29.495 49 30 C48.443125 30.86625 48.443125 30.86625 47.875 31.75 C46.70833333 34 46.70833333 34 47.875 36.25 C48.24625 36.8275 48.6175 37.405 49 38 C48.01 39.32 47.02 40.64 46 42 C47.32 42 48.64 42 50 42 C49 45 49 45 47.42456055 45.94799805 C46.75207275 46.21652588 46.07958496 46.48505371 45.38671875 46.76171875 C44.6385791 47.07197998 43.89043945 47.38224121 43.11962891 47.7019043 C42.31702637 48.02715088 41.51442383 48.35239746 40.6875 48.6875 C30.884821 52.85048112 21.50495319 57.24100489 15 66 C11.25913583 64.75304528 9.74204747 62.80733432 7 60 C-0.26198886 53.770172 -9.17421881 50.16134327 -18.0390625 46.76171875 C-20 46 -20 46 -22 45 C-22 44.01 -22 43.02 -22 42 C-20.68 42 -19.36 42 -18 42 C-18.495 41.401875 -18.99 40.80375 -19.5 40.1875 C-21 38 -21 38 -21 35 C-20.34 35 -19.68 35 -19 35 C-19.66 33.35 -20.32 31.7 -21 30 C-20.01 29.34 -19.02 28.68 -18 28 C-17.60128863 25.44582932 -17.60128863 25.44582932 -17.625 22.5 C-17.16087775 15.19664231 -15.31844695 9.29211006 -10.03125 4.046875 C-6.35910904 1.11464304 -4.8488209 0 0 0 Z " fill="#673AA7" transform="translate(230,88)"/>
<path d="M0 0 C1.28535645 0.03988037 1.28535645 0.03988037 2.59667969 0.08056641 C35.20948257 1.46728611 67.52356963 21.55483031 90 44 C93.22709117 47.51569282 96.15821803 51.16736662 99 55 C99.39396973 55.53012695 99.78793945 56.06025391 100.19384766 56.60644531 C114.35022232 75.94170773 122.73520249 97.38194899 126 121 C126.1340625 121.95519531 126.268125 122.91039062 126.40625 123.89453125 C128.98771087 146.66158199 126.17515197 168.66995997 118 190 C117.54753906 191.21171875 117.09507812 192.4234375 116.62890625 193.671875 C106.44629589 219.17166978 86.83731109 241.99450453 64 257 C63.02289063 257.6496875 62.04578125 258.299375 61.0390625 258.96875 C48.92280649 266.74708719 36.56659586 272.02817679 22.5234375 275.17578125 C19.07810058 275.91226643 19.07810058 275.91226643 16.15551758 277.01318359 C6.75506105 279.95296273 -4.04679038 279.19426624 -13.8125 279.1875 C-15.64083374 279.1862915 -15.64083374 279.1862915 -17.50610352 279.18505859 C-39.25949218 279.0375976 -39.25949218 279.0375976 -49 275 C-50.76547991 274.58093509 -52.53696783 274.18669278 -54.3125 273.8125 C-75.08371439 268.66407934 -93.54022251 256.47234654 -109 242 C-110.35351562 240.75089844 -110.35351562 240.75089844 -111.734375 239.4765625 C-119.44188103 232.08022907 -126.88072624 223.43197385 -132 214 C-132 213.34 -132 212.68 -132 212 C-132.66 212 -133.32 212 -134 212 C-136.5 207 -136.5 207 -139 202 C-139.31501465 201.40985107 -139.6300293 200.81970215 -139.95458984 200.21166992 C-142.65121153 195.06644359 -144.46675856 189.87067962 -146.125 184.3125 C-146.62586013 182.66223009 -147.12841578 181.01247366 -147.6328125 179.36328125 C-147.86661621 178.59604736 -148.10041992 177.82881348 -148.34130859 177.03833008 C-149.00993615 174.87291882 -149.00993615 174.87291882 -150.109375 172.34375 C-158.82264365 149.41409565 -154.3653468 113.67034781 -145.6875 91.5625 C-144.81535314 89.69707478 -143.91789091 87.84334686 -143 86 C-142.44084821 84.78861728 -141.88369246 83.576312 -141.328125 82.36328125 C-123.6941527 44.6598345 -94.0047806 19.93818938 -55.375 5.66015625 C-52.26883988 4.63124071 -49.17864732 3.77508888 -46 3 C-44.82953125 2.70351563 -43.6590625 2.40703125 -42.453125 2.1015625 C-28.52645248 -1.05573756 -14.18506521 -0.46719812 0 0 Z M-44 6 C-45.48889901 6.40616278 -46.97842734 6.81003 -48.46875 7.2109375 C-73.67288228 14.3969001 -93.2188024 26.19566281 -111.6640625 44.66796875 C-112.98765374 45.98934663 -114.32496806 47.29813584 -115.703125 48.5625 C-130.30725062 62.13401067 -145.27716421 87.65194101 -146.125 108 C-146.08375 108.66 -146.0425 109.32 -146 110 C-146.66 110 -147.32 110 -148 110 C-149.82695295 119.88113533 -150.51843393 129.60305777 -150.5625 139.625 C-150.56645782 140.3830191 -150.57041565 141.14103821 -150.57449341 141.92202759 C-150.57422127 162.71013369 -145.62702746 182.52239753 -136 201 C-135.49364014 201.99 -135.49364014 201.99 -134.97705078 203 C-121.68621357 228.69359101 -101.64431199 248.59279024 -76 262 C-75.33307129 262.34981934 -74.66614258 262.69963867 -73.97900391 263.06005859 C-63.84829919 268.29271352 -54.14484842 271.61266237 -43 274 C-41.78376953 274.3400708 -40.56753906 274.6801416 -39.31445312 275.03051758 C-34.93710995 276.12692108 -30.78170253 276.30618457 -26.28515625 276.30078125 C-25.47114853 276.30506638 -24.65714081 276.3093515 -23.81846619 276.31376648 C-22.10156171 276.31947818 -20.38463305 276.32003351 -18.66772461 276.31567383 C-16.10030323 276.31254605 -13.53407358 276.33589977 -10.96679688 276.36132812 C26.36968418 276.50547227 59.1437627 261.81040358 85.6875 235.75 C102.3063764 218.87629417 114.33730719 197.29310016 120.125 174.375 C120.38925781 173.35148438 120.65351563 172.32796875 120.92578125 171.2734375 C121.63239263 168.51872916 122.33589419 165.76526717 123 163 C123.18916992 162.22462891 123.37833984 161.44925781 123.57324219 160.65039062 C124.12846051 157.20219265 124.14294079 153.80247906 124.1328125 150.3203125 C124.13376923 149.58932343 124.13472595 148.85833435 124.13571167 148.10519409 C124.1363899 146.56378086 124.13456058 145.02236472 124.13037109 143.48095703 C124.12503324 141.13958204 124.13032022 138.7984002 124.13671875 136.45703125 C124.1360576 134.95312458 124.13477569 133.44921803 124.1328125 131.9453125 C124.13584885 130.90747116 124.13584885 130.90747116 124.13894653 129.84866333 C124.11084871 123.9295373 123.64898233 118.25505647 121.5625 112.6875 C120.47438124 109.59931533 119.71840655 106.66627862 119.1875 103.4375 C118.29972319 98.68528298 116.79727449 94.27190874 115.125 89.75 C114.75797974 88.73957642 114.75797974 88.73957642 114.38354492 87.70874023 C112.73719476 83.37897316 110.6221969 79.8430578 108 76 C107.31283642 74.34167903 106.6449251 72.67519964 106 71 C90.82225396 44.00799735 63.83840333 20.22423759 34 11 C32.71824505 10.57704802 31.43703324 10.15244794 30.15625 9.7265625 C22.50744738 7.21834242 14.9896656 5.13608846 7 4 C5.94264648 3.83177734 4.88529297 3.66355469 3.79589844 3.49023438 C-1.97371309 2.74509803 -7.7332751 2.77569294 -13.54077148 2.75976562 C-15.66495582 2.75010256 -17.7881529 2.71903537 -19.91210938 2.6875 C-28.33869174 2.62167213 -35.90356686 3.51642233 -44 6 Z " fill="#60226F" transform="translate(257,28)"/>
<path d="M0 0 C0.70259949 0.00021149 1.40519897 0.00042297 2.12908936 0.00064087 C13.97477415 0.0361231 25.14465641 1.09464417 36.5625 4.375 C37.75617188 4.70242187 38.94984375 5.02984375 40.1796875 5.3671875 C55.96232574 10.3607705 70.42266909 19.23877992 82.5625 30.375 C83.60857422 31.22771484 83.60857422 31.22771484 84.67578125 32.09765625 C94.17060459 39.841931 101.65525487 49.71314293 107.5625 60.375 C108.2225 61.365 108.8825 62.355 109.5625 63.375 C109.5625 64.365 109.5625 65.355 109.5625 66.375 C110.2225 66.375 110.8825 66.375 111.5625 66.375 C115.16039884 74.55874531 118.24680614 82.73568061 120.5625 91.375 C120.86414063 92.44878906 121.16578125 93.52257812 121.4765625 94.62890625 C125.95003667 113.6725276 125.88915529 136.85159688 119.5625 155.375 C118.91194208 157.83208727 118.26606128 160.29041794 117.625 162.75 C109.58583033 190.14501664 86.72149108 215.47935245 62.03027344 229.07910156 C61.2777832 229.48612305 60.52529297 229.89314453 59.75 230.3125 C59.03231445 230.70276367 58.31462891 231.09302734 57.57519531 231.49511719 C53.56532811 233.59071678 50.13478105 234.92279638 45.5625 235.375 C45.5625 236.035 45.5625 236.695 45.5625 237.375 C42.64763893 238.17384268 39.7308589 238.96411818 36.8125 239.75 C36.00683594 239.97171875 35.20117188 240.1934375 34.37109375 240.421875 C23.52564374 243.3253813 13.04393678 244.74464889 1.8125 244.6875 C0.67651367 244.68331055 -0.45947266 244.67912109 -1.62988281 244.67480469 C-10.58385541 244.55507874 -18.76634881 243.61952365 -27.4375 241.375 C-29.24734375 240.92253906 -29.24734375 240.92253906 -31.09375 240.4609375 C-62.53859076 232.05286051 -88.37634264 211.13728444 -105.1875 183.4375 C-106.29617621 181.43045851 -107.37982997 179.4093826 -108.4375 177.375 C-109.20513672 175.91513672 -109.20513672 175.91513672 -109.98828125 174.42578125 C-123.28186559 146.49894902 -124.3105074 112.74771415 -115.4375 83.375 C-113.9473266 79.28766725 -112.24512346 75.33111306 -110.4375 71.375 C-110.00695312 70.40820312 -109.57640625 69.44140625 -109.1328125 68.4453125 C-96.58174166 41.71224071 -72.14837109 18.54691731 -44.4375 8.375 C-41.46667475 7.30820366 -38.48662978 6.27166811 -35.5 5.25 C-34.77337158 4.99629639 -34.04674316 4.74259277 -33.2980957 4.48120117 C-22.28018812 0.78085653 -11.58220639 -0.0322192 0 0 Z M-24.4375 5.375 C-25.79032834 5.690687 -27.14451253 6.00062089 -28.5 6.3046875 C-35.82160249 8.04220212 -42.67296884 9.99273442 -49.4375 13.375 C-49.4375 14.035 -49.4375 14.695 -49.4375 15.375 C-50.695625 15.725625 -51.95375 16.07625 -53.25 16.4375 C-75.41893258 23.98803847 -94.31470069 46.19865716 -105.00390625 66.32421875 C-106.24031801 68.97920952 -107.35797593 71.65272191 -108.4375 74.375 C-109.06398437 75.84453125 -109.06398437 75.84453125 -109.703125 77.34375 C-111.06403574 80.65584601 -112.27464514 83.988374 -113.4375 87.375 C-113.83453125 88.50035156 -114.2315625 89.62570313 -114.640625 90.78515625 C-123.26281343 120.14310067 -117.85478862 153.78499957 -103.60839844 180.31445312 C-98.14931551 189.92134635 -91.05532452 198.41830428 -83.4375 206.375 C-82.41269531 207.49455078 -82.41269531 207.49455078 -81.3671875 208.63671875 C-66.73097343 224.11005946 -47.8093406 233.04506764 -27.4375 238.375 C-26.49640381 238.63611572 -25.55530762 238.89723145 -24.58569336 239.16625977 C-16.13268504 241.34870097 -8.20500256 241.79893116 0.5 241.6875 C1.75490234 241.69072266 3.00980469 241.69394531 4.30273438 241.69726562 C15.73414176 241.63241494 27.16572822 240.82223842 37.9375 236.75 C38.64028076 236.49202637 39.34306152 236.23405273 40.06713867 235.96826172 C62.1992473 227.59181333 82.35933406 214.50005513 96.5625 195.375 C97.14128906 194.6221875 97.72007812 193.869375 98.31640625 193.09375 C106.92958639 181.42299083 114.15484408 168.50932864 117.5625 154.375 C117.82434082 153.28960937 118.08618164 152.20421875 118.35595703 151.0859375 C120.50508429 141.33854449 121.08167211 132.02636259 121 122.0625 C120.99643494 120.91420212 120.99643494 120.91420212 120.99279785 119.7427063 C120.93677663 108.20459426 120.23330221 97.40015248 116.5625 86.375 C116.129375 85.02728516 116.129375 85.02728516 115.6875 83.65234375 C114.77332814 81.14245226 113.71839752 78.78371813 112.5625 76.375 C112.27858398 75.77445801 111.99466797 75.17391602 111.70214844 74.55517578 C99.47769218 48.831587 82.07559896 30.08806656 57.25 15.9375 C56.47261475 15.48761719 55.69522949 15.03773437 54.89428711 14.57421875 C49.58080025 11.56472468 49.58080025 11.56472468 43.5625 11.375 C43.5625 10.715 43.5625 10.055 43.5625 9.375 C40.56485701 8.55363496 37.56401902 7.74457512 34.5625 6.9375 C33.72332031 6.70740234 32.88414062 6.47730469 32.01953125 6.24023438 C22.20703725 3.61596272 12.90261763 3.18854386 2.78149414 3.18969727 C0.63342524 3.18750858 -1.51413075 3.169295 -3.66210938 3.15039062 C-10.82579668 3.12049218 -17.507588 3.39190923 -24.4375 5.375 Z " fill="#682E76" transform="translate(242.4375,45.625)"/>
<path d="M0 0 C0.66620865 -0.00191345 1.3324173 -0.0038269 2.01881409 -0.00579834 C3.42652769 -0.00715334 4.83425409 -0.00350493 6.24194336 0.00488281 C8.34193909 0.01543917 10.44104891 0.00504494 12.54101562 -0.0078125 C24.67081844 -0.02199982 36.68463189 0.78154415 48.25390625 4.703125 C49.48753906 5.11433594 50.72117187 5.52554688 51.9921875 5.94921875 C52.62060547 6.16449219 53.24902344 6.37976562 53.89648438 6.6015625 C55.3528935 7.07451293 56.82238592 7.50794915 58.29882812 7.9140625 C64.63360225 9.66192691 70.10182643 12.16463448 75.81640625 15.390625 C77.12230713 16.12031494 77.12230713 16.12031494 78.45458984 16.86474609 C89.37321264 23.0758415 98.81707688 30.64005318 107.94140625 39.265625 C108.76382813 40.02359375 109.58625 40.7815625 110.43359375 41.5625 C117.32407876 48.13099973 122.63899164 55.41433039 127.94140625 63.265625 C129.01261719 64.80476563 129.01261719 64.80476563 130.10546875 66.375 C131.77084643 68.99708401 132.85411326 71.37379112 133.94140625 74.265625 C134.88668791 76.12647948 135.84596605 77.98026607 136.81640625 79.828125 C141.74968302 89.67067233 144.37615404 99.54549132 146.328125 110.30859375 C146.63336625 113.14051043 146.63336625 113.14051043 147.94140625 114.265625 C148.82611551 119.19706722 149.10115038 124.03745247 149.109375 129.03515625 C149.1127034 129.75620041 149.1160318 130.47724457 149.11946106 131.22013855 C149.12449319 132.73700326 149.12687054 134.2538789 149.12670898 135.77075195 C149.12889047 138.06155119 149.1470719 140.35186409 149.16601562 142.64257812 C149.19466542 150.36637427 148.98489671 157.7573895 146.94140625 165.265625 C146.28140625 163.945625 145.62140625 162.625625 144.94140625 161.265625 C143.95140625 164.235625 143.95140625 164.235625 142.94140625 167.265625 C141.86329973 163.9736931 142.07798218 161.84413371 142.859375 158.49609375 C144.29309787 151.21394111 144.29318554 143.96736703 144.25390625 136.578125 C144.25208344 135.86841553 144.25026062 135.15870605 144.24838257 134.42749023 C144.20359986 124.08458022 143.77154908 114.29665542 140.94140625 104.265625 C140.77511719 103.63414551 140.60882813 103.00266602 140.4375 102.35205078 C131.47728336 68.56041896 109.43650551 40.66828234 79.50561523 23.00244141 C58.55136152 10.88275597 36.81751932 4.85169273 12.62890625 4.953125 C11.94820068 4.95461548 11.26749512 4.95610596 10.56616211 4.9576416 C0.33686663 4.99786714 -9.15407654 5.63349671 -19.05859375 8.265625 C-20.29738281 8.5440625 -21.53617188 8.8225 -22.8125 9.109375 C-30.42658905 10.92113773 -37.2599115 13.47616806 -44.22485352 16.97949219 C-47.05891214 18.39981286 -48.83694041 19.265625 -52.05859375 19.265625 C-52.05859375 18.605625 -52.05859375 17.945625 -52.05859375 17.265625 C-52.71859375 16.935625 -53.37859375 16.605625 -54.05859375 16.265625 C-41.68652673 10.17611116 -29.29671585 4.702701 -15.5234375 2.72265625 C-12.97556179 2.32366746 -12.97556179 2.32366746 -10.34570312 1.25366211 C-6.73521235 0.16842324 -3.7652402 0.00699812 0 0 Z " fill="#E8E0EA" transform="translate(232.05859375,30.734375)"/>
<path d="M0 0 C0.66 0.66 1.32 1.32 2 2 C2.66 1.67 3.32 1.34 4 1 C3.34 4.63 2.68 8.26 2 12 C1.34 12 0.68 12 0 12 C-2.84534486 43.95488031 -2.17774702 73.86864278 13 103 C13.33757324 103.66 13.67514648 104.32 14.02294922 105 C27.14483118 130.36696998 46.65327497 149.74837292 72 163 C72.66692871 163.34981934 73.33385742 163.69963867 74.02099609 164.06005859 C84.15170081 169.29271352 93.85515158 172.61266237 105 175 C106.21623047 175.3400708 107.43246094 175.6801416 108.68554688 176.03051758 C113.06289005 177.12692108 117.21829747 177.30618457 121.71484375 177.30078125 C122.93585533 177.30720894 122.93585533 177.30720894 124.18153381 177.31376648 C125.89843829 177.31947818 127.61536695 177.32003351 129.33227539 177.31567383 C131.89969677 177.31254605 134.46592642 177.33589977 137.03320312 177.36132812 C158.06713203 177.44266102 178.59577038 173.55402543 197.14453125 163.35546875 C200 162 200 162 204 162 C203 165 203 165 199.8515625 166.8671875 C198.45034484 167.55230251 197.04075978 168.22046372 195.625 168.875 C194.87565186 169.22578613 194.12630371 169.57657227 193.35424805 169.93798828 C185.54858832 173.44171543 177.48096577 175.56265925 169.15551758 177.44091797 C166.85605554 178.00376122 166.85605554 178.00376122 164.11669922 179.0246582 C154.73452205 181.96072258 143.93436736 181.19425318 134.1875 181.1875 C132.35916626 181.1862915 132.35916626 181.1862915 130.49389648 181.18505859 C108.74050782 181.0375976 108.74050782 181.0375976 99 177 C97.23452009 176.58093509 95.46303217 176.18669278 93.6875 175.8125 C72.91628561 170.66407934 54.45977749 158.47234654 39 144 C37.64648438 142.75089844 37.64648438 142.75089844 36.265625 141.4765625 C28.55811897 134.08022907 21.11927376 125.43197385 16 116 C16 115.34 16 114.68 16 114 C15.34 114 14.68 114 14 114 C12.33333333 110.66666667 10.66666667 107.33333333 9 104 C8.68498535 103.40985107 8.3699707 102.81970215 8.04541016 102.21166992 C5.34878847 97.06644359 3.53324144 91.87067962 1.875 86.3125 C1.37413987 84.66223009 0.87158422 83.01247366 0.3671875 81.36328125 C0.13338379 80.59604736 -0.10041992 79.82881348 -0.34130859 79.03833008 C-1.00993615 76.87291882 -1.00993615 76.87291882 -2.109375 74.34375 C-10.21985936 53.0003701 -6.0657778 21.19150457 0 0 Z " fill="#5F226E" transform="translate(109,126)"/>
<path d="M0 0 C0.639375 0.53625 1.27875 1.0725 1.9375 1.625 C1.9375 2.615 1.9375 3.605 1.9375 4.625 C2.5975 4.625 3.2575 4.625 3.9375 4.625 C6.32128799 10.58446997 6.94538207 15.66064096 4.875 21.75 C1.87362866 26.2036478 -1.05834387 29.99754967 -6.53125 31.140625 C-10.76200019 31.31903013 -13.5696046 30.85319232 -17.4375 29.0625 C-21.92709294 24.89359227 -24.26105221 21.22336317 -24.5 15.125 C-24.20513481 9.34564221 -22.3726501 5.17030525 -18.625 0.75 C-13.14869395 -3.79132697 -6.20994583 -2.78813894 0 0 Z " fill="#5B1C6A" transform="translate(265.0625,175.375)"/>
<path d="M0 0 C2.990625 -0.12375 5.98125 -0.2475 9.0625 -0.375 C10.45480835 -0.45693604 10.45480835 -0.45693604 11.87524414 -0.54052734 C17.54729644 -0.65325325 20.5685402 0.46235349 24.77539062 4.2734375 C27.0208299 7.43925619 26.45157752 10.25835768 26 14 C25.34 14 24.68 14 24 14 C23.7525 14.61875 23.505 15.2375 23.25 15.875 C21.79371361 18.35068687 20.62187494 18.95125002 18 20 C18.76116551 21.15227823 19.53432693 22.2966386 20.3125 23.4375 C20.74175781 24.07558594 21.17101562 24.71367187 21.61328125 25.37109375 C23.0034052 27.2885684 23.0034052 27.2885684 26 28 C24.125 31.875 24.125 31.875 23 33 C19.75 33.0625 19.75 33.0625 16 32 C14.40983999 30.03344573 13.28337687 28.06581356 12.140625 25.8125 C11.05789151 23.66680085 11.05789151 23.66680085 8 23 C8.66 25.64 9.32 28.28 10 31 C7.03 31 4.06 31 1 31 C0.67 20.77 0.34 10.54 0 0 Z " fill="#581968" transform="translate(277,174)"/>
<path d="M0 0 C4.62 0 9.24 0 14 0 C14.40992188 2.08183594 14.81984375 4.16367188 15.2421875 6.30859375 C15.64392982 8.31788691 16.04862438 10.32656411 16.45361328 12.33520508 C16.73405514 13.73432724 17.01141092 15.13407159 17.28564453 16.53442383 C17.67977167 18.54418766 18.08484952 20.55147151 18.4921875 22.55859375 C18.85352783 24.37315063 18.85352783 24.37315063 19.22216797 26.22436523 C19.47885254 27.14032471 19.73553711 28.05628418 20 29 C20.66 29.33 21.32 29.66 22 30 C22 30.66 22 31.32 22 32 C18.04 32 14.08 32 10 32 C10.33 30.02 10.66 28.04 11 26 C8.03 25.67 5.06 25.34 2 25 C2 26.98 2 28.96 2 31 C-0.97 31 -3.94 31 -7 31 C-6.01 27.535 -6.01 27.535 -5 24 C-5.66 24 -6.32 24 -7 24 C-7.25 21.6875 -7.25 21.6875 -7 19 C-6.3709375 18.6184375 -5.741875 18.236875 -5.09375 17.84375 C-1.9707641 15.09365794 -1.83370531 11.74392693 -1.25 7.8125 C-1.12496094 7.06291016 -0.99992188 6.31332031 -0.87109375 5.54101562 C-0.56562403 3.69644845 -0.2807827 1.84848611 0 0 Z " fill="#5B1C6A" transform="translate(187,174)"/>
<path d="M0 0 C7.26 0 14.52 0 22 0 C22.33 2.97 22.66 5.94 23 9 C21.68 8.34 20.36 7.68 19 7 C16.18503259 6.54724722 16.18503259 6.54724722 13.25 6.375 C12.26515625 6.30023438 11.2803125 6.22546875 10.265625 6.1484375 C9.51796875 6.09945312 8.7703125 6.05046875 8 6 C8 7.98 8 9.96 8 12 C8.66 11.67 9.32 11.34 10 11 C13.5 10.8125 13.5 10.8125 17 11 C19 13 19 13 19 17 C15.35206816 18.27253436 11.8063457 19.32829194 8 20 C8 21.65 8 23.3 8 25 C9.75070517 24.88529863 11.50057536 24.75780972 13.25 24.625 C14.22453125 24.55539063 15.1990625 24.48578125 16.203125 24.4140625 C18.89633189 24.01534751 20.66963279 23.36492937 23 22 C23.125 28.625 23.125 28.625 22 32 C14.41 32 6.82 32 -1 32 C-0.505 30.515 -0.505 30.515 0 29 C0.08358958 26.78910055 0.10731764 24.57573922 0.09765625 22.36328125 C0.09443359 21.06455078 0.09121094 19.76582031 0.08789062 18.42773438 C0.07953531 17.05598892 0.07107037 15.68424413 0.0625 14.3125 C0.05748335 12.92903805 0.05292073 11.54557437 0.04882812 10.16210938 C0.03702538 6.77472104 0.01908967 3.3873551 0 0 Z " fill="#581967" transform="translate(310,174)"/>
<path d="M0 0 C-0.66 2.97 -1.32 5.94 -2 9 C-2.99 8.67 -3.98 8.34 -5 8 C-6.954862 7.7684012 -6.954862 7.7684012 -9 7.75 C-9.680625 7.72421875 -10.36125 7.6984375 -11.0625 7.671875 C-13.64668501 8.10951924 -14.47903879 8.88469394 -16 11 C-16.43608804 13.17718256 -16.43608804 13.17718256 -16.3125 15.5 C-16.30863281 16.2734375 -16.30476562 17.046875 -16.30078125 17.84375 C-16.11825461 20.29324946 -16.11825461 20.29324946 -14 23 C-12.02252878 23.36297936 -12.02252878 23.36297936 -9.875 23.1875 C-8.59625 23.125625 -7.3175 23.06375 -6 23 C-5.67 22.34 -5.34 21.68 -5 21 C-4.01 21 -3.02 21 -2 21 C-0.56327543 27.22580645 -0.56327543 27.22580645 -2.375 30.4375 C-6.24279282 32.73975763 -9.60937218 32.76226177 -14 32 C-19.11762818 29.34641502 -22.17705942 26.46882174 -24 21 C-24.48768871 15.45953648 -24.74334535 10.60105152 -22.375 5.5 C-15.58099919 -1.6515798 -9.30946598 -2.40244283 0 0 Z " fill="#5B1C6A" transform="translate(238,174)"/>
<path d="M0 0 C0.33 0 0.66 0 1 0 C1.00410889 0.68175293 1.00821777 1.36350586 1.01245117 2.06591797 C1.15053753 15.30674223 1.82261303 28.17079649 4.375 41.1875 C4.58406982 42.25403809 4.79313965 43.32057617 5.00854492 44.41943359 C9.58686398 66.32060274 21.69570225 84.99367024 37 101 C37.60972656 101.67289062 38.21945313 102.34578125 38.84765625 103.0390625 C48.160773 112.96514447 59.9304597 119.94518078 72 126 C71.67 126.66 71.34 127.32 71 128 C66.34501063 127.43361346 62.80540676 125.40724236 58.875 123 C57.88149536 122.39442261 57.88149536 122.39442261 56.86791992 121.77661133 C37.56313241 109.76448433 21.47511142 92.14842418 11 72 C10.48824219 71.02675781 9.97648438 70.05351562 9.44921875 69.05078125 C-0.49538609 48.15940208 -2.85632536 24.84040091 -1 2 C-0.67 1.34 -0.34 0.68 0 0 Z " fill="#61236F" transform="translate(123,151)"/>
<path d="M0 0 C3.3 0 6.6 0 10 0 C9.91895774 4.06330657 9.80612566 8.12513061 9.6875 12.1875 C9.66494141 13.33798828 9.64238281 14.48847656 9.61914062 15.67382812 C9.58369141 16.78564453 9.54824219 17.89746094 9.51171875 19.04296875 C9.48553467 20.06414795 9.45935059 21.08532715 9.43237305 22.13745117 C8.93455098 25.43330874 7.96573459 27.32519789 6 30 C1.75693718 32.82870855 -2.01961899 32.64500016 -7 32 C-10.51701873 29.85547638 -10.88848259 28.42376617 -11.9375 24.4375 C-12 21 -12 21 -10.875 19.0625 C-8.46420662 17.69638375 -6.72705554 17.77888739 -4 18 C-4 20.31 -4 22.62 -4 25 C-2.68 25 -1.36 25 0 25 C0 16.75 0 8.5 0 0 Z " fill="#5D206C" transform="translate(166,174)"/>
<path d="M0 0 C9.96121236 0.90556476 18.10225929 4.23623634 26.8125 9.0625 C27.68616211 9.54493164 28.55982422 10.02736328 29.45996094 10.52441406 C36.72809008 14.64418664 42.83598137 19.34556638 49 25 C49.69738281 25.56847656 50.39476562 26.13695313 51.11328125 26.72265625 C60.60810459 34.466931 68.09275487 44.33814293 74 55 C74.66 55.99 75.32 56.98 76 58 C75.625 60.1875 75.625 60.1875 75 62 C74.67128906 61.48953125 74.34257812 60.9790625 74.00390625 60.453125 C59.74801892 38.66363867 38.71251265 13.04316299 11.98046875 6.23046875 C11.00013672 6.11638672 11.00013672 6.11638672 10 6 C10 5.34 10 4.68 10 4 C8.906875 3.896875 7.81375 3.79375 6.6875 3.6875 C3.14440371 3.02692273 2.06756277 2.7972908 0 0 Z " fill="#622470" transform="translate(276,51)"/>
<path d="M0 0 C0 0.33 0 0.66 0 1 C-1.65 1.33 -3.3 1.66 -5 2 C-5 2.33 -5 2.66 -5 3 C-5.75506836 3.01458252 -6.51013672 3.02916504 -7.28808594 3.04418945 C-10.77585343 3.11958192 -14.26275692 3.2159358 -17.75 3.3125 C-18.93722656 3.33505859 -20.12445313 3.35761719 -21.34765625 3.38085938 C-29.2883224 3.61951328 -36.38550797 4.7702775 -44 7 C-45.48952998 7.40384266 -46.97910831 7.80750708 -48.46875 8.2109375 C-62.48266634 12.20645211 -75.41227579 17.65716088 -88 25 C-88.99 24.34 -89.98 23.68 -91 23 C-77.33138313 13.77307012 -62.01899245 6.99509812 -46 3 C-44.82695312 2.70222656 -43.65390625 2.40445312 -42.4453125 2.09765625 C-28.52686472 -1.04073094 -14.17558967 -0.28209409 0 0 Z " fill="#6B3379" transform="translate(257,28)"/>
<path d="M0 0 C0.66 0 1.32 0 2 0 C2.20496094 0.85464844 2.40992188 1.70929688 2.62109375 2.58984375 C2.89050781 3.69457031 3.15992188 4.79929688 3.4375 5.9375 C3.70433594 7.03964844 3.97117187 8.14179688 4.24609375 9.27734375 C4.72995725 11.89421254 4.72995725 11.89421254 6 13 C6.88470926 17.93144222 7.15974413 22.77182747 7.16796875 27.76953125 C7.17129715 28.49057541 7.17462555 29.21161957 7.17805481 29.95451355 C7.18308694 31.47137826 7.18546429 32.9882539 7.18530273 34.50512695 C7.18748422 36.79592619 7.20566565 39.08623909 7.22460938 41.37695312 C7.25325917 49.10074927 7.04349046 56.4917645 5 64 C4.34 62.68 3.68 61.36 3 60 C2.34 61.98 1.68 63.96 1 66 C-0.07715455 62.71052846 0.1369648 60.59039502 0.921875 57.24609375 C2.24048571 50.55869515 2.30204536 43.94628257 2.26074219 37.1574707 C2.2500327 35.06887676 2.26069187 32.98114595 2.2734375 30.89257812 C2.28000626 23.60588859 1.8574312 16.63506964 0.44091797 9.4753418 C-0.1335777 6.25008619 -0.1484016 3.26483529 0 0 Z " fill="#EDE6EF" transform="translate(374,132)"/>
<path d="M0 0 C0.66 0.66 1.32 1.32 2 2 C2.66 1.67 3.32 1.34 4 1 C3.34 4.63 2.68 8.26 2 12 C1.34 12 0.68 12 0 12 C-0.86977827 21.35701536 -1.24529363 30.66414427 -1.29516602 40.05541992 C-1.30668149 41.55486491 -1.32712689 43.05426904 -1.35668945 44.5534668 C-1.53662275 53.75016907 -0.96509873 62.00441959 1.68083191 70.85945129 C2.68218675 74.24991735 3.34088471 76.63960243 2 80 C1.34 79.01 0.68 78.02 0 77 C-0.66 76.34 -1.32 75.68 -2 75 C-2.59765625 72.4609375 -2.59765625 72.4609375 -3.0625 69.375 C-3.21847656 68.37210937 -3.37445313 67.36921875 -3.53515625 66.3359375 C-3.68855469 65.23507813 -3.84195313 64.13421875 -4 63 C-4.17660156 61.85917969 -4.35320312 60.71835938 -4.53515625 59.54296875 C-5.32378959 53.03887199 -5.33147651 46.4812951 -5.375 39.9375 C-5.38055908 39.23689453 -5.38611816 38.53628906 -5.3918457 37.81445312 C-5.44397347 24.74378849 -3.60508337 12.59478061 0 0 Z " fill="#6A3178" transform="translate(109,126)"/>
<path d="M0 0 C2.32788086 0.20581055 2.32788086 0.20581055 5 1 C6.51391602 3.03442383 6.51391602 3.03442383 7.75390625 5.70703125 C8.21603516 6.68736328 8.67816406 7.66769531 9.15429688 8.67773438 C9.61900391 9.71220703 10.08371094 10.74667969 10.5625 11.8125 C11.26536133 13.30040039 11.26536133 13.30040039 11.98242188 14.81835938 C16.49481201 24.55628663 20.12576846 34.42713729 21.75 45.0625 C21.93320801 46.22543579 21.93320801 46.22543579 22.12011719 47.41186523 C23.00295782 53.33270886 23.34919947 59.01599089 23 65 C22.92183174 66.48176855 22.8437109 67.96353961 22.765625 69.4453125 C22.53607305 73.63204673 22.27468243 77.81599805 22 82 C21.67 82 21.34 82 21 82 C20.97494385 81.2793335 20.9498877 80.55866699 20.92407227 79.81616211 C20.80739924 76.52312536 20.68499821 73.23032499 20.5625 69.9375 C20.52318359 68.80376953 20.48386719 67.67003906 20.44335938 66.50195312 C20.13170504 55.90566266 20.13170504 55.90566266 17.5625 45.6875 C16.47438124 42.59931533 15.71840655 39.66627862 15.1875 36.4375 C14.29972319 31.68528298 12.79727449 27.27190874 11.125 22.75 C10.88031982 22.07638428 10.63563965 21.40276855 10.38354492 20.70874023 C8.74036558 16.38731216 6.66498124 12.80870236 4 9 C3.29289322 7.35008418 2.62056011 5.68437744 2 4 C1.34786461 2.65949948 0.68620031 1.32338632 0 0 Z " fill="#6C307A" transform="translate(360,95)"/>
<path d="M0 0 C0.12375 0.639375 0.2475 1.27875 0.375 1.9375 C0.58125 2.618125 0.7875 3.29875 1 4 C1.66 4.33 2.32 4.66 3 5 C3.35555556 12.11111111 3.35555556 12.11111111 2 15.5 C-0.70180819 17.52635614 -2.75658051 17.43985496 -6.0625 17.43359375 C-8.62304451 16.86056867 -9.48928021 16.14365132 -11 14 C-11.81791688 9.17355357 -11.87793368 4.54516328 -9.4375 0.25 C-6.01117985 -1.50708726 -3.67016478 -0.8469611 0 0 Z " fill="#F8F6F9" transform="translate(260,181)"/>
<path d="M0 0 C1.39603943 0.41597563 2.79181199 0.83284683 4.1875 1.25 C5.09886719 1.52199219 6.01023438 1.79398437 6.94921875 2.07421875 C9.03949577 2.70852817 11.12529307 3.35773629 13.20703125 4.01953125 C14.83705078 4.53580078 14.83705078 4.53580078 16.5 5.0625 C17.5003125 5.38347656 18.500625 5.70445312 19.53125 6.03515625 C28.07706055 8.4122004 36.26724937 9.35453433 45.125 9.625 C46.176875 9.66367187 47.22875 9.70234375 48.3125 9.7421875 C50.87483756 9.83536341 53.43718779 9.92117382 56 10 C56 10.33 56 10.66 56 11 C57.98 11.33 59.96 11.66 62 12 C62 12.33 62 12.66 62 13 C47.67593571 13.31973358 33.93947582 13.62303556 20 10 C18.74703125 9.67515625 17.4940625 9.3503125 16.203125 9.015625 C10.00640116 7.31610158 3.96541966 5.38616786 -2 3 C-1.34 2.01 -0.68 1.02 0 0 Z " fill="#662874" transform="translate(195,277)"/>
<path d="M0 0 C7.26 0 14.52 0 22 0 C22 1.65 22 3.3 22 5 C21.34 5 20.68 5 20 5 C20 4.01 20 3.02 20 2 C14.39 2 8.78 2 3 2 C3 10.91 3 19.82 3 29 C8.61 29 14.22 29 20 29 C20 28.34 20 27.68 20 27 C16.04 27 12.08 27 8 27 C8 26.67 8 26.34 8 26 C14.435 25.505 14.435 25.505 21 25 C21 26.98 21 28.96 21 31 C14.07 31 7.14 31 0 31 C0 20.77 0 10.54 0 0 Z " fill="#551165" transform="translate(310,174)"/>
<path d="M0 0 C0.495 0.99 0.495 0.99 1 2 C-3.67963725 15.15596133 -13.63345177 25.84628835 -23.25 35.625 C-24.09884766 36.49487549 -24.09884766 36.49487549 -24.96484375 37.38232422 C-28.68099699 41.05624845 -32.36231926 43.58699353 -37 46 C-35.60105478 41.25866471 -33.31476866 39.33618347 -29.4375 36.375 C-18.22419328 27.47036478 -9.57532743 15.40055054 -3.04296875 2.71484375 C-2 1 -2 1 0 0 Z " fill="#5E216D" transform="translate(352,221)"/>
<path d="M0 0 C0 0.66 0 1.32 0 2 C-1.48033403 3.0002257 -3.01368493 3.9219877 -4.5625 4.8125 C-16.18175589 12.00894236 -26.27351909 21.52349311 -35 32 C-35.33 31.34 -35.66 30.68 -36 30 C-30.42389002 19.06788965 -13.04740147 0 0 0 Z " fill="#622771" transform="translate(184,63)"/>
<path d="M0 0 C0.99 0 1.98 0 3 0 C5.23456312 7.62571782 7.38911645 15.21406284 9 23 C8.34 23 7.68 23 7 23 C6.67 20.69 6.34 18.38 6 16 C3.36 16 0.72 16 -2 16 C-2.33 17.98 -2.66 19.96 -3 22 C-3.66 22 -4.32 22 -5 22 C-3.38168081 14.65532059 -1.69857238 7.32650887 0 0 Z " fill="#AE95D0" transform="translate(275,225)"/>
<path d="M0 0 C0.33 0 0.66 0 1 0 C1.24228876 5.97645607 0.53070215 10.80858463 -1.25 16.5 C-1.47453857 17.2417749 -1.69907715 17.9835498 -1.93041992 18.74780273 C-3.50110094 23.78963883 -5.36249118 28.40878094 -8 33 C-9.32 33 -10.64 33 -12 33 C-11.71390869 32.30616211 -11.42781738 31.61232422 -11.13305664 30.89746094 C-9.93743996 27.84002099 -8.89390324 24.76006814 -7.87109375 21.640625 C-7.47599609 20.44308594 -7.08089844 19.24554688 -6.67382812 18.01171875 C-6.05215172 16.12017254 -5.43049736 14.22861834 -4.81079102 12.33642578 C-4.20849141 10.49947116 -3.60235471 8.66377603 -2.99609375 6.828125 C-2.63700928 5.7340332 -2.2779248 4.63994141 -1.90795898 3.51269531 C-1 1 -1 1 0 0 Z " fill="#ECE5EE" transform="translate(377,191)"/>
<path d="M0 0 C2 3 2 3 2 6 C2.66 6 3.32 6 4 6 C4.25652344 6.88558594 4.51304688 7.77117187 4.77734375 8.68359375 C7.40846537 17.19708827 10.73307532 24.78457965 15.14038086 32.53881836 C16.14610492 34.33073225 17.08019247 36.16250431 18 38 C17.67 38.66 17.34 39.32 17 40 C16.01 40 15.02 40 14 40 C12.78278643 37.56557286 11.56708392 35.13057118 10.359375 32.69140625 C9.58732744 31.16284082 8.79731709 29.6422798 7.953125 28.15234375 C5.3303084 23.43342372 3.79104078 18.46290643 2.25 13.3125 C2.02699219 12.57507568 1.80398437 11.83765137 1.57421875 11.07788086 C0.48057781 7.28839781 -0.28313502 3.9874848 0 0 Z " fill="#6C337A" transform="translate(109,200)"/>
<path d="M0 0 C6.4 -0.36923077 6.4 -0.36923077 9.4375 1.5 C9.953125 1.995 10.46875 2.49 11 3 C10.875 5.25 10.875 5.25 10 8 C6.35345986 10.99826633 4.78447394 12 0 12 C0 8.04 0 4.08 0 0 Z " fill="#E8DFEA" transform="translate(285,179)"/>
<path d="M0 0 C0.99 0.33 1.98 0.66 3 1 C1.93101651 3.93970459 0.71505763 6.48021343 -0.88671875 9.1796875 C-3.08989471 12.99395465 -4.59956052 16.91816201 -6.0625 21.0625 C-7.78139648 25.88179332 -9.61159896 30.45707695 -12 35 C-12.33 35 -12.66 35 -13 35 C-12.3424079 22.06735531 -6.27200765 11.04379445 0 0 Z " fill="#682D76" transform="translate(123,96)"/>
<path d="M0 0 C0.6953125 1.67578125 0.6953125 1.67578125 1 4 C-0.2578125 6.48046875 -0.2578125 6.48046875 -2.125 9.1875 C-7.44949879 17.16895544 -11.63799513 25.0033501 -15 34 C-15.33 33.34 -15.66 32.68 -16 32 C-16.66 32 -17.32 32 -18 32 C-14.15527287 19.89622942 -7.52834953 10.05763692 0 0 Z " fill="#642872" transform="translate(148,91)"/>
<path d="M0 0 C0.66 0 1.32 0 2 0 C2.33 6.6 2.66 13.2 3 20 C4.65 20 6.3 20 8 20 C9.11823815 17.76352369 9.19396061 16.35108471 9.31640625 13.8671875 C9.35830078 13.06152344 9.40019531 12.25585938 9.44335938 11.42578125 C9.48267578 10.58402344 9.52199219 9.74226562 9.5625 8.875 C9.60568359 8.02550781 9.64886719 7.17601562 9.69335938 6.30078125 C9.79954236 4.20071777 9.90028497 2.10038052 10 0 C10.66 0 11.32 0 12 0 C12.11608726 3.27053517 12.18720711 6.5405418 12.25 9.8125 C12.30027344 11.2056543 12.30027344 11.2056543 12.3515625 12.62695312 C12.36445313 13.51962891 12.37734375 14.41230469 12.390625 15.33203125 C12.41157227 16.15421143 12.43251953 16.9763916 12.45410156 17.82348633 C12 20 12 20 10.13574219 21.76831055 C7.49111638 23.29347484 6.00755545 23.46270084 3 23 C0.84699412 21.37712316 0.08081115 20.51643827 -0.34057617 17.82348633 C-0.32486572 17.00130615 -0.30915527 16.17912598 -0.29296875 15.33203125 C-0.28330078 14.43935547 -0.27363281 13.54667969 -0.26367188 12.62695312 C-0.23853516 11.69818359 -0.21339844 10.76941406 -0.1875 9.8125 C-0.17396484 8.87212891 -0.16042969 7.93175781 -0.14648438 6.96289062 C-0.11113096 4.64134962 -0.06178674 2.32096347 0 0 Z " fill="#916FBF" transform="translate(188,225)"/>
<path d="M0 0 C0.66 0 1.32 0 2 0 C2.33 2.97 2.66 5.94 3 9 C4.98 6.03 6.96 3.06 9 0 C9.33 0.99 9.66 1.98 10 3 C9.505 3.78375 9.01 4.5675 8.5 5.375 C6.78571015 7.82297795 6.78571015 7.82297795 7.125 10.25 C8.37588328 14.18134745 9.64957282 18.101597 11 22 C10.34 22 9.68 22 9 22 C7.35 18.7 5.7 15.4 4 12 C2.33657163 13.66342837 2.63951903 15.7825709 2.4375 18.0625 C2.31181641 19.44115234 2.31181641 19.44115234 2.18359375 20.84765625 C2.12300781 21.55792969 2.06242187 22.26820313 2 23 C1.34 23 0.68 23 0 23 C0 15.41 0 7.82 0 0 Z " fill="#7947B2" transform="translate(304,225)"/>
<path d="M0 0 C0.33 0 0.66 0 1 0 C1.03758423 1.17973389 1.03758423 1.17973389 1.07592773 2.38330078 C1.19232866 5.96401494 1.31485487 9.5444945 1.4375 13.125 C1.47681641 14.3625 1.51613281 15.6 1.55664062 16.875 C1.59853516 18.07382813 1.64042969 19.27265625 1.68359375 20.5078125 C1.72025146 21.60754395 1.75690918 22.70727539 1.79467773 23.84033203 C1.99692244 26.95263997 2.4657818 29.92985445 3 33 C3.06460219 35.12411996 3.08611079 37.25002905 3.0625 39.375 C3.05347656 40.43460938 3.04445313 41.49421875 3.03515625 42.5859375 C3.02355469 43.38257813 3.01195313 44.17921875 3 45 C-2.10425336 37.34361997 -1.28843617 27.40156166 -1.20581055 18.53808594 C-1.18728248 16.47578854 -1.18530333 14.41393537 -1.18554688 12.3515625 C-1.14067963 2.28135927 -1.14067963 2.28135927 0 0 Z " fill="#591A69" transform="translate(123,151)"/>
<path d="M0 0 C0.33 0 0.66 0 1 0 C1.80343974 4.94766604 2.15971357 9.75325886 2.16796875 14.76953125 C2.17129715 15.49057541 2.17462555 16.21161957 2.17805481 16.95451355 C2.18308694 18.47137826 2.18546429 19.9882539 2.18530273 21.50512695 C2.18748422 23.79592619 2.20566565 26.08623909 2.22460938 28.37695312 C2.25325917 36.10074927 2.04349046 43.4917645 0 51 C-0.66 49.68 -1.32 48.36 -2 47 C-2.66 48.98 -3.32 50.96 -4 53 C-5.20220203 49.46905698 -4.79532349 46.87101018 -4.0625 43.25 C-3.86785156 42.26515625 -3.67320312 41.2803125 -3.47265625 40.265625 C-3.31667969 39.51796875 -3.16070312 38.7703125 -3 38 C-2.01 38 -1.02 38 0 38 C0 25.46 0 12.92 0 0 Z " fill="#D1BFD5" transform="translate(379,145)"/>
<path d="M0 0 C0.33 0 0.66 0 1 0 C4.56627547 19.29609763 4.56627547 19.29609763 4 29 C3.92183174 30.48176855 3.8437109 31.96353961 3.765625 33.4453125 C3.53607305 37.63204673 3.27468243 41.81599805 3 46 C2.67 46 2.34 46 2 46 C1.97494385 45.2793335 1.9498877 44.55866699 1.92407227 43.81616211 C1.80739924 40.52312536 1.68499821 37.23032499 1.5625 33.9375 C1.52318359 32.80376953 1.48386719 31.67003906 1.44335938 30.50195312 C1.12693755 22.153285 0.55596742 14.94499843 -2.4765625 7.11328125 C-3.07441742 4.69955353 -2.78859496 3.32898378 -2 1 C-1.67 1.99 -1.34 2.98 -1 4 C-0.67 2.68 -0.34 1.36 0 0 Z " fill="#733C80" transform="translate(379,131)"/>
<path d="M0 0 C3.375 0.6875 3.375 0.6875 4.375 1.6875 C4.41563832 3.35367115 4.417721 5.02138095 4.375 6.6875 C3.715 6.6875 3.055 6.6875 2.375 6.6875 C2.045 5.3675 1.715 4.0475 1.375 2.6875 C-0.275 2.6875 -1.925 2.6875 -3.625 2.6875 C-4.12741322 5.0170947 -4.12741322 5.0170947 -3.625 7.6875 C-0.79166667 9.9375 -0.79166667 9.9375 2.375 11.6875 C4.375 13.6875 4.375 13.6875 4.6875 17.1875 C4.5328125 18.92 4.5328125 18.92 4.375 20.6875 C1.14246204 22.84252531 0.12349077 23.15606135 -3.625 22.6875 C-5.4375 21.4375 -5.4375 21.4375 -6.625 19.6875 C-6.625 18.3675 -6.625 17.0475 -6.625 15.6875 C-5.965 15.6875 -5.305 15.6875 -4.625 15.6875 C-4.295 17.0075 -3.965 18.3275 -3.625 19.6875 C-1.975 19.6875 -0.325 19.6875 1.375 19.6875 C1.705 18.0375 2.035 16.3875 2.375 14.6875 C0.15470298 12.96060231 -1.79926624 11.60828807 -4.375 10.4375 C-6.625 8.6875 -6.625 8.6875 -7.125 5.125 C-6.96 3.990625 -6.795 2.85625 -6.625 1.6875 C-3.625 -0.3125 -3.625 -0.3125 0 0 Z " fill="#865BB9" transform="translate(248.625,225.3125)"/>
<path d="M0 0 C1 1 1 1 1.0625 3.5625 C1.041875 4.366875 1.02125 5.17125 1 6 C0.34 6 -0.32 6 -1 6 C-1.33 4.68 -1.66 3.36 -2 2 C-3.65 2 -5.3 2 -7 2 C-7 7.94 -7 13.88 -7 20 C-5.35 19.67 -3.7 19.34 -2 19 C-1.67 17.35 -1.34 15.7 -1 14 C-0.34 14 0.32 14 1 14 C1.36075949 18.44936709 1.36075949 18.44936709 -0.1875 20.8125 C-2.67237266 22.44052002 -4.08711432 22.50975499 -7 22 C-9.71398663 19.46781152 -10.00450859 17.95716836 -10.3984375 14.21484375 C-10.40636584 12.78906314 -10.39809728 11.36311556 -10.375 9.9375 C-10.38660156 9.21755859 -10.39820313 8.49761719 -10.41015625 7.75585938 C-10.39346478 4.75974034 -10.3514299 2.54513975 -8.703125 -0.01171875 C-5.7899065 -1.70218729 -3.14938599 -0.69986355 0 0 Z " fill="#9270C0" transform="translate(297,226)"/>
<path d="M0 0 C-10.8436736 7.05135059 -23.5727413 6.3765836 -36 6 C-33.06196261 4.35985189 -30.59249539 3.63793946 -27.26171875 3.21875 C-26.35873047 3.09886719 -25.45574219 2.97898437 -24.52539062 2.85546875 C-23.58888672 2.73816406 -22.65238281 2.62085938 -21.6875 2.5 C-14.25491004 1.60177502 -14.25491004 1.60177502 -6.984375 -0.1171875 C-4.04854922 -0.98563858 -2.79461579 -1.11784632 0 0 Z " fill="#5D1D6C" transform="translate(283,283)"/>
<path d="M0 0 C0.66 0.66 1.32 1.32 2 2 C2.66 1.67 3.32 1.34 4 1 C3.34 4.63 2.68 8.26 2 12 C1.34 12 0.68 12 0 12 C-0.33 16.29 -0.66 20.58 -1 25 C-1.66 25 -2.32 25 -3 25 C-3.33 26.98 -3.66 28.96 -4 31 C-4.33 31 -4.66 31 -5 31 C-5.33586537 24.01400022 -4.07207837 17.78967902 -2.5 11 C-2.26152344 9.93910156 -2.02304688 8.87820312 -1.77734375 7.78515625 C-1.19246316 5.18828644 -0.59986124 2.59344265 0 0 Z " fill="#7E4D8A" transform="translate(109,126)"/>
<path d="M0 0 C3.63 0 7.26 0 11 0 C11 0.66 11 1.32 11 2 C8.03 2 5.06 2 2 2 C2 4.97 2 7.94 2 11 C4.97 11 7.94 11 11 11 C11 11.33 11 11.66 11 12 C8.03 12 5.06 12 2 12 C2 15.3 2 18.6 2 22 C1.34 22 0.68 22 0 22 C0 14.74 0 7.48 0 0 Z " fill="#743AB0" transform="translate(172,225)"/>
<path d="M0 0 C-2 3 -2 3 -4.05859375 3.546875 C-4.84363281 3.61390625 -5.62867188 3.6809375 -6.4375 3.75 C-7.21996094 3.82734375 -8.00242187 3.9046875 -8.80859375 3.984375 C-11 4 -11 4 -14 3 C-16.51368055 2.9153183 -18.99869374 2.88398115 -21.51171875 2.90234375 C-22.60405571 2.90446617 -22.60405571 2.90446617 -23.71846008 2.90663147 C-26.04151539 2.91222341 -28.36447388 2.92477438 -30.6875 2.9375 C-32.26367048 2.94251604 -33.83984248 2.94707877 -35.41601562 2.95117188 C-39.27738098 2.9621902 -43.13867408 2.97944926 -47 3 C-47 2.67 -47 2.34 -47 2 C-46.1342334 1.98018066 -45.2684668 1.96036133 -44.37646484 1.93994141 C-41.0922184 1.8607555 -37.80833425 1.77404536 -34.52441406 1.68261719 C-33.11661138 1.64487963 -31.70873016 1.60994305 -30.30078125 1.578125 C-21.61406525 1.37957149 -13.26385397 0.77491395 -4.68212891 -0.68212891 C-2 -1 -2 -1 0 0 Z " fill="#90659A" transform="translate(277,302)"/>
<path d="M0 0 C-0.93625954 3.14731314 -1.53891964 4.67969546 -4.27734375 6.58203125 C-5.15519531 6.98808594 -6.03304687 7.39414062 -6.9375 7.8125 C-7.81277344 8.23144531 -8.68804687 8.65039062 -9.58984375 9.08203125 C-12 10 -12 10 -15 10 C-15 9.34 -15 8.68 -15 8 C-15.66 7.67 -16.32 7.34 -17 7 C-14.54379149 5.82866942 -12.08525083 4.66278278 -9.625 3.5 C-8.92632812 3.16613281 -8.22765625 2.83226562 -7.5078125 2.48828125 C-2.2265625 0 -2.2265625 0 0 0 Z " fill="#DFD3E2" transform="translate(195,40)"/>
<path d="M0 0 C0 3.767623 -1.35997406 4.75068262 -3.92382812 7.33398438 C-4.7349707 8.12772461 -4.7349707 8.12772461 -5.5625 8.9375 C-6.33303711 9.72543945 -6.33303711 9.72543945 -7.11914062 10.52929688 C-10.77167211 14.15460452 -14.44102043 16.61415319 -19 19 C-17.61986179 14.18676798 -14.83237597 11.83062958 -11 8.875 C-7.88719853 6.4302762 -5.22710967 4.3406645 -3 1 C-2.01 0.67 -1.02 0.34 0 0 Z " fill="#5E206D" transform="translate(334,248)"/>
<path d="M0 0 C-0.96099609 0.76183594 -0.96099609 0.76183594 -1.94140625 1.5390625 C-2.80636719 2.22742187 -3.67132813 2.91578125 -4.5625 3.625 C-5.47257813 4.34816406 -6.38265625 5.07132813 -7.3203125 5.81640625 C-9.59600906 7.67080039 -11.76968595 9.58541637 -13.9375 11.5625 C-14.948125 12.366875 -15.95875 13.17125 -17 14 C-17.99 13.67 -18.98 13.34 -20 13 C-7.50529188 -2.82930868 -7.50529188 -2.82930868 0 0 Z " fill="#5F1F6E" transform="translate(169,53)"/>
<path d="M0 0 C3.96 0 7.92 0 12 0 C12 0.66 12 1.32 12 2 C10.35 2 8.7 2 7 2 C7 8.6 7 15.2 7 22 C6.34 22 5.68 22 5 22 C5 15.4 5 8.8 5 2 C3.35 2 1.7 2 0 2 C0 1.34 0 0.68 0 0 Z " fill="#824DB8" transform="translate(257,225)"/>
<path d="M0 0 C0.33 0 0.66 0 1 0 C1.19473863 3.94634365 1.37301774 7.89308077 1.53710938 11.84082031 C1.62313173 13.83175989 1.72158482 15.82215001 1.8203125 17.8125 C2.11839611 25.19006933 1.94532026 31.85310836 0 39 C-0.99 39 -1.98 39 -3 39 C-2.53893231 35.70665935 -2.07641611 32.42258725 -1.48461914 29.14990234 C-0.99750062 25.98375466 -0.79449516 22.92686026 -0.68359375 19.7265625 C-0.64169922 18.57285156 -0.59980469 17.41914063 -0.55664062 16.23046875 C-0.49766602 14.44576172 -0.49766602 14.44576172 -0.4375 12.625 C-0.39431641 11.41199219 -0.35113281 10.19898438 -0.30664062 8.94921875 C-0.20094487 5.96624968 -0.09884679 2.98320258 0 0 Z " fill="#7F4E8B" transform="translate(363,159)"/>
<path d="M0 0 C0.66 0 1.32 0 2 0 C2 6.93 2 13.86 2 21 C4.64 21 7.28 21 10 21 C10 21.66 10 22.32 10 23 C8.52093108 23.02689216 7.04172517 23.04634621 5.5625 23.0625 C4.32693359 23.07990234 4.32693359 23.07990234 3.06640625 23.09765625 C1 23 1 23 0 22 C-0.08700342 20.36527118 -0.10701063 18.72685945 -0.09765625 17.08984375 C-0.09443359 16.10048828 -0.09121094 15.11113281 -0.08789062 14.09179688 C-0.07951172 13.05087891 -0.07113281 12.00996094 -0.0625 10.9375 C-0.05798828 9.89271484 -0.05347656 8.84792969 -0.04882812 7.77148438 C-0.03699913 5.1809334 -0.02051689 2.59049441 0 0 Z " fill="#9677C2" transform="translate(219,225)"/>
<path d="M0 0 C0.66 0 1.32 0 2 0 C2 6.93 2 13.86 2 21 C4.64 21 7.28 21 10 21 C10 21.66 10 22.32 10 23 C8.52093108 23.02689216 7.04172517 23.04634621 5.5625 23.0625 C4.32693359 23.07990234 4.32693359 23.07990234 3.06640625 23.09765625 C1 23 1 23 0 22 C-0.08700342 20.36527118 -0.10701063 18.72685945 -0.09765625 17.08984375 C-0.09443359 16.10048828 -0.09121094 15.11113281 -0.08789062 14.09179688 C-0.07951172 13.05087891 -0.07113281 12.00996094 -0.0625 10.9375 C-0.05798828 9.89271484 -0.05347656 8.84792969 -0.04882812 7.77148438 C-0.03699913 5.1809334 -0.02051689 2.59049441 0 0 Z " fill="#9474C1" transform="translate(205,225)"/>
<path d="M0 0 C8.80171974 0.61358142 17.35954742 2.29549385 26 4 C26 4.33 26 4.66 26 5 C19.44579133 5.87705505 14.3374843 6.27192834 8 4 C6.52465473 3.6102368 5.04530794 3.2353327 3.5625 2.875 C2.386875 2.58625 1.21125 2.2975 0 2 C0 1.34 0 0.68 0 0 Z " fill="#60216F" transform="translate(204,300)"/>
<path d="M0 0 C0.66 0 1.32 0 2 0 C2.05880804 3.16658663 2.09386406 6.33302993 2.125 9.5 C2.14175781 10.386875 2.15851563 11.27375 2.17578125 12.1875 C2.2172205 17.82323788 1.60441286 22.59300232 0 28 C-0.33 28 -0.66 28 -1 28 C-1.1820896 18.63250185 -0.61326035 9.3412692 0 0 Z " fill="#581767" transform="translate(382,160)"/>
<path d="M0 0 C0.33 0 0.66 0 1 0 C1.36517527 6.57315478 0.13619737 11.79485526 -2 18 C-2.99 18 -3.98 18 -5 18 C-4.56699236 11.18012971 -3.09212176 6.08356979 0 0 Z " fill="#F4F0F5" transform="translate(377,191)"/>
<path d="M0 0 C0.125 6.625 0.125 6.625 -1 10 C-8.59 10 -16.18 10 -24 10 C-23.67 9.34 -23.34 8.68 -23 8 C-16.07 8.33 -9.14 8.66 -2 9 C-2.33 7.35 -2.66 5.7 -3 4 C-6.96 4 -10.92 4 -15 4 C-15 3.67 -15 3.34 -15 3 C-13.86111328 2.92652344 -13.86111328 2.92652344 -12.69921875 2.8515625 C-11.70535156 2.77679688 -10.71148437 2.70203125 -9.6875 2.625 C-8.70136719 2.55539063 -7.71523438 2.48578125 -6.69921875 2.4140625 C-4.13355786 2.02048789 -2.3318921 0 0 0 Z " fill="#875792" transform="translate(333,196)"/>
<path d="M0 0 C0.33 1.32 0.66 2.64 1 4 C4.465 3.505 4.465 3.505 8 3 C8.50403768 4.29009643 9.00309926 5.58213789 9.5 6.875 C9.7784375 7.59429687 10.056875 8.31359375 10.34375 9.0546875 C11 11 11 11 11 13 C10.34 13 9.68 13 9 13 C8.67 10.69 8.34 8.38 8 6 C5.36 6 2.72 6 0 6 C-0.33 7.98 -0.66 9.96 -1 12 C-1.66 12 -2.32 12 -3 12 C-2.68950274 10.56206608 -2.3765224 9.1246682 -2.0625 7.6875 C-1.88847656 6.88699219 -1.71445312 6.08648437 -1.53515625 5.26171875 C-1 3 -1 3 0 0 Z " fill="#906DBF" transform="translate(273,235)"/>
<path d="M0 0 C0.33 0 0.66 0 1 0 C1 8.58 1 17.16 1 26 C2.32 26 3.64 26 5 26 C5 24.02 5 22.04 5 20 C5.33 20 5.66 20 6 20 C6.66 22.64 7.32 25.28 8 28 C5.03 28 2.06 28 -1 28 C-0.67 18.76 -0.34 9.52 0 0 Z " fill="#4F055F" transform="translate(279,177)"/>
<path d="M0 0 C-2.35260903 3.52891355 -3.58203916 3.84198976 -7.5 5.1875 C-8.96953125 5.70376953 -8.96953125 5.70376953 -10.46875 6.23046875 C-13 7 -13 7 -15 7 C-14.5625 4.6875 -14.5625 4.6875 -13 2 C-8.65711265 -0.25218229 -4.74794388 -1.58264796 0 0 Z " fill="#F3EFF4" transform="translate(209,37)"/>
<path d="M0 0 C2.48498385 3.72747578 2.16619121 6.4414019 1.9765625 10.73046875 C1.95153656 11.48088943 1.92651062 12.23131012 1.90072632 13.00447083 C1.81860934 15.39927914 1.72198948 17.79325239 1.625 20.1875 C1.56675183 21.81181494 1.50944873 23.43616407 1.453125 25.06054688 C1.31304326 29.04084414 1.15995317 33.02045375 1 37 C0.67 37 0.34 37 0 37 C-0.16821435 32.53450019 -0.32870773 28.06880839 -0.48217773 23.6027832 C-0.5354146 22.08480439 -0.59072853 20.5668969 -0.64819336 19.04907227 C-0.73061847 16.86229831 -0.80547122 14.67537334 -0.87890625 12.48828125 C-0.9260376 11.17384033 -0.97316895 9.85939941 -1.02172852 8.50512695 C-1.00297596 5.48006575 -0.72984472 2.92183626 0 0 Z " fill="#82528D" transform="translate(124,141)"/>
<path d="M0 0 C-3.1664178 2.70972293 -5.96936423 3.76249424 -10 4.75 C-11.546875 5.14445312 -11.546875 5.14445312 -13.125 5.546875 C-15.87430977 5.98019013 -17.41340535 5.92023079 -20 5 C-17.30621211 2.30621211 -14.77425019 1.86327163 -11.125 0.8125 C-9.89007813 0.44769531 -8.65515625 0.08289063 -7.3828125 -0.29296875 C-4.31094495 -0.93501035 -2.85642008 -1.12677877 0 0 Z " fill="#591569" transform="translate(296,297)"/>
<path d="M0 0 C0.33 0 0.66 0 1 0 C1.28773432 4.79077635 0.44169975 8.00617556 -1.5 12.375 C-1.9640625 13.43460938 -2.428125 14.49421875 -2.90625 15.5859375 C-3.2671875 16.38257812 -3.628125 17.17921875 -4 18 C-4.33 17.34 -4.66 16.68 -5 16 C-5.66 16 -6.32 16 -7 16 C-5.35433477 10.31497465 -2.70967216 5.23318364 0 0 Z " fill="#6D367A" transform="translate(137,107)"/>
<path d="M0 0 C0.66 0.33 1.32 0.66 2 1 C1.52541716 5.27124556 -0.91842825 7.20508608 -4 10 C-5.31175986 11.02813611 -6.6369893 12.04084432 -8 13 C-8 12.34 -8 11.68 -8 11 C-8.66 10.67 -9.32 10.34 -10 10 C-6.7 6.7 -3.4 3.4 0 0 Z " fill="#652974" transform="translate(149,64)"/>
<path d="M0 0 C4.29 0 8.58 0 13 0 C13 0.33 13 0.66 13 1 C15.97 1.495 15.97 1.495 19 2 C19 2.33 19 2.66 19 3 C10.42 3 1.84 3 -7 3 C-7 2.67 -7 2.34 -7 2 C-3.535 1.505 -3.535 1.505 0 1 C0 0.67 0 0.34 0 0 Z " fill="#784385" transform="translate(238,287)"/>
<path d="M0 0 C0.66 0 1.32 0 2 0 C2.19532961 1.7699868 2.38098882 3.54104279 2.5625 5.3125 C2.66691406 6.29863281 2.77132813 7.28476563 2.87890625 8.30078125 C3 11 3 11 2 14 C1.93259135 15.56118428 1.91485544 17.1250252 1.9375 18.6875 C1.94652344 19.49574219 1.95554687 20.30398437 1.96484375 21.13671875 C1.97644531 21.75160156 1.98804688 22.36648437 2 23 C1.34 23 0.68 23 0 23 C0 15.41 0 7.82 0 0 Z " fill="#9B7DC5" transform="translate(304,225)"/>
<path d="M0 0 C0.66 0.33 1.32 0.66 2 1 C-4.6 7.6 -11.2 14.2 -18 21 C-18 15.49024931 -12.69527879 11.76941247 -9 8 C-6.39747571 5.58398995 -3.72631653 3.27424874 -1 1 C-0.67 0.67 -0.34 0.34 0 0 Z " fill="#E6DDE8" transform="translate(164,69)"/>
<path d="M0 0 C0.66 0 1.32 0 2 0 C2.66 4.29 3.32 8.58 4 13 C1.03 12.505 1.03 12.505 -2 12 C-1.34 8.04 -0.68 4.08 0 0 Z " fill="#E4DAE6" transform="translate(193,180)"/>
<path d="M0 0 C-0.18359375 1.828125 -0.18359375 1.828125 -1 4 C-3.28515625 5.484375 -3.28515625 5.484375 -6.0625 6.75 C-7.44115234 7.39195313 -7.44115234 7.39195313 -8.84765625 8.046875 C-9.55792969 8.36140625 -10.26820313 8.6759375 -11 9 C-10.11923349 5.39686426 -9.58311266 3.4603521 -6.625 1.125 C-4 0 -4 0 0 0 Z " fill="#F0EAF1" transform="translate(180,48)"/>
<path d="M0 0 C3.58770251 1.42893505 4.96510596 3.01508697 6.8125 6.375 C7.25207031 7.14585938 7.69164062 7.91671875 8.14453125 8.7109375 C9.11623296 11.31101605 8.95272312 12.43992191 8 15 C0 3 0 3 0 0 Z " fill="#5E1F6D" transform="translate(343,98)"/>
<path d="M0 0 C0.66 0.33 1.32 0.66 2 1 C0.61107376 4.33628673 -0.83572224 5.93674362 -3.875 7.875 C-4.55304688 8.32617188 -5.23109375 8.77734375 -5.9296875 9.2421875 C-8 10 -8 10 -10.2578125 9.1328125 C-10.83273437 8.75898438 -11.40765625 8.38515625 -12 8 C-11.21753906 7.50628906 -10.43507813 7.01257813 -9.62890625 6.50390625 C-8.61699219 5.86324219 -7.60507812 5.22257812 -6.5625 4.5625 C-5.55316406 3.92441406 -4.54382813 3.28632813 -3.50390625 2.62890625 C-1.15446165 1.22350458 -1.15446165 1.22350458 0 0 Z " fill="#642673" transform="translate(323,279)"/>
<path d="M0 0 C4.20240011 3.71750779 6.99782679 8.31660979 10 13 C7.01739157 12.65898504 5.39384107 12.3661884 3.1640625 10.29296875 C2.65617188 9.59816406 2.14828125 8.90335938 1.625 8.1875 C1.10164062 7.50042969 0.57828125 6.81335938 0.0390625 6.10546875 C-1 4 -1 4 -0.6640625 1.73828125 C-0.44492188 1.16464844 -0.22578125 0.59101563 0 0 Z " fill="#672B75" transform="translate(142,231)"/>
<path d="M0 0 C2.86724686 0.57344937 3.8614515 0.8614515 6 3 C6.3125 6.5 6.3125 6.5 6 10 C2.76746204 12.15502531 1.74849077 12.46856135 -2 12 C-3.8125 10.75 -3.8125 10.75 -5 9 C-5 7.68 -5 6.36 -5 5 C-4.34 5 -3.68 5 -3 5 C-2.67 6.32 -2.34 7.64 -2 9 C-0.35 9 1.3 9 3 9 C3.85974801 6.70705512 3.85974801 6.70705512 4 4 C2.16641665 1.66545339 2.16641665 1.66545339 0 0 Z " fill="#8256B7" transform="translate(247,236)"/>
<path d="M0 0 C0 0.66 0 1.32 0 2 C-2.97 2 -5.94 2 -9 2 C-9.66 3.32 -10.32 4.64 -11 6 C-11.9793879 7.02019573 -12.97895449 8.02149805 -14 9 C-14.66 9.99 -15.32 10.98 -16 12 C-16.33 11.01 -16.66 10.02 -17 9 C-15.03669312 5.07338625 -13.48458707 3.26921504 -9.625 1.125 C-6.16051684 0.04981557 -3.59394584 -0.26297165 0 0 Z " fill="#632772" transform="translate(259,173)"/>
<path d="M0 0 C3.13220429 2.5627126 4.04560617 5.10900977 5 9 C5.15041492 11.69291219 5.09314515 14.29879075 5 17 C1.21037688 13.21037688 0.08793821 7.67082592 -0.1875 2.4375 C-0.125625 1.633125 -0.06375 0.82875 0 0 Z " fill="#5C1F6B" transform="translate(374,120)"/>
<path d="M0 0 C2.25 0 2.25 0 5 1 C6.76178014 3.48947194 8.08336933 6.0894 9 9 C8.67 9.66 8.34 10.32 8 11 C5.17369103 9.96368671 4.18909471 9.39919994 2.875 6.625 C2.58625 5.75875 2.2975 4.8925 2 4 C1.34786461 2.65949948 0.68620031 1.32338632 0 0 Z " fill="#6C347A" transform="translate(360,95)"/>
<path d="M0 0 C4.67105792 1.55701931 8.08705685 4.08447373 12 7 C11.67 7.99 11.34 8.98 11 10 C7.96147295 8.59023295 5.4060405 6.91129772 2.75 4.875 C2.04359375 4.33617187 1.3371875 3.79734375 0.609375 3.2421875 C0.07828125 2.83226562 -0.4528125 2.42234375 -1 2 C-0.67 1.34 -0.34 0.68 0 0 Z " fill="#672B75" transform="translate(166,260)"/>
<path d="M0 0 C2 3 2 3 2 6 C2.66 6 3.32 6 4 6 C5.19287411 9.87684087 6 12.91621923 6 17 C5.34 17 4.68 17 4 17 C3.32389577 15.10751181 2.65949561 13.2108398 2 11.3125 C1.62875 10.25675781 1.2575 9.20101562 0.875 8.11328125 C0.0608143 5.21637944 -0.17709796 2.98299377 0 0 Z " fill="#5A1C69" transform="translate(109,200)"/>
<path d="M0 0 C1.46300982 0.93018526 2.92025579 1.86944027 4.375 2.8125 C5.18710938 3.33457031 5.99921875 3.85664063 6.8359375 4.39453125 C9 6 9 6 11 9 C10.01 9.33 9.02 9.66 8 10 C5.95703125 8.92578125 5.95703125 8.92578125 3.8125 7.3125 C3.09707031 6.79300781 2.38164062 6.27351563 1.64453125 5.73828125 C0 4 0 4 0 0 Z " fill="#642873" transform="translate(156,273)"/>
<path d="M0 0 C0.98613281 0.03480469 1.97226563 0.06960937 2.98828125 0.10546875 C3.98214844 0.13253906 4.97601563 0.15960938 6 0.1875 C7.13888672 0.23970703 7.13888672 0.23970703 8.30078125 0.29296875 C7.97078125 1.28296875 7.64078125 2.27296875 7.30078125 3.29296875 C3.01078125 3.29296875 -1.27921875 3.29296875 -5.69921875 3.29296875 C-2.69921875 0.29296875 -2.69921875 0.29296875 0 0 Z " fill="#F4F0F5" transform="translate(221.69921875,32.70703125)"/>
<path d="M0 0 C0.66 0 1.32 0 2 0 C3.04167441 4.09725269 2.94409525 7.61495224 2.5625 11.8125 C2.46066406 12.97394531 2.35882813 14.13539063 2.25390625 15.33203125 C2.17011719 16.21246094 2.08632813 17.09289062 2 18 C1.67 18 1.34 18 1 18 C0.22959149 11.93303301 -0.09706112 6.11485027 0 0 Z " fill="#642873" transform="translate(362,141)"/>
<path d="M0 0 C5.26053037 -0.31563182 8.44573816 0.33409063 13 3 C12.67 3.99 12.34 4.98 12 6 C7.76570244 4.68938409 3.92592596 3.05643741 0 1 C0 0.67 0 0.34 0 0 Z " fill="#682F76" transform="translate(299,42)"/>
<path d="M0 0 C0 0.66 0 1.32 0 2 C-2.1171875 3.54296875 -2.1171875 3.54296875 -4.875 5.1875 C-5.77992188 5.73792969 -6.68484375 6.28835937 -7.6171875 6.85546875 C-8.40351563 7.23316406 -9.18984375 7.61085938 -10 8 C-10.66 7.67 -11.32 7.34 -12 7 C-5.18421053 0 -5.18421053 0 0 0 Z " fill="#5C1D6B" transform="translate(184,63)"/>
<path d="M0 0 C2.375 1.5625 2.375 1.5625 4 3 C3.34 3 2.68 3 2 3 C2 3.66 2 4.32 2 5 C-1.91211733 3.84414715 -4.8745041 2.64465038 -8 0 C-5.05854616 -1.47072692 -3.14695372 -0.75526889 0 0 Z " fill="#794485" transform="translate(186,291)"/>
<path d="M0 0 C3.3 0.99 6.6 1.98 10 3 C9.01 4.485 9.01 4.485 8 6 C4.7 5.01 1.4 4.02 -2 3 C-1.34 2.01 -0.68 1.02 0 0 Z " fill="#774283" transform="translate(195,277)"/>
<path d="M0 0 C0.66 0 1.32 0 2 0 C1.32902328 4.19360449 -0.8558394 7.40334352 -3 11 C-3.99 11 -4.98 11 -6 11 C-4.54997977 6.89160936 -2.6020866 3.49655387 0 0 Z " fill="#591668" transform="translate(130,86)"/>
<path d="M0 0 C3.63 0 7.26 0 11 0 C11 0.66 11 1.32 11 2 C8.03 2 5.06 2 2 2 C2 4.64 2 7.28 2 10 C1.67 10 1.34 10 1 10 C0.67 6.7 0.34 3.4 0 0 Z " fill="#7D47B5" transform="translate(172,225)"/>
<path d="M0 0 C1.32 0 2.64 0 4 0 C4.99 2.97 5.98 5.94 7 9 C6.01 9.33 5.02 9.66 4 10 C3.32845067 8.71086513 2.66291141 7.41859796 2 6.125 C1.62875 5.40570313 1.2575 4.68640625 0.875 3.9453125 C0 2 0 2 0 0 Z " fill="#753F82" transform="translate(350,112)"/>
<path d="M0 0 C0.70125 0.4125 1.4025 0.825 2.125 1.25 C-0.78072328 3.72524576 -3.03322926 4.94670231 -6.875 5.25 C-7.535 4.59 -8.195 3.93 -8.875 3.25 C-3.58269231 -0.93461538 -3.58269231 -0.93461538 0 0 Z " fill="#80508C" transform="translate(190.875,58.75)"/>
<path d="M0 0 C4.24822374 0.47202486 6.19989709 2.96655518 9 6 C8.67 6.99 8.34 7.98 8 9 C6.66079162 7.88200014 5.32877444 6.75538103 4 5.625 C2.88625 4.68527344 2.88625 4.68527344 1.75 3.7265625 C1.1725 3.15679687 0.595 2.58703125 0 2 C0 1.34 0 0.68 0 0 Z " fill="#5B1B6B" transform="translate(147,267)"/>
<path d="M0 0 C0.66 0.66 1.32 1.32 2 2 C1.76236269 6.39629018 -0.14143559 8.77258856 -3 12 C-3.88336837 9.5332355 -4.1312406 8.36140628 -3.22265625 5.859375 C-2.83980469 5.16328125 -2.45695312 4.4671875 -2.0625 3.75 C-1.68222656 3.04359375 -1.30195313 2.3371875 -0.91015625 1.609375 C-0.60980469 1.07828125 -0.30945313 0.5471875 0 0 Z " fill="#6A3278" transform="translate(368,225)"/>
<path d="M0 0 C-1 3 -1 3 -2.7421875 3.984375 C-3.44601563 4.23703125 -4.14984375 4.4896875 -4.875 4.75 C-5.57367188 5.01296875 -6.27234375 5.2759375 -6.9921875 5.546875 C-9 6 -9 6 -12 5 C-7.80991378 1.48938722 -5.59849738 0 0 0 Z " fill="#5A186A" transform="translate(197,37)"/>
<path d="M0 0 C0.66 0.33 1.32 0.66 2 1 C0.92456217 1.98783194 -0.16073217 2.96493943 -1.25 3.9375 C-2.15492188 4.75541016 -2.15492188 4.75541016 -3.078125 5.58984375 C-5.08467305 7.06212799 -6.57002449 7.57529189 -9 8 C-6.81981814 3.51851506 -4.65170644 1.78150459 0 0 Z " fill="#5A1969" transform="translate(333,273)"/>
<path d="M0 0 C0.66 0 1.32 0 2 0 C1.69106068 1.6256807 1.3777305 3.25052748 1.0625 4.875 C0.88847656 5.77992188 0.71445312 6.68484375 0.53515625 7.6171875 C0 10 0 10 -1 12 C-1.66 12 -2.32 12 -3 12 C-2.49202991 7.6822542 -1.80317221 3.96697886 0 0 Z " fill="#581668" transform="translate(360,198)"/>
<path d="M0 0 C0.66 0.33 1.32 0.66 2 1 C0.60667426 4.36720387 -0.9789286 5.9859524 -4 8 C-4.66 7.67 -5.32 7.34 -6 7 C-6 6.01 -6 5.02 -6 4 C-3 1.8125 -3 1.8125 0 0 Z " fill="#6C3479" transform="translate(314,264)"/>
<path d="M0 0 C1.60294922 0.15275391 1.60294922 0.15275391 3.23828125 0.30859375 C4.45064453 0.43427734 4.45064453 0.43427734 5.6875 0.5625 C5.6875 0.8925 5.6875 1.2225 5.6875 1.5625 C-5.83414009 2.89507403 -5.83414009 2.89507403 -11.3125 1.5625 C-11.3125 1.2325 -11.3125 0.9025 -11.3125 0.5625 C-7.36602382 -0.42594951 -4.03857036 -0.39941905 0 0 Z " fill="#6D337B" transform="translate(224.3125,303.4375)"/>
<path d="M0 0 C-1.52708963 3.43595166 -3.59927045 6.11912454 -6 9 C-6.66 8.67 -7.32 8.34 -8 8 C-6.48291727 4.46014029 -4.24676932 0 0 0 Z " fill="#571667" transform="translate(351,256)"/>
<path d="M0 0 C0.33 0.99 0.66 1.98 1 3 C-0.375 4.5 -0.375 4.5 -2 6 C-2.66 6 -3.32 6 -4 6 C-5.37310707 7.29233607 -6.71034824 8.62437146 -8 10 C-8.66 9.67 -9.32 9.34 -10 9 C-6.93906776 5.06451569 -4.50884026 2.31883213 0 0 Z " fill="#E4D9E6" transform="translate(354,246)"/>
<path d="M0 0 C0.66 0 1.32 0 2 0 C1.43697042 3.94120709 0.3208055 6.7508723 -2 10 C-2.66 10 -3.32 10 -4 10 C-3.43697042 6.05879291 -2.3208055 3.2491277 0 0 Z " fill="#5B1C6B" transform="translate(363,235)"/>
<path d="M0 0 C2.76223278 2.76223278 2.57856291 5.20706617 3 9 C1.35 9 -0.3 9 -2 9 C-1.34 6.03 -0.68 3.06 0 0 Z " fill="#F9F7FB" transform="translate(276,230)"/>
<path d="M0 0 C0.33 0 0.66 0 1 0 C0 8.57142857 0 8.57142857 -1 12 C-1.66 12 -2.32 12 -3 12 C-2.88541307 10.56163249 -2.75790884 9.12429034 -2.625 7.6875 C-2.55539063 6.88699219 -2.48578125 6.08648437 -2.4140625 5.26171875 C-2 3 -2 3 0 0 Z " fill="#571466" transform="translate(128,132)"/>
<path d="M0 0 C0.33 0 0.66 0 1 0 C1.34833144 4.87664009 0.41685712 7.77050005 -2 12 C-2.33 12 -2.66 12 -3 12 C-2.88541307 10.56163249 -2.75790884 9.12429034 -2.625 7.6875 C-2.55539063 6.88699219 -2.48578125 6.08648437 -2.4140625 5.26171875 C-2 3 -2 3 0 0 Z " fill="#581867" transform="translate(113,119)"/>
<path d="M0 0 C0.66 0.33 1.32 0.66 2 1 C0.71480435 3.86697492 -0.57129254 5.97607712 -3 8 C-3.66 8 -4.32 8 -5 8 C-3.8141763 4.62496331 -2.72426311 2.35277269 0 0 Z " fill="#642973" transform="translate(220,175)"/>
<path d="M0 0 C-1.5625 1.5625 -1.5625 1.5625 -4 3 C-7.75 2.6875 -7.75 2.6875 -11 2 C-6.98764085 -0.6749061 -4.6342454 -1.48957888 0 0 Z " fill="#652A73" transform="translate(296,297)"/>
<path d="M0 0 C2.475 0.495 2.475 0.495 5 1 C4.62875 1.5775 4.2575 2.155 3.875 2.75 C2.70833333 5 2.70833333 5 3.875 7.25 C4.24625 7.8275 4.6175 8.405 5 9 C4.01 9.495 4.01 9.495 3 10 C3 9.01 3 8.02 3 7 C2.34 7 1.68 7 1 7 C1.33 5.02 1.66 3.04 2 1 C1.34 0.67 0.68 0.34 0 0 Z " fill="#7445AF" transform="translate(274,117)"/>
<path d="M0 0 C0.556875 0.226875 1.11375 0.45375 1.6875 0.6875 C0.0375 2.0075 -1.6125 3.3275 -3.3125 4.6875 C-4.6325 4.0275 -5.9525 3.3675 -7.3125 2.6875 C-2.88173077 -0.38942308 -2.88173077 -0.38942308 0 0 Z " fill="#622671" transform="translate(307.3125,270.3125)"/>
<path d="M0 0 C0.33 0.99 0.66 1.98 1 3 C1.99 3.33 2.98 3.66 4 4 C4 4.66 4 5.32 4 6 C6.97 6 9.94 6 13 6 C13 6.33 13 6.66 13 7 C11.39620659 7.05416188 9.79188594 7.09286638 8.1875 7.125 C7.29417969 7.14820313 6.40085938 7.17140625 5.48046875 7.1953125 C3 7 3 7 0 5 C-0.1875 2.375 -0.1875 2.375 0 0 Z " fill="#6C327A" transform="translate(156,199)"/>
<path d="M0 0 C-0.75 2.4375 -0.75 2.4375 -2 5 C-4.125 5.8125 -4.125 5.8125 -6 6 C-5.67 4.35 -5.34 2.7 -5 1 C-2 0 -2 0 0 0 Z " fill="#E5DBE7" transform="translate(195,40)"/>
<path d="M0 0 C3.26460973 1.80412643 4.88929795 2.83394693 7 6 C6.34 6.66 5.68 7.32 5 8 C0 2.25 0 2.25 0 0 Z " fill="#591868" transform="translate(149,243)"/>
<path d="M0 0 C0.9681648 3.8726592 1.07622858 7.03611362 1 11 C-0.32 11.33 -1.64 11.66 -3 12 C-2.01 8.04 -1.02 4.08 0 0 Z " fill="#81508D" transform="translate(377,199)"/>
<path d="M0 0 C0.33 0.99 0.66 1.98 1 3 C2.65 2.67 4.3 2.34 6 2 C6.99 3.485 6.99 3.485 8 5 C5.03 5 2.06 5 -1 5 C-0.67 3.35 -0.34 1.7 0 0 Z " fill="#520E63" transform="translate(200,200)"/>
<path d="M0 0 C0.66 0.33 1.32 0.66 2 1 C0.35 2.65 -1.3 4.3 -3 6 C-4.32 5.34 -5.64 4.68 -7 4 C-4.61426621 2.10786631 -2.92824652 0.97608217 0 0 Z " fill="#70387D" transform="translate(186,40)"/>
<path d="M0 0 C1.258125 -0.020625 2.51625 -0.04125 3.8125 -0.0625 C4.52019531 -0.07410156 5.22789062 -0.08570313 5.95703125 -0.09765625 C8 0 8 0 11 1 C11 1.99 11 2.98 11 4 C7.37 3.01 3.74 2.02 0 1 C0 0.67 0 0.34 0 0 Z " fill="#753B82" transform="translate(193,298)"/>
<path d="M0 0 C0 3 0 3 -1.875 5.1875 C-4 7 -4 7 -6 7 C-4.52307692 2.32307692 -4.52307692 2.32307692 -1.875 0.6875 C-1.25625 0.460625 -0.6375 0.23375 0 0 Z " fill="#551565" transform="translate(334,248)"/>
<path d="M0 0 C0.66 0.33 1.32 0.66 2 1 C1.0409375 1.7425 1.0409375 1.7425 0.0625 2.5 C-2.81515269 5.98806387 -2.70230736 8.53461041 -3 13 C-3.33 13 -3.66 13 -4 13 C-4.63019694 4.80743982 -4.63019694 4.80743982 -2 1.4375 C-1.34 0.963125 -0.68 0.48875 0 0 Z " fill="#E2D7E5" transform="translate(225,181)"/>
<path d="M0 0 C3.25696479 0.41755959 4.63443291 0.63443291 7 3 C7 3.66 7 4.32 7 5 C1.25 3.25 1.25 3.25 -1 1 C-0.67 0.67 -0.34 0.34 0 0 Z " fill="#6A3178" transform="translate(295,58)"/>
<path d="M0 0 C2.25 0.25 2.25 0.25 4 1 C1.6875 3.0625 1.6875 3.0625 -1 5 C-1.99 4.67 -2.98 4.34 -4 4 C-2.25 1.9375 -2.25 1.9375 0 0 Z " fill="#551165" transform="translate(165,52)"/>
<path d="M0 0 C0.99 0.495 0.99 0.495 2 1 C2.6328125 3.06640625 2.6328125 3.06640625 3.125 5.5625 C3.29257813 6.38878906 3.46015625 7.21507812 3.6328125 8.06640625 C3.75398437 8.70449219 3.87515625 9.34257812 4 10 C3.34 10 2.68 10 2 10 C1.34 6.7 0.68 3.4 0 0 Z " fill="#551565" transform="translate(130,208)"/>
<path d="M0 0 C3.96 0.33 7.92 0.66 12 1 C12 1.99 12 2.98 12 4 C11.01 3.67 10.02 3.34 9 3 C7.43881572 2.93259135 5.8749748 2.91485544 4.3125 2.9375 C3.50425781 2.94652344 2.69601563 2.95554688 1.86328125 2.96484375 C1.24839844 2.97644531 0.63351563 2.98804688 0 3 C0 2.01 0 1.02 0 0 Z " fill="#764183" transform="translate(224,179)"/>
<path d="M0 0 C0.66 0 1.32 0 2 0 C2.33 2.64 2.66 5.28 3 8 C2.01 7.67 1.02 7.34 0 7 C0 4.69 0 2.38 0 0 Z " fill="#F8F6F9" transform="translate(374,132)"/>
<path d="M0 0 C0.99 0.33 1.98 0.66 3 1 C3.33 3.31 3.66 5.62 4 8 C3.34 8 2.68 8 2 8 C0.74335022 5.09399739 0 3.20395416 0 0 Z " fill="#5B1C6A" transform="translate(355,120)"/>
<path d="M0 0 C0.66 0.33 1.32 0.66 2 1 C1.6875 2.875 1.6875 2.875 1 5 C0.01 5.66 -0.98 6.32 -2 7 C-2 6.34 -2 5.68 -2 5 C-2.66 4.67 -3.32 4.34 -4 4 C-2.68 2.68 -1.36 1.36 0 0 Z " fill="#6E357C" transform="translate(149,64)"/>
<path d="M0 0 C3.14624993 -0.26218749 4.61837017 -0.24754367 7.3125 1.5 C8.1478125 2.2425 8.1478125 2.2425 9 3 C6.36 3 3.72 3 1 3 C0.67 2.01 0.34 1.02 0 0 Z " fill="#5C226B" transform="translate(202,281)"/>
<path d="M0 0 C0.99 0.33 1.98 0.66 3 1 C3.33 3.31 3.66 5.62 4 8 C1.10067643 5.60490662 0.49831724 3.68754757 0 0 Z " fill="#561567" transform="translate(367,105)"/>
<path d="M0 0 C0.33 1.32 0.66 2.64 1 4 C-0.65 5.32 -2.3 6.64 -4 8 C-2.25 2.25 -2.25 2.25 0 0 Z " fill="#581868" transform="translate(152,87)"/>
<path d="M0 0 C2.62187494 1.04874998 3.79371361 1.64931313 5.25 4.125 C5.4975 4.74375 5.745 5.3625 6 6 C4.68 6 3.36 6 2 6 C0 3 0 3 0 0 Z " fill="#652973" transform="translate(352,81)"/>
<path d="M0 0 C3.36720387 1.39332574 4.9859524 2.9789286 7 6 C4 6 4 6 1.8125 4.125 C0 2 0 2 0 0 Z " fill="#5F1F6E" transform="translate(340,77)"/>
<path d="M0 0 C2.475 0.495 2.475 0.495 5 1 C5 1.99 5 2.98 5 4 C3.35 3.67 1.7 3.34 0 3 C0 2.01 0 1.02 0 0 Z " fill="#672A75" transform="translate(189,275)"/>
<path d="M0 0 C1.875 0.3125 1.875 0.3125 4 1 C4.66 1.99 5.32 2.98 6 4 C4.68 4 3.36 4 2 4 C1.34 2.68 0.68 1.36 0 0 Z " fill="#5D1E6D" transform="translate(161,256)"/>
<path d="M0 0 C0.6875 1.8125 0.6875 1.8125 1 4 C-0.4375 5.75 -0.4375 5.75 -2 7 C-2.99 6.67 -3.98 6.34 -5 6 C-3.35 4.02 -1.7 2.04 0 0 Z " fill="#6C327A" transform="translate(337,242)"/>
<path d="M0 0 C1.37562854 1.28965176 2.70766393 2.62689293 4 4 C4 4.66 4 5.32 4 6 C3.01 6.33 2.02 6.66 1 7 C-0.0625 5.1875 -0.0625 5.1875 -1 3 C-0.67 2.01 -0.34 1.02 0 0 Z " fill="#6E367C" transform="translate(142,231)"/>
<path d="M0 0 C1.99954746 -0.04254356 4.00041636 -0.04080783 6 0 C7 1 7 1 7.0625 3.5625 C7.041875 4.366875 7.02125 5.17125 7 6 C6.34 6 5.68 6 5 6 C4.87625 5.071875 4.87625 5.071875 4.75 4.125 C4.18741541 1.81562433 4.18741541 1.81562433 1.9375 0.75 C1.298125 0.5025 0.65875 0.255 0 0 Z " fill="#A282CA" transform="translate(291,226)"/>
<path d="M0 0 C1.99954746 -0.04254356 4.00041636 -0.04080783 6 0 C7 1 7 1 7.0625 3.5625 C7.041875 4.366875 7.02125 5.17125 7 6 C6.34 6 5.68 6 5 6 C4.87625 5.071875 4.87625 5.071875 4.75 4.125 C4.18741541 1.81562433 4.18741541 1.81562433 1.9375 0.75 C1.298125 0.5025 0.65875 0.255 0 0 Z " fill="#926DC1" transform="translate(246,226)"/>
<path d="M0 0 C0.99 0 1.98 0 3 0 C3 2.97 3 5.94 3 9 C0.23776722 6.23776722 0.42143709 3.79293383 0 0 Z " fill="#71377F" transform="translate(128,205)"/>
</svg>
