<?xml version="1.0" encoding="UTF-8"?>
<svg version="1.1" xmlns="http://www.w3.org/2000/svg" width="534" height="467">
    <path d="M0 0 C1.0830542 0.3079248 1.0830542 0.3079248 2.18798828 0.62207031 C20.45294981 5.88680195 37.5658076 13.46986265 54 23 C54 23.66 54 24.32 54 25 C54.78375 25.144375 55.5675 25.28875 56.375 25.4375 C59 26 59 26 61 27 C61 27.66 61 28.32 61 29 C61.72574219 29.268125 62.45148438 29.53625 63.19921875 29.8125 C65.96864024 30.98670381 68.30919434 32.3394324 70.8125 34 C71.60269531 34.515625 72.39289063 35.03125 73.20703125 35.5625 C74.09455078 36.2740625 74.09455078 36.2740625 75 37 C75 37.66 75 38.32 75 39 C75.67675781 39.19464844 76.35351562 39.38929687 77.05078125 39.58984375 C81.13866732 41.54444888 83.95834886 44.42782769 87.1875 47.5625 C88.4291564 48.75321665 89.67256494 49.94210968 90.91796875 51.12890625 C91.46219482 51.65556885 92.0064209 52.18223145 92.56713867 52.72485352 C93.99246623 54.10478928 93.99246623 54.10478928 96 55 C96 55.66 96 56.32 96 57 C96.66 57 97.32 57 98 57 C98.2475 57.78375 98.495 58.5675 98.75 59.375 C99.69581188 62.08968644 99.69581188 62.08968644 101.75 62.7890625 C104.97954389 64.52718508 106.97647957 67.19775389 109.25 70 C109.70890625 70.5465625 110.1678125 71.093125 110.640625 71.65625 C114 75.73549107 114 75.73549107 114 78 C114.66 78 115.32 78 116 78 C117.80473604 80.33947264 119.47882674 82.67674502 121.125 85.125 C121.61782471 85.85203125 122.11064941 86.5790625 122.6184082 87.328125 C127.10754813 94.02646149 131.20790928 100.88063049 135 108 C135.3309668 108.61810547 135.66193359 109.23621094 136.00292969 109.87304688 C162.74375994 160.28399004 168.30978329 220.55263498 152.125 275.25 C145.62949004 296.37627254 137.11088744 317.78702155 123.296875 335.27734375 C122.02841849 336.96225135 121.00946677 338.65068998 120 340.5 C116.54755764 346.77456329 112.11344609 352.03265237 107 357 C106.67 357.66 106.34 358.32 106 359 C105.34 359 104.68 359 104 359 C104 359.66 104 360.32 104 361 C103.34 361 102.68 361 102 361 C101.64228516 361.84498047 101.64228516 361.84498047 101.27734375 362.70703125 C96.68735996 370.94654343 84.97177143 382.00940952 76 385 C75.67 385.99 75.34 386.98 75 388 C70.66666667 391 70.66666667 391 68 391 C68 391.66 68 392.32 68 393 C66.21166992 394.32861328 66.21166992 394.32861328 63.73046875 395.8203125 C62.39725586 396.62275391 62.39725586 396.62275391 61.03710938 397.44140625 C60.09673828 397.99699219 59.15636719 398.55257813 58.1875 399.125 C57.25873047 399.68832031 56.32996094 400.25164062 55.37304688 400.83203125 C48.38438257 405 48.38438257 405 45 405 C45 405.66 45 406.32 45 407 C38.45878592 410.39586433 31.87916498 413.36265249 25 416 C24.01257813 416.39058594 23.02515625 416.78117187 22.0078125 417.18359375 C-0.94401862 426.19036367 -0.94401862 426.19036367 -9.7265625 426.76171875 C-12.56781975 427.05951375 -15.22912106 427.74306985 -18 428.4375 C-31.69649696 431.62345824 -45.06558421 432.19775498 -59.0625 432.25 C-59.7784433 432.25526703 -60.4943866 432.26053406 -61.23202515 432.26596069 C-75.25789389 432.34559273 -88.72118642 430.94517152 -102.42578125 427.78125 C-104.41522251 427.34639945 -106.41093808 426.93311274 -108.42089844 426.60595703 C-115.77676511 425.40562177 -122.60319329 423.35217661 -129.625 420.875 C-130.76219482 420.47684082 -131.89938965 420.07868164 -133.07104492 419.66845703 C-142.36182615 416.35205923 -151.24426536 412.53210741 -160 408 C-160.62245605 407.68256836 -161.24491211 407.36513672 -161.88623047 407.03808594 C-171.79525007 401.96520901 -171.79525007 401.96520901 -175.671875 398.859375 C-177.94072264 396.8281276 -177.94072264 396.8281276 -181 396 C-181 395.34 -181 394.68 -181 394 C-181.78375 393.690625 -182.5675 393.38125 -183.375 393.0625 C-186 392 -186 392 -188 391 C-188 390.34 -188 389.68 -188 389 C-189.0209375 388.690625 -189.0209375 388.690625 -190.0625 388.375 C-193.99868692 386.53252952 -196.79411264 383.89521374 -200 381 C-201.37423457 379.81161429 -202.74924295 378.62412285 -204.125 377.4375 C-207.21002471 374.7388464 -210.10156037 371.89843963 -213 369 C-213.86625 368.319375 -214.7325 367.63875 -215.625 366.9375 C-217.8780326 365.09949972 -219.44929607 363.44847989 -221 361 C-221 360.34 -221 359.68 -221 359 C-221.928125 358.6596875 -221.928125 358.6596875 -222.875 358.3125 C-225.61410209 356.62070165 -226.05024472 355.00755839 -227 352 C-227.66 352 -228.32 352 -229 352 C-229 351.34 -229 350.68 -229 350 C-229.66 350 -230.32 350 -231 350 C-232.32519531 348.41455078 -232.32519531 348.41455078 -233.828125 346.1953125 C-234.37782959 345.38892334 -234.92753418 344.58253418 -235.49389648 343.75170898 C-236.07341064 342.88489502 -236.6529248 342.01808105 -237.25 341.125 C-237.84047119 340.25109619 -238.43094238 339.37719238 -239.03930664 338.47680664 C-242.41251443 333.45696852 -245.71914885 328.4163183 -248.7421875 323.17578125 C-249.63337579 321.63419156 -250.55899322 320.11227242 -251.5078125 318.60546875 C-254.92448922 313.1542383 -257.53041817 307.65564319 -259.91015625 301.6796875 C-260.99872557 298.88397355 -260.99872557 298.88397355 -262.625 295.875 C-264.19755141 292.58693795 -265.1864446 289.31488633 -266.1875 285.81640625 C-267.05248529 282.81806783 -267.99392133 279.84948432 -268.9375 276.875 C-275.5376179 255.18529956 -278.26917399 234.14545008 -278.3125 211.5 C-278.31608521 210.74835571 -278.31967041 209.99671143 -278.32336426 209.22229004 C-278.40100414 179.00385614 -272.3578212 145.84103074 -258 119 C-256.99592165 116.98118995 -255.99609513 114.96026095 -255 112.9375 C-251.47090824 105.89736811 -247.95697601 99.00994128 -243.2109375 92.703125 C-241.67539872 90.543464 -240.36224654 88.27267564 -239 86 C-237.87157164 84.30081205 -236.7254323 82.61326214 -235.5625 80.9375 C-234.98628906 80.10089844 -234.41007812 79.26429687 -233.81640625 78.40234375 C-232.03033882 76.04012553 -230.09909041 74.08297455 -228 72 C-225.89460026 69.37818146 -223.84921393 66.71633215 -221.8046875 64.046875 C-221.20914063 63.37140625 -220.61359375 62.6959375 -220 62 C-219.34 62 -218.68 62 -218 62 C-217.731875 61.360625 -217.46375 60.72125 -217.1875 60.0625 C-216 58 -216 58 -213 57 C-213 56.34 -213 55.68 -213 55 C-212.34 55 -211.68 55 -211 55 C-211 54.34 -211 53.68 -211 53 C-210.34 53 -209.68 53 -209 53 C-208.67 52.01 -208.34 51.02 -208 50 C-203.54285714 46 -203.54285714 46 -201 46 C-201 45.34 -201 44.68 -201 44 C-198.9102773 42.20460444 -196.82157918 40.52938558 -194.625 38.875 C-194.02171875 38.40707031 -193.4184375 37.93914063 -192.796875 37.45703125 C-188.26141126 34 -188.26141126 34 -186 34 C-186 33.34 -186 32.68 -186 32 C-184.35 31.67 -182.7 31.34 -181 31 C-181 30.34 -181 29.68 -181 29 C-178.88169452 27.54154513 -176.78201859 26.22682977 -174.5625 24.9375 C-173.89017334 24.54264404 -173.21784668 24.14778809 -172.52514648 23.7409668 C-170.35794793 22.47970169 -168.18143427 21.23646783 -166 20 C-165.30003906 19.60264648 -164.60007812 19.20529297 -163.87890625 18.79589844 C-153.89851928 13.18773872 -143.8528618 8.63558743 -133 5 C-132.36271973 4.7839209 -131.72543945 4.5678418 -131.06884766 4.34521484 C-126.41140871 2.78170514 -121.72274668 1.35269318 -117 0 C-116.23171875 -0.22075195 -115.4634375 -0.44150391 -114.671875 -0.66894531 C-78.29698349 -10.92138449 -36.26126708 -10.39940044 0 0 Z "
          fill="#02507A" transform="translate(327,23)"/>
    <path d="M0 0 C0.96389648 0.00418945 1.92779297 0.00837891 2.92089844 0.01269531 C23.91819225 0.34286353 42.25895647 8.49581513 57.25 23.21484375 C71.01343651 38.23788047 77.91491821 56.22558094 77.875 76.4375 C77.87137451 78.35248291 77.87137451 78.35248291 77.86767578 80.30615234 C77.66540069 90.73059109 75.89281273 99.00446218 71.3125 108.3125 C70.61060547 109.83617187 70.61060547 109.83617187 69.89453125 111.390625 C61.0796797 129.06971102 45.70059186 141.92348801 27.3125 148.6875 C25.65047312 149.24324024 23.98371194 149.78502373 22.3125 150.3125 C20.31202869 150.97775107 18.31191801 151.64408991 16.3125 152.3125 C17.30765625 152.45945313 18.3028125 152.60640625 19.328125 152.7578125 C47.48122651 157.16527621 71.24945159 167.76719904 92.1484375 187.3046875 C94.00375078 189.02604315 95.89970874 190.60907091 97.875 192.1875 C121.30038951 212.28975286 138.70703795 247.971428 146.3125 277.3125 C146.3125 278.6325 146.3125 279.9525 146.3125 281.3125 C50.6125 281.3125 -45.0875 281.3125 -143.6875 281.3125 C-134.1230991 238.27269596 -106.7974149 196.26108987 -69.76611328 172.05664062 C-65.83845933 169.61407499 -61.80390627 167.42384922 -57.6875 165.3125 C-56.60984375 164.75949219 -55.5321875 164.20648438 -54.421875 163.63671875 C-41.40991746 157.30360415 -27.85752782 154.57695965 -13.6875 152.3125 C-14.47511719 152.10496094 -15.26273438 151.89742187 -16.07421875 151.68359375 C-28.94606147 148.04291871 -39.70316549 142.21158076 -49.6875 133.3125 C-50.45835937 132.63574219 -51.22921875 131.95898438 -52.0234375 131.26171875 C-61.81627741 122.12062074 -67.43230516 110.86367547 -71.6875 98.3125 C-72.04070312 97.34183594 -72.39390625 96.37117188 -72.7578125 95.37109375 C-78.38218942 76.86736631 -74.54560462 56.71819858 -65.89257812 39.9074707 C-62.77624784 34.16298757 -59.10287987 29.13800408 -54.6875 24.3125 C-53.80191406 23.28962891 -53.80191406 23.28962891 -52.8984375 22.24609375 C-39.3730099 7.54078842 -19.73416362 -0.11767127 0 0 Z "
          fill="#00D5D5" transform="translate(266.6875,77.6875)"/>
    <path d="M0 0 C3.24900717 1.08300239 3.74706612 1.63159369 5.8125 4.1875 C10.02306572 9.19096445 14.68084431 13.70790698 19.3762207 18.25073242 C19.97265381 18.8357251 20.56908691 19.42071777 21.18359375 20.0234375 C21.72556396 20.54856934 22.26753418 21.07370117 22.82592773 21.61474609 C24 23 24 23 24 25 C24.5775 25.226875 25.155 25.45375 25.75 25.6875 C28.58972308 27.34400513 29.95224536 29.42567988 32 32 C33.71605876 33.56005342 35.48597189 35.04049681 37.265625 36.52734375 C40.46174071 39.24116272 43.31905181 42.11476735 45.875 45.4375 C48.13157284 48.15866136 50.56217204 50.26868968 53.265625 52.52734375 C56.55030773 55.3163649 59.44034176 58.27074835 62.0625 61.6875 C63.78114841 64.0687739 63.78114841 64.0687739 66 64.9375 C68 66 68 66 69.8125 68.75 C72.03201065 72.04755868 74.2361155 74.07628885 77.26953125 76.56640625 C80.70104005 79.40921376 83.63153784 82.54650811 86.4375 86 C88.90715115 89.06383105 88.90715115 89.06383105 91.9375 91.4375 C94.27996079 93.39751821 95.97242762 95.0599458 97.875 97.375 C100.67381859 100.75415105 103.78979222 103.53824763 107.12109375 106.3828125 C110.70372297 109.46640605 113.85907432 112.81045254 116.875 116.4375 C119.45468445 119.49465817 122.24915019 122.03346038 125.3203125 124.5859375 C127.71503172 126.60195694 129.88364266 128.69124653 132 131 C132 131.66 132 132.32 132 133 C132.99 133.33 133.98 133.66 135 134 C137.51215363 136.31891104 139.73779943 138.65642684 141.8125 141.375 C144.38935747 144.46722897 147.28903683 146.89663432 150.390625 149.44921875 C150.92171875 149.96097656 151.4528125 150.47273437 152 151 C152 151.66 152 152.32 152 153 C153.32 153.33 154.64 153.66 156 154 C158.66017653 185.8630033 140.68983049 226.72335978 121.296875 251.27734375 C120.02841849 252.96225135 119.00946677 254.65068998 118 256.5 C114.54755764 262.77456329 110.11344609 268.03265237 105 273 C104.67 273.66 104.34 274.32 104 275 C103.34 275 102.68 275 102 275 C102 275.66 102 276.32 102 277 C101.34 277 100.68 277 100 277 C99.64228516 277.84498047 99.64228516 277.84498047 99.27734375 278.70703125 C94.68735996 286.94654343 82.97177143 298.00940952 74 301 C73.67 301.99 73.34 302.98 73 304 C68.66666667 307 68.66666667 307 66 307 C66 307.66 66 308.32 66 309 C64.21166992 310.32861328 64.21166992 310.32861328 61.73046875 311.8203125 C60.39725586 312.62275391 60.39725586 312.62275391 59.03710938 313.44140625 C58.09673828 313.99699219 57.15636719 314.55257813 56.1875 315.125 C55.25873047 315.68832031 54.32996094 316.25164062 53.37304688 316.83203125 C46.38438257 321 46.38438257 321 43 321 C43 321.66 43 322.32 43 323 C36.45878592 326.39586433 29.87916498 329.36265249 23 332 C22.01257813 332.39058594 21.02515625 332.78117187 20.0078125 333.18359375 C-2.94401862 342.19036367 -2.94401862 342.19036367 -11.7265625 342.76171875 C-14.56781975 343.05951375 -17.22912106 343.74306985 -20 344.4375 C-33.69649696 347.62345824 -47.06558421 348.19775498 -61.0625 348.25 C-61.7784433 348.25526703 -62.4943866 348.26053406 -63.23202515 348.26596069 C-77.37414315 348.34625273 -90.88740058 346.85791571 -104.71484375 343.73046875 C-109.45140601 342.67727358 -114.21990859 341.82919953 -119 341 C-119 340.34 -119 339.68 -119 339 C-120.32 338.67 -121.64 338.34 -123 338 C-123 337.01 -123 336.02 -123 335 C-123.70125 334.814375 -124.4025 334.62875 -125.125 334.4375 C-128.47358251 332.76320875 -130.08409172 330.84539541 -132.375 327.94921875 C-134.88913975 324.93345977 -137.71979883 322.25091016 -140.52587891 319.5090332 C-142.12421171 317.94634455 -143.71838893 316.37949375 -145.3125 314.8125 C-146.13717773 314.01295898 -146.13717773 314.01295898 -146.97851562 313.19726562 C-148.35715678 311.83575044 -149.68339727 310.42159498 -151 309 C-151 308.34 -151 307.68 -151 307 C-151.57085831 306.75445877 -152.14171661 306.50891754 -152.72987366 306.25593567 C-155.39027409 304.78408288 -157.17810178 303.06181734 -159.32202148 300.9050293 C-160.58869911 299.63812508 -160.58869911 299.63812508 -161.88096619 298.34562683 C-162.78520828 297.43106216 -163.68945038 296.5164975 -164.62109375 295.57421875 C-165.56703014 294.62454713 -166.51341284 293.67531987 -167.46022034 292.72651672 C-169.95005745 290.22905574 -172.43383779 287.7256551 -174.91638184 285.22094727 C-177.43090269 282.6860455 -179.95101118 280.15671305 -182.47070312 277.62695312 C-186.95983231 273.11851935 -191.44497999 268.60617027 -195.92306519 264.08676147 C-197.57799376 262.42400289 -199.24594583 260.77716711 -200.92211914 259.13598633 C-203 257 -203 257 -206 253 C-109.97 253 -13.94 253 85 253 C81.91023929 243.73071788 78.86135761 234.89887588 75 226 C74.51015625 224.80117188 74.0203125 223.60234375 73.515625 222.3671875 C64.83298842 201.35764532 51.85629797 177.38273359 34.1875 162.5625 C32.08900221 160.78745488 30.01763563 159.01659416 28.015625 157.1328125 C21.28420291 150.83159408 13.82094172 145.8339805 6 141 C5.09870361 140.4421582 5.09870361 140.4421582 4.17919922 139.87304688 C-9.62765355 131.51077606 -24.97458959 127.20833406 -40.88427734 124.9362793 C-42.59925053 124.6830688 -44.30201016 124.34939816 -46 124 C-46.33 123.34 -46.66 122.68 -47 122 C-45.99582031 121.72027344 -44.99164063 121.44054687 -43.95703125 121.15234375 C-23.92664118 115.36956299 -6.19945316 104.90796318 4.1953125 86.1640625 C10.80893633 73.57558828 14.73661571 62.15117735 14.5625 47.75 C14.55226807 46.47382813 14.54203613 45.19765625 14.53149414 43.8828125 C14.18744978 28.56942706 9.60436786 17.10173204 2 4 C1.32105726 2.67287567 0.64871114 1.34216097 0 0 Z "
          fill="#012C45" transform="translate(329,107)"/>
    <path d="M0 0 C0.96389648 0.00418945 1.92779297 0.00837891 2.92089844 0.01269531 C23.91819225 0.34286353 42.25895647 8.49581513 57.25 23.21484375 C71.01343651 38.23788047 77.91491821 56.22558094 77.875 76.4375 C77.87137451 78.35248291 77.87137451 78.35248291 77.86767578 80.30615234 C77.66540069 90.73059109 75.89281273 99.00446218 71.3125 108.3125 C70.61060547 109.83617187 70.61060547 109.83617187 69.89453125 111.390625 C61.09621934 129.03653909 45.83140294 141.65498384 27.625 148.6875 C9.78772767 154.52139804 -12.61859974 154.8444894 -29.859375 146.83984375 C-37.16658726 143.0747426 -43.55531784 138.77814062 -49.6875 133.3125 C-50.45835937 132.63574219 -51.22921875 131.95898438 -52.0234375 131.26171875 C-61.81627741 122.12062074 -67.43230516 110.86367547 -71.6875 98.3125 C-72.04070312 97.34183594 -72.39390625 96.37117188 -72.7578125 95.37109375 C-78.38218942 76.86736631 -74.54560462 56.71819858 -65.89257812 39.9074707 C-62.77624784 34.16298757 -59.10287987 29.13800408 -54.6875 24.3125 C-54.09710938 23.63058594 -53.50671875 22.94867188 -52.8984375 22.24609375 C-39.3730099 7.54078842 -19.73416362 -0.11767127 0 0 Z "
          fill="#FDD5B0" transform="translate(266.6875,77.6875)"/>
    <path d="M0 0 C0 3 0 6 0 9 C-0.99 9 -1.98 9 -3 9 C-5.15017528 9.74172877 -5.15017528 9.74172877 -7 11 C-7.33 11.99 -7.66 12.98 -8 14 C-9.98 14 -11.96 14 -14 14 C-14.639375 15.093125 -15.27875 16.18625 -15.9375 17.3125 C-16.29714844 17.92738281 -16.65679687 18.54226562 -17.02734375 19.17578125 C-18.13901247 21.13819555 -18.13901247 21.13819555 -19 24 C-19.78375 24.45375 -20.5675 24.9075 -21.375 25.375 C-24.39882734 27.24689312 -25.3666105 28.8887819 -27 32 C-27.66 32.99 -28.32 33.98 -29 35 C-30.32 35 -31.64 35 -33 35 C-31.65691317 30.97073952 -29.98435042 28.95226063 -27 26 C-24.89460026 23.37818146 -22.84921393 20.71633215 -20.8046875 18.046875 C-19.91136719 17.03367187 -19.91136719 17.03367187 -19 16 C-18.34 16 -17.68 16 -17 16 C-16.731875 15.360625 -16.46375 14.72125 -16.1875 14.0625 C-15 12 -15 12 -12 11 C-12 10.34 -12 9.68 -12 9 C-11.34 9 -10.68 9 -10 9 C-10 8.34 -10 7.68 -10 7 C-9.34 7 -8.68 7 -8 7 C-7.67 6.01 -7.34 5.02 -7 4 C-2.54285714 0 -2.54285714 0 0 0 Z "
          fill="#3B6E8C" transform="translate(126,69)"/>
    <path d="M0 0 C3.2779375 1.25366733 6.30429984 2.68342132 9.375 4.375 C15.91996165 7.71689708 22.89222581 9.30361123 30 11 C27.17301918 13.82698082 24.9457575 13.6181525 21 14 C20.33097656 14.07734375 19.66195312 14.1546875 18.97265625 14.234375 C14.94732102 14.51251717 13.11879885 14.07996076 9.75 11.8125 C7.30114122 9.30798534 5.12260521 6.78134476 3 4 C2.4225 3.4225 1.845 2.845 1.25 2.25 C0.8375 1.8375 0.425 1.425 0 1 C0 0.67 0 0.34 0 0 Z "
          fill="#0E374D" transform="translate(225,218)"/>
    <path d="M0 0 C3.47909371 -0.05883728 6.95805674 -0.09387399 10.4375 -0.125 C11.41138672 -0.14175781 12.38527344 -0.15851563 13.38867188 -0.17578125 C22.46998524 -0.23652582 29.72210338 1.23731972 38 5 C40.65556343 6.0321978 43.32639184 7.01498647 46 8 C46 8.66 46 9.32 46 10 C48.64 9.67 51.28 9.34 54 9 C54.53012738 10.28788008 55.0488329 11.58046678 55.5625 12.875 C55.85253906 13.59429687 56.14257812 14.31359375 56.44140625 15.0546875 C57 17 57 17 56 19 C55.32195312 18.48050781 54.64390625 17.96101563 53.9453125 17.42578125 C39.56974937 6.65406428 25.9182814 2.37083562 8.0625 1.4375 C7.28326172 1.39431641 6.50402344 1.35113281 5.70117188 1.30664062 C3.80092883 1.20171923 1.90048331 1.1004755 0 1 C0 0.67 0 0.34 0 0 Z "
          fill="#245772" transform="translate(261,77)"/>
    <path d="M0 0 C1.78277344 -0.01160156 1.78277344 -0.01160156 3.6015625 -0.0234375 C9.56765968 -0.01012032 14.75703143 0.17415238 20.375 2.25 C20.375 2.58 20.375 2.91 20.375 3.25 C18.47924749 3.27721176 16.58338021 3.29649136 14.6875 3.3125 C13.10388672 3.32990234 13.10388672 3.32990234 11.48828125 3.34765625 C8.65089738 3.25865425 6.1311081 2.89939838 3.375 2.25 C3.375 2.91 3.375 3.57 3.375 4.25 C-9.495 3.755 -9.495 3.755 -22.625 3.25 C-22.625 2.92 -22.625 2.59 -22.625 2.25 C-15.0082005 0.19493204 -7.86581553 -0.05152281 0 0 Z "
          fill="#2AC0BD" transform="translate(268.625,228.75)"/>
    <path d="M0 0 C0 3 0 6 0 9 C-0.99 9 -1.98 9 -3 9 C-5.15017528 9.74172877 -5.15017528 9.74172877 -7 11 C-7.33 11.99 -7.66 12.98 -8 14 C-9.65 13.67 -11.3 13.34 -13 13 C-12.67 11.68 -12.34 10.36 -12 9 C-11.34 9 -10.68 9 -10 9 C-10 8.34 -10 7.68 -10 7 C-9.34 7 -8.68 7 -8 7 C-7.67 6.01 -7.34 5.02 -7 4 C-2.54285714 0 -2.54285714 0 0 0 Z "
          fill="#0E5179" transform="translate(126,69)"/>
    <path d="M0 0 C0.66 0.66 1.32 1.32 2 2 C1.64700993 5.44165321 0.95418308 7.06872538 -1 10 C-1.42151857 12.63798236 -1.42151857 12.63798236 -1.5625 15.5 C-1.76817016 18.62282857 -2.00550945 21.01652836 -3 24 C-3.42698515 32.02480913 -2.79257075 40.01768028 -2 48 C-7.17094128 40.24358808 -6.05679555 25.63477923 -4.61914062 16.60888672 C-3.44428772 10.96120097 -1.82351569 5.47054706 0 0 Z "
          fill="#D2CCBC" transform="translate(197,125)"/>
    <path d="M0 0 C3.43632231 1.14544077 4.33471585 2.2711508 6.625 5 C7.23601562 5.721875 7.84703125 6.44375 8.4765625 7.1875 C9.23066406 8.0846875 9.23066406 8.0846875 10 9 C10.33 9.33 10.66 9.66 11 10 C11.42462895 11.75959255 11.79042286 13.53358633 12.125 15.3125 C12.31320312 16.27800781 12.50140625 17.24351563 12.6953125 18.23828125 C12.9857295 20.87065076 12.83720185 22.51787338 12 25 C11.70867187 24.24976563 11.41734375 23.49953125 11.1171875 22.7265625 C8.61409394 16.47669995 5.85328981 10.73879767 2.234375 5.05859375 C1 3 1 3 0 0 Z "
          fill="#1B3748" transform="translate(329,107)"/>
    <path d="M0 0 C3.89608498 1.48904175 7.59097018 3.24378713 11.3125 5.125 C12.38113281 5.66382813 13.44976562 6.20265625 14.55078125 6.7578125 C15.76314453 7.37269531 15.76314453 7.37269531 17 8 C14 10 14 10 10.5625 9.9375 C6.31149948 8.81881565 5.3892324 7.5838486 3 4 C2.4225 3.4225 1.845 2.845 1.25 2.25 C0.8375 1.8375 0.425 1.425 0 1 C0 0.67 0 0.34 0 0 Z "
          fill="#0B2B40" transform="translate(225,218)"/>
    <path d="M0 0 C0 0.33 0 0.66 0 1 C-0.56589844 1.12117188 -1.13179687 1.24234375 -1.71484375 1.3671875 C-2.81505859 1.61855469 -2.81505859 1.61855469 -3.9375 1.875 C-4.66839844 2.03742187 -5.39929688 2.19984375 -6.15234375 2.3671875 C-8.20700294 2.82961523 -8.20700294 2.82961523 -9 5 C-13.14433505 7.00937457 -17.49940118 8.1146363 -22 9 C-22.66 8.34 -23.32 7.68 -24 7 C-23.21496094 6.67386719 -22.42992187 6.34773438 -21.62109375 6.01171875 C-20.57050781 5.57472656 -19.51992187 5.13773438 -18.4375 4.6875 C-16.79394531 4.00880859 -16.79394531 4.00880859 -15.1171875 3.31640625 C-12.72856488 2.30767715 -10.40014546 1.24187505 -8.0625 0.125 C-4.79232963 -1.07628708 -3.26417031 -1.08805677 0 0 Z "
          fill="#4D7C97" transform="translate(201,28)"/>
    <path d="M0 0 C9.85117552 -0.91638842 19.51615226 3.34220124 28 8 C24.28870271 9.2370991 22.65580753 8.25502971 19.140625 6.8359375 C16.14451969 5.66592557 13.1030302 4.84040401 10 4 C10 3.34 10 2.68 10 2 C7.03 2 4.06 2 1 2 C0.67 1.34 0.34 0.68 0 0 Z "
          fill="#DFD5C3" transform="translate(278,79)"/>
    <path d="M0 0 C4.14298667 0.59834725 7.18194377 2.00664285 10.8125 4.0625 C11.78832031 4.61035156 12.76414062 5.15820312 13.76953125 5.72265625 C14.50558594 6.14417969 15.24164063 6.56570312 16 7 C16 7.33 16 7.66 16 8 C12.37 7.67 8.74 7.34 5 7 C5 6.01 5 5.02 5 4 C3.35 3.67 1.7 3.34 0 3 C0 2.01 0 1.02 0 0 Z "
          fill="#437796" transform="translate(365,39)"/>
    <path d="M0 0 C0.66 0.33 1.32 0.66 2 1 C1 2 0 3 -1 4 C-1.639375 4.680625 -2.27875 5.36125 -2.9375 6.0625 C-4.90734718 7.9129625 -6.59643913 8.83966027 -9 10 C-9.33 10.66 -9.66 11.32 -10 12 C-13.0625 12.625 -13.0625 12.625 -16 13 C-12.95797381 8.74116333 -9.5160461 5.61396757 -5 3 C-4.34 3 -3.68 3 -3 3 C-3 2.34 -3 1.68 -3 1 C-2.01 0.67 -1.02 0.34 0 0 Z "
          fill="#4C7C99" transform="translate(144,54)"/>
    <path d="M0 0 C1.485 0.99 1.485 0.99 3 2 C2.67 4.31 2.34 6.62 2 9 C2.66 9 3.32 9 4 9 C6.61895048 13.77573323 5.83119431 17.84434881 5 23 C2.63934422 19.45901633 2.0951615 16.16668569 1.375 12.0625 C1.2409375 11.34642578 1.106875 10.63035156 0.96875 9.89257812 C0.35583035 6.5183929 0 3.44160369 0 0 Z "
          fill="#5B89A2" transform="translate(51,266)"/>
    <path d="M0 0 C2 1 2 1 3.875 3.5 C6.02483241 6.0292146 6.79424013 6.65652573 10 7 C9.67 8.65 9.34 10.3 9 12 C8.01 12 7.02 12 6 12 C6 11.34 6 10.68 6 10 C5.34 10 4.68 10 4 10 C2.67578125 8.57421875 2.67578125 8.57421875 1.3125 6.6875 C0.85488281 6.07261719 0.39726563 5.45773437 -0.07421875 4.82421875 C-0.53248047 3.92123047 -0.53248047 3.92123047 -1 3 C-0.67 2.01 -0.34 1.02 0 0 Z "
          fill="#2A6285" transform="translate(92,363)"/>
    <path d="M0 0 C4.56048012 3.61251516 8.01665146 6.98797445 11 12 C9.6078125 11.9690625 9.6078125 11.9690625 8.1875 11.9375 C4.97713989 11.84230396 4.97713989 11.84230396 2 13 C2.165 12.401875 2.33 11.80375 2.5 11.1875 C3.1114124 8.88655664 3.1114124 8.88655664 3 6 C2.01971384 4.65210653 1.02028865 3.31787285 0 2 C0 1.34 0 0.68 0 0 Z "
          fill="#E1CEB4" transform="translate(318,96)"/>
    <path d="M0 0 C2.03144641 0.93446535 4.03533587 1.93224776 6 3 C6 3.99 6 4.98 6 6 C7.32 6.66 8.64 7.32 10 8 C4.94744036 7.36843005 0.70406799 5.86540627 -4 4 C-3.34 3.67 -2.68 3.34 -2 3 C-2 2.34 -2 1.68 -2 1 C-1.34 0.67 -0.68 0.34 0 0 Z "
          fill="#3B6F8F" transform="translate(200,439)"/>
    <path d="M0 0 C0.625 1.75 0.625 1.75 1 4 C0.5359375 4.86625 0.5359375 4.86625 0.0625 5.75 C-1.55389504 9.1729542 -1.12535919 12.23922443 -1 16 C-1.99 16.33 -2.98 16.66 -4 17 C-5.68538601 18.99665314 -5.68538601 18.99665314 -7 21 C-6.20779732 13.67212522 -3.405174 6.50495123 0 0 Z "
          fill="#6B95AD" transform="translate(68,144)"/>
    <path d="M0 0 C0.99 0 1.98 0 3 0 C2.67 1.32 2.34 2.64 2 4 C2.66 4.33 3.32 4.66 4 5 C6.20731737 8.31097606 6.17754126 11.09409237 6 15 C6.66 15.33 7.32 15.66 8 16 C7.34 16.99 6.68 17.98 6 19 C5.60167969 17.89591797 5.60167969 17.89591797 5.1953125 16.76953125 C4.84210937 15.79371094 4.48890625 14.81789063 4.125 13.8125 C3.60292969 12.36810547 3.60292969 12.36810547 3.0703125 10.89453125 C2.37780966 9.02174072 1.64562863 7.16295037 0.8671875 5.32421875 C0 3 0 3 0 0 Z "
          fill="#608BA5" transform="translate(59,301)"/>
    <path d="M0 0 C1.65 0.33 3.3 0.66 5 1 C1.375 4 1.375 4 -2 4 C-2 4.66 -2 5.32 -2 6 C-3.98 6.66 -5.96 7.32 -8 8 C-7.67 6.02 -7.34 4.04 -7 2 C-5.02 2 -3.04 2 -1 2 C-0.67 1.34 -0.34 0.68 0 0 Z "
          fill="#4E6777" transform="translate(374,424)"/>
    <path d="M0 0 C0.99 0.33 1.98 0.66 3 1 C-0.06093224 4.93548431 -2.49115974 7.68116787 -7 10 C-6.67 8.02 -6.34 6.04 -6 4 C-4.02 3.67 -2.04 3.34 0 3 C0 2.01 0 1.02 0 0 Z "
          fill="#476273" transform="translate(419,391)"/>
    <path d="M0 0 C0 0.66 0 1.32 0 2 C-4.56858867 5.78090097 -10.32272986 6.15487222 -16 7 C-13.52097896 4.06719206 -11.030738 3.06128178 -7.4375 1.8125 C-6.46683594 1.46832031 -5.49617187 1.12414063 -4.49609375 0.76953125 C-2 0 -2 0 0 0 Z "
          fill="#52809C" transform="translate(177,37)"/>
    <path d="M0 0 C0.66 0 1.32 0 2 0 C0.72278474 4.99275057 -1.17330957 7.57611908 -5 11 C-5 8.69 -5 6.38 -5 4 C-4.01 3.67 -3.02 3.34 -2 3 C-1.34 3.33 -0.68 3.66 0 4 C0 2.68 0 1.36 0 0 Z "
          fill="#435D6D" transform="translate(447,358)"/>
    <path d="M0 0 C0 0.66 0 1.32 0 2 C-1.98 2.99 -1.98 2.99 -4 4 C-4 4.33 -4 4.66 -4 5 C-6.64 5 -9.28 5 -12 5 C-12.33 4.34 -12.66 3.68 -13 3 C-11.39743892 2.49487756 -9.79288208 1.99608373 -8.1875 1.5 C-7.29417969 1.2215625 -6.40085937 0.943125 -5.48046875 0.65625 C-3 0 -3 0 0 0 Z "
          fill="#183B45" transform="translate(295,226)"/>
    <path d="M0 0 C-2 2 -2 2 -4.6015625 2.1953125 C-5.59929687 2.17210937 -6.59703125 2.14890625 -7.625 2.125 C-9.12933594 2.09792969 -9.12933594 2.09792969 -10.6640625 2.0703125 C-11.43492187 2.04710937 -12.20578125 2.02390625 -13 2 C-13.33 1.34 -13.66 0.68 -14 0 C-9.72000646 -2.13999677 -4.50951645 -1.09321611 0 0 Z "
          fill="#063042" transform="translate(255,229)"/>
    <path d="M0 0 C1.8125 0.1875 1.8125 0.1875 4 1 C7 5.17857143 7 5.17857143 7 8 C3.08597051 6.73058503 1.20927127 5.48832306 -1 2 C-0.67 1.34 -0.34 0.68 0 0 Z "
          fill="#3B7294" transform="translate(132,404)"/>
    <path d="M0 0 C3 2 3 2 3.765625 4.4609375 C3.92546875 5.42257813 4.0853125 6.38421875 4.25 7.375 C4.50523437 8.80972656 4.50523437 8.80972656 4.765625 10.2734375 C4.98765822 12.85642402 4.80865677 14.56247744 4 17 C1.36536213 11.15439723 -0.56131481 6.45512034 0 0 Z "
          fill="#152F3E" transform="translate(337,115)"/>
    <path d="M0 0 C1.41805831 0.28482368 2.83440379 0.57818144 4.25 0.875 C5.03890625 1.03742188 5.8278125 1.19984375 6.640625 1.3671875 C8.96831144 1.99150075 10.89031952 2.84838542 13 4 C13 4.66 13 5.32 13 6 C14.32 6.66 15.64 7.32 17 8 C13.02698665 8 10.25357249 6.28783907 6.8125 4.5 C6.15830078 4.16613281 5.50410156 3.83226563 4.83007812 3.48828125 C3.2172936 2.66423076 1.60827441 1.83281845 0 1 C0 0.67 0 0.34 0 0 Z "
          fill="#1A4B66" transform="translate(294,81)"/>
    <path d="M0 0 C3.36720387 1.39332574 4.9859524 2.9789286 7 6 C6.34 6 5.68 6 5 6 C4.67 6.99 4.34 7.98 4 9 C3.67 8.34 3.34 7.68 3 7 C2.34 7 1.68 7 1 7 C0.67 4.69 0.34 2.38 0 0 Z "
          fill="#427898" transform="translate(413,71)"/>
    <path d="M0 0 C3.70488428 0.92622107 5.16604069 1.67210485 8 4 C7.625 5.9375 7.625 5.9375 7 8 C6.01 8.495 6.01 8.495 5 9 C3.35 6.03 1.7 3.06 0 0 Z "
          fill="#003751" transform="translate(382,291)"/>
    <path d="M0 0 C-2.3129482 2.3129482 -3.47904875 2.49580975 -6.625 3.125 C-7.44226563 3.29257812 -8.25953125 3.46015625 -9.1015625 3.6328125 C-10.04128906 3.81457031 -10.04128906 3.81457031 -11 4 C-11 3.01 -11 2.02 -11 1 C-6.92630576 -1.03684712 -4.41062136 -1.0257259 0 0 Z "
          fill="#4F6577" transform="translate(335,444)"/>
    <path d="M0 0 C1 3 1 3 0.00390625 5.48046875 C-0.47175781 6.37378906 -0.94742187 7.26710938 -1.4375 8.1875 C-1.91058594 9.08855469 -2.38367188 9.98960937 -2.87109375 10.91796875 C-3.24363281 11.60503906 -3.61617188 12.29210937 -4 13 C-4.66 11.68 -5.32 10.36 -6 9 C-5.01 8.67 -4.02 8.34 -3 8 C-3.33 7.01 -3.66 6.02 -4 5 C-3.34 5 -2.68 5 -2 5 C-2.33 3.68 -2.66 2.36 -3 1 C-2.01 0.67 -1.02 0.34 0 0 Z "
          fill="#607584" transform="translate(470,319)"/>
    <path d="M0 0 C4.67239145 2.13206212 8.59287819 4.02502456 12 8 C9.3125 8.3125 9.3125 8.3125 6 8 C2.89835231 5.44975635 1.27433584 3.82300753 0 0 Z "
          fill="#10CCCB" transform="translate(332,246)"/>
    <path d="M0 0 C0.66 0.33 1.32 0.66 2 1 C0.4972742 5.20763224 -2.23332995 6.8027758 -6 9 C-6.66 9 -7.32 9 -8 9 C-8 8.34 -8 7.68 -8 7 C-7.34 7 -6.68 7 -6 7 C-5.67 6.01 -5.34 5.02 -5 4 C-3.37667033 2.61423077 -1.71275535 1.27358732 0 0 Z "
          fill="#6A92A9" transform="translate(124,69)"/>
    <path d="M0 0 C3.43198603 1.23932829 6.30325632 2.50301511 9 5 C9 5.99 9 6.98 9 8 C4.12314139 6.64531705 2.51407619 4.28324091 0 0 Z "
          fill="#5482A0" transform="translate(113,390)"/>
    <path d="M0 0 C3.3566285 2.23775234 3.57996014 2.93320048 4.6875 6.625 C4.93886719 7.44226563 5.19023437 8.25953125 5.44921875 9.1015625 C5.72185547 10.04128906 5.72185547 10.04128906 6 11 C5.01 10.34 4.02 9.68 3 9 C3 8.34 3 7.68 3 7 C2.34 7 1.68 7 1 7 C0.67 4.69 0.34 2.38 0 0 Z "
          fill="#15C2C8" transform="translate(395,315)"/>
    <path d="M0 0 C1.99897128 0.33944795 3.99875639 0.67421616 6 1 C6 1.33 6 1.66 6 2 C4.06280622 2.05406122 2.12518079 2.09282025 0.1875 2.125 C-0.89144531 2.14820313 -1.97039062 2.17140625 -3.08203125 2.1953125 C-6 2 -6 2 -9 0 C-5.62628491 -1.1245717 -3.42896214 -0.81641956 0 0 Z "
          fill="#26AEAE" transform="translate(283,230)"/>
    <path d="M0 0 C-1.78881736 1.00508801 -3.58114696 2.00392736 -5.375 3 C-6.37273437 3.556875 -7.37046875 4.11375 -8.3984375 4.6875 C-11 6 -11 6 -13 6 C-13 5.34 -13 4.68 -13 4 C-11.35 3.67 -9.7 3.34 -8 3 C-8 2.34 -8 1.68 -8 1 C-4.85571151 -0.9090323 -3.47925125 -1.04523725 0 0 Z "
          fill="#DECEBA" transform="translate(307,220)"/>
    <path d="M0 0 C0.66 0.99 1.32 1.98 2 3 C1.01 3.33 0.02 3.66 -1 4 C-1 5.65 -1 7.3 -1 9 C-1.99 9.33 -2.98 9.66 -4 10 C-4.66 9.34 -5.32 8.68 -6 8 C-4.02 5.36 -2.04 2.72 0 0 Z "
          fill="#1D3543" transform="translate(332,195)"/>
    <path d="M0 0 C4.23429756 1.31061591 8.07407404 2.94356259 12 5 C8.6699024 6.11003253 8.02156559 5.9343162 4.875 4.75 C4.17117188 4.49734375 3.46734375 4.2446875 2.7421875 3.984375 C1 3 1 3 0 0 Z "
          fill="#D5CDBB" transform="translate(294,82)"/>
    <path d="M0 0 C3.36720387 1.39332574 4.9859524 2.9789286 7 6 C3.93109813 7.53445094 1.29905734 6.54984289 -2 6 C-1.01 4.68 -0.02 3.36 1 2 C0.67 1.34 0.34 0.68 0 0 Z "
          fill="#4D7E9C" transform="translate(405,64)"/>
    <path d="M0 0 C1.46067199 0.45082469 2.91848032 0.91093537 4.375 1.375 C5.18710938 1.63023437 5.99921875 1.88546875 6.8359375 2.1484375 C9 3 9 3 11 5 C8 6 8 6 6.2109375 5.29296875 C5.60507813 4.92816406 4.99921875 4.56335938 4.375 4.1875 C3.76398438 3.83042969 3.15296875 3.47335937 2.5234375 3.10546875 C1 2 1 2 0 0 Z "
          fill="#648DA9" transform="translate(152,421)"/>
    <path d="M0 0 C2.32240046 2.85021875 3.93906527 5.46355091 5 9 C4.625 11.3125 4.625 11.3125 4 13 C3.67 11.68 3.34 10.36 3 9 C2.34 9 1.68 9 1 9 C0.67 6.03 0.34 3.06 0 0 Z "
          fill="#789CB2" transform="translate(468,145)"/>
    <path d="M0 0 C1.65 1.65 3.3 3.3 5 5 C4.34 5.66 3.68 6.32 3 7 C1.68 7 0.36 7 -1 7 C-0.67 4.69 -0.34 2.38 0 0 Z "
          fill="#044B6F" transform="translate(435,95)"/>
    <path d="M0 0 C0.33 0.66 0.66 1.32 1 2 C-1.00979059 5.01468588 -1.70736015 5.83789182 -5 7 C-6.32 6.67 -7.64 6.34 -9 6 C-6.03 4.02 -3.06 2.04 0 0 Z "
          fill="#DACFBB" transform="translate(229,88)"/>
    <path d="M0 0 C3 1 3 1 4.1875 2.875 C5 5 5 5 5 8 C3.02 6.68 1.04 5.36 -1 4 C-0.67 2.68 -0.34 1.36 0 0 Z "
          fill="#013C54" transform="translate(348,252)"/>
    <path d="M0 0 C0.99 0 1.98 0 3 0 C3 0.99 3 1.98 3 3 C3.99 3.33 4.98 3.66 6 4 C6 5.98 6 7.96 6 10 C3.25722422 6.80009492 1.3697164 3.99500618 0 0 Z "
          fill="#E1D2BF" transform="translate(200,188)"/>
    <path d="M0 0 C3.35661695 1.67830848 4.32506861 4.70789347 6 8 C5.67 8.66 5.34 9.32 5 10 C4.01 10 3.02 10 2 10 C0.68373308 6.38026598 0 3.90432869 0 0 Z "
          fill="#6590A8" transform="translate(457,124)"/>
    <path d="M0 0 C0.66 0.33 1.32 0.66 2 1 C0.875 3.4375 0.875 3.4375 -1 6 C-4.1875 6.8125 -4.1875 6.8125 -7 7 C-4.78071806 4.09197539 -3.07030857 2.04687238 0 0 Z "
          fill="#6891A9" transform="translate(135,60)"/>
    <path d="M0 0 C3.82097239 0.53069061 6.06171403 1.49701566 9 4 C6.36 4 3.72 4 1 4 C0.67 2.68 0.34 1.36 0 0 Z "
          fill="#53809E" transform="translate(365,39)"/>
    <path d="M0 0 C0.66 0.33 1.32 0.66 2 1 C2 1.66 2 2.32 2 3 C3.45833358 4.62514468 3.45833358 4.62514468 5 6 C4.34 6 3.68 6 3 6 C3.33 7.32 3.66 8.64 4 10 C0.9083091 7.47043472 0.09068668 4.77545388 -1 1 C-0.67 0.67 -0.34 0.34 0 0 Z "
          fill="#5888A2" transform="translate(78,341)"/>
    <path d="M0 0 C0.33 0.66 0.66 1.32 1 2 C0 5 0 5 -3 7 C-5.1875 6.625 -5.1875 6.625 -7 6 C-6.21625 5.38125 -5.4325 4.7625 -4.625 4.125 C-2.03162353 2.10141339 -2.03162353 2.10141339 0 0 Z "
          fill="#193240" transform="translate(316,213)"/>
    <path d="M0 0 C0.66 0.33 1.32 0.66 2 1 C1.54625 1.391875 1.0925 1.78375 0.625 2.1875 C-1.27642919 4.30832487 -2.06204028 6.33042235 -3 9 C-4.32 8.67 -5.64 8.34 -7 8 C-6.34 7.01 -5.68 6.02 -5 5 C-4.34 5 -3.68 5 -3 5 C-2.690625 4.360625 -2.38125 3.72125 -2.0625 3.0625 C-1 1 -1 1 0 0 Z "
          fill="#7CA1B6" transform="translate(112,80)"/>
    <path d="M0 0 C0 0.66 0 1.32 0 2 C-0.66 2 -1.32 2 -2 2 C-2.28875 2.639375 -2.5775 3.27875 -2.875 3.9375 C-4 6 -4 6 -6 7 C-6.6875 5.1875 -6.6875 5.1875 -7 3 C-4.8243318 -0.20624788 -4.07796486 0 0 0 Z "
          fill="#566E7D" transform="translate(431,382)"/>
    <path d="M0 0 C0.66 0.33 1.32 0.66 2 1 C0.4198632 3.15473199 -1.10646634 5.10646634 -3 7 C-5.625 7.125 -5.625 7.125 -8 7 C-5.4837822 4.39391727 -2.94865641 2.10618315 0 0 Z "
          fill="#10CCD4" transform="translate(192,253)"/>
    <path d="M0 0 C0.66 0.33 1.32 0.66 2 1 C0.73046875 2.49739583 -0.5390625 3.99479167 -1.80859375 5.4921875 C-3.0878152 7.00594079 -3.0878152 7.00594079 -4 9 C-4.99 9 -5.98 9 -7 9 C-5.44499019 5.18315774 -2.96404505 2.80804268 0 0 Z "
          fill="#122534" transform="translate(326,204)"/>
    <path d="M0 0 C0.66 0.33 1.32 0.66 2 1 C1.01 4.3 0.02 7.6 -1 11 C-1.66 11 -2.32 11 -3 11 C-2.53199289 6.94393835 -2.12046792 3.53411321 0 0 Z "
          fill="#E8D1B7" transform="translate(340,173)"/>
    <path d="M0 0 C4.75 0.875 4.75 0.875 7 2 C7 2.66 7 3.32 7 4 C7.66 4.33 8.32 4.66 9 5 C8.443125 4.855625 7.88625 4.71125 7.3125 4.5625 C4.88615805 3.97230872 2.45093655 3.476571 0 3 C0 2.01 0 1.02 0 0 Z "
          fill="#6895AC" transform="translate(381,48)"/>
    <path d="M0 0 C1.32 0.66 2.64 1.32 4 2 C2.73392393 2.53229326 1.46189588 3.05044544 0.1875 3.5625 C-0.52019531 3.85253906 -1.22789062 4.14257812 -1.95703125 4.44140625 C-4 5 -4 5 -7 4 C-6.67 3.34 -6.34 2.68 -6 2 C-4.02 2 -2.04 2 0 2 C0 1.34 0 0.68 0 0 Z "
          fill="#5E7382" transform="translate(343,439)"/>
    <path d="M0 0 C4 4.625 4 4.625 4 8 C3.01 8 2.02 8 1 8 C-0.6875 5.5 -0.6875 5.5 -2 3 C-1.34 3 -0.68 3 0 3 C0 2.01 0 1.02 0 0 Z "
          fill="#5D88A5" transform="translate(108,380)"/>
    <path d="M0 0 C0 0.66 0 1.32 0 2 C-3.29549466 3.72264494 -6.33118845 5.29445932 -10 6 C-10 5.34 -10 4.68 -10 4 C-8.71086513 3.32845067 -7.41859796 2.66291141 -6.125 2 C-5.40570313 1.62875 -4.68640625 1.2575 -3.9453125 0.875 C-2 0 -2 0 0 0 Z "
          fill="#13C3D0" transform="translate(219,239)"/>
    <path d="M0 0 C1.32 1.32 2.64 2.64 4 4 C3.2575 4.144375 2.515 4.28875 1.75 4.4375 C-0.52027739 4.90187492 -2.75759479 5.41863569 -5 6 C-5 5.34 -5 4.68 -5 4 C-4.34 4 -3.68 4 -3 4 C-3 3.34 -3 2.68 -3 2 C-2.01 2 -1.02 2 0 2 C0 1.34 0 0.68 0 0 Z "
          fill="#155170" transform="translate(214,208)"/>
    <path d="M0 0 C0.66 0.66 1.32 1.32 2 2 C1.75033584 6.74361909 0.63709699 7.36290301 -3 11 C-2.01 7.37 -1.02 3.74 0 0 Z "
          fill="#DCD0B7" transform="translate(197,125)"/>
    <path d="M0 0 C1 2 1 2 0.375 4.5625 C-1 7 -1 7 -3.625 7.8125 C-4.40875 7.874375 -5.1925 7.93625 -6 8 C-4.02 5.36 -2.04 2.72 0 0 Z "
          fill="#DFD4BE" transform="translate(212,102)"/>
    <path d="M0 0 C1.32 0.66 2.64 1.32 4 2 C1.63707344 4.52588702 0.33537489 5.88820837 -3 7 C-3 5 -3 5 -1 3 C-0.67 2.01 -0.34 1.02 0 0 Z "
          fill="#E7CFB4" transform="translate(311,212)"/>
    <path d="M0 0 C1.125 3.75 1.125 3.75 0 6 C-1.32 6 -2.64 6 -4 6 C-2.25 1.125 -2.25 1.125 0 0 Z " fill="#4E7D99"
          transform="translate(97,98)"/>
    <path d="M0 0 C2 1 2 1 3.1875 3.4375 C4 6 4 6 3 8 C0.9375 5.6875 0.9375 5.6875 -1 3 C-0.67 2.01 -0.34 1.02 0 0 Z "
          fill="#527F9A" transform="translate(92,363)"/>
    <path d="M0 0 C2.475 0.99 2.475 0.99 5 2 C4.67 3.98 4.34 5.96 4 8 C3.34 7.67 2.68 7.34 2 7 C1.26924352 4.6859378 0.59861742 2.35171131 0 0 Z "
          fill="#557E9C" transform="translate(66,320)"/>
    <path d="M0 0 C0.66 0.66 1.32 1.32 2 2 C0.35 3.98 -1.3 5.96 -3 8 C-3.33 6.68 -3.66 5.36 -4 4 C-3.34 4 -2.68 4 -2 4 C-1.34 2.68 -0.68 1.36 0 0 Z "
          fill="#006181" transform="translate(160,281)"/>
    <path d="M0 0 C-2.64 1.65 -5.28 3.3 -8 5 C-8 4.01 -8 3.02 -8 2 C-7.34 2 -6.68 2 -6 2 C-6 1.34 -6 0.68 -6 0 C-4 -1 -4 -1 0 0 Z "
          fill="#006785" transform="translate(197,251)"/>
    <path d="M0 0 C2.64 1.65 5.28 3.3 8 5 C7.34 5.66 6.68 6.32 6 7 C3.5625 5.75 3.5625 5.75 1 4 C0.67 2.68 0.34 1.36 0 0 Z "
          fill="#1E465B" transform="translate(218,212)"/>
    <path d="M0 0 C2.64465038 3.1254959 3.84414715 6.08788267 5 10 C3.68 9.67 2.36 9.34 1 9 C0.67 6.03 0.34 3.06 0 0 Z "
          fill="#87ADC1" transform="translate(463,134)"/>
    <path d="M0 0 C-2.31 1.32 -4.62 2.64 -7 4 C-7.66 3.34 -8.32 2.68 -9 2 C-3.375 -1.125 -3.375 -1.125 0 0 Z "
          fill="#89ACBD" transform="translate(186,33)"/>
</svg>
